<svg width="183" height="58" viewBox="0 0 183 58" fill="none" xmlns="http://www.w3.org/2000/svg">
<g filter="url(#filter0_d_78_931)">
<rect width="175" height="50" rx="15" fill="white"/>
<rect x="1" y="1" width="173" height="48" rx="14" stroke="black" stroke-opacity="0.5" stroke-width="2"/>
</g>
<g clip-path="url(#clip0_78_931)">
<path d="M25.5431 38.7054C22.8168 37.9709 20.3149 35.8997 19.0349 33.3175C18.0539 31.3386 18.0551 31.3525 18.0528 22.2575C17.9366 14.3901 17.9811 14.1362 18.5055 13.3775C19.6194 11.5199 22.0758 11.1232 23.6863 12.5408C24.8171 13.5361 24.9069 13.8741 24.9069 17.1307V19.955H29.6574C32.5632 19.955 34.6845 20.0143 35.1204 20.1078C37.5995 20.6394 38.5406 23.6041 36.8193 25.4597C36.6165 25.6784 36.1987 25.9932 35.8908 26.1593C35.3506 26.4509 35.1501 26.4628 30.119 26.5041L24.9069 26.5469V27.8064C24.9069 29.6383 25.0969 30.2376 25.9472 31.0879C26.9402 32.0808 27.2052 32.1276 31.8601 32.1313C35.4713 32.134 35.7962 32.1548 36.3806 32.4194C38.5976 33.4229 39.1499 36.0951 37.5151 37.9084C36.5596 38.9683 36.4965 38.9789 31.2034 38.9729C27.0721 38.9682 26.4006 38.9364 25.5431 38.7054H25.5431ZM46.6974 38.7655C44.5448 38.2439 42.3232 36.6085 40.9654 34.5458C39.7141 32.6449 39.4702 31.3075 39.4637 26.3118C39.4582 22.0036 39.5447 21.4611 40.3735 20.6077C41.1406 19.8178 41.6294 19.6131 42.758 19.6089C43.6198 19.6055 43.8374 19.6601 44.4334 20.0286C44.8575 20.2908 45.2796 20.7128 45.5418 21.1366C46.0667 22.0463 45.9704 22.4279 46.0352 26.1701C46.1037 30.4292 46.1119 30.53 46.4332 31.0468C47.5186 32.7925 49.7628 33.0497 51.2515 31.5991C52.111 30.7616 52.1918 30.2695 52.1918 25.8707C52.1918 22.2537 52.208 22.0102 52.4874 21.4536C53.047 20.3384 53.8584 19.7482 55.0577 19.5838C56.3411 19.4079 57.7251 20.1644 58.3881 21.4042C58.6837 21.9568 58.7014 22.1836 58.7681 26.2622C58.7443 29.6552 58.9039 30.6481 59.224 31.1233C60.248 32.6692 62.4003 33.0018 63.7443 31.8217C64.7076 30.9759 64.7071 30.9788 64.7863 26.2515C64.8543 22.1937 64.873 21.9553 65.1663 21.4042C66.3972 19.0909 69.513 18.9451 70.8677 21.1374C71.7439 22.3522 71.3604 24.923 71.3604 26.5808C71.424 28.7622 71.296 31.5594 70.9145 32.4215C69.8768 35.3505 67.5654 37.6769 64.7847 38.5912C63.5234 39.0059 60.7438 39.1055 59.4914 38.7808C58.284 38.4677 57.2391 37.9881 56.2447 37.2906L55.41 36.7051L54.5753 37.2905C53.566 37.9985 52.5444 38.4781 51.4278 38.7679C50.387 39.0381 47.8169 39.0368 46.6974 38.7655ZM75.7578 38.7859C75.1203 38.5084 74.3243 37.7589 73.9764 37.1087C73.6723 36.5404 73.6698 36.4776 73.6698 29.3298C73.6698 22.4515 73.6823 22.0986 73.9444 21.5701C75.034 19.3727 77.8474 18.8782 79.5534 20.5841C80.6144 21.6451 80.6114 21.6189 80.566 29.5558C80.5267 36.4063 80.5204 36.5461 80.2234 37.0954C79.8327 37.8182 79.123 38.4936 78.4666 38.7674C77.8319 39.0321 76.3466 39.0423 75.7578 38.7859V38.7859ZM90.4411 38.7071C87.3308 37.8917 84.6229 35.4345 83.4795 32.3898C82.8624 30.7467 82.8136 29.9097 82.8606 21.774C82.904 14.2699 82.9095 14.1393 83.2067 13.5885C84.6887 10.842 88.7451 11.1897 89.6249 14.1386C89.7734 14.6362 89.8308 15.5401 89.8308 17.3789V19.9292L93.154 19.9798C96.2267 20.0266 96.5193 20.053 97.0368 20.3297C99.4688 21.6301 99.4799 24.8563 97.0567 26.1511C96.5134 26.4414 96.2681 26.4637 93.1425 26.5073L89.8079 26.5538L89.8543 28.1866C89.9085 30.0921 90.1256 30.6632 91.071 31.388C91.899 32.0227 92.4202 32.1264 94.798 32.1288C96.7059 32.1306 96.9612 32.1609 97.6043 32.4603C100.292 33.7117 100.289 37.5009 97.5996 38.7226C96.7683 39.1002 91.9003 39.0897 90.4411 38.7071H90.4411ZM108.255 38.7139C104.731 37.7501 101.838 34.7901 100.926 31.2149C100.702 30.336 100.677 29.4489 100.676 22.2637C100.729 14.8056 100.359 15.0972 101.057 13.5623C101.862 12.037 103.521 11.365 105.279 11.8529C106.011 12.0563 107.244 13.289 107.448 14.0216C107.532 14.3266 107.6 15.7583 107.6 17.2615L107.601 19.955H110.45C113.714 19.955 114.58 20.0759 115.367 20.6409C117.069 21.8641 117.108 24.605 115.44 25.8134C114.608 26.4162 113.821 26.5314 110.532 26.5314H107.601V27.7987C107.601 29.4678 107.793 30.1696 108.453 30.9201C109.354 31.9433 109.688 32.0408 112.58 32.1248C115.097 32.1978 115.113 32.2004 115.798 32.623C116.582 33.1069 117.307 34.1766 117.448 35.0567C117.651 36.3304 116.984 37.7648 115.833 38.527L115.248 38.9145L112.229 38.9448C109.652 38.9707 109.07 38.9369 108.255 38.7139L108.255 38.7139ZM125.721 38.7771C123.675 38.2248 122.168 37.317 120.693 35.7486C118.9 33.8436 118.092 31.7439 118.097 29.0059C118.101 27.3333 118.387 26.0258 119.053 24.6424C119.757 23.1812 120.529 22.2283 121.666 21.4169C124.977 19.0545 130.861 18.9069 134.568 21.0933C135.895 21.8759 137.274 23.357 137.947 24.7205C139.306 27.4776 139.169 29.9748 137.614 30.7866C137.076 31.0675 136.825 31.0804 131.143 31.1182L125.231 31.1575V31.5246C125.231 32.0969 126.142 32.8725 127.145 33.1539C127.829 33.3457 128.654 33.3877 131.747 33.3883C133.84 33.3883 135.74 33.4516 136.022 33.5297C138.43 34.1988 138.913 37.3889 136.794 38.6309C136.107 39.095 135.693 38.9783 131.305 38.9753C127.668 38.9684 126.242 38.9178 125.721 38.7771V38.7771ZM131.872 26.3564C131.609 25.4736 130.854 24.951 129.473 24.6957C128.004 24.4241 125.95 25.0318 125.553 25.8551C125.379 26.2177 125.212 26.6304 125.212 26.6304C125.212 26.6304 126.435 26.6713 128.603 26.6713H131.966L131.872 26.3564ZM142.431 38.7151C141.71 38.3233 140.942 37.4133 140.759 36.7341C140.652 36.3369 140.618 34.7835 140.653 31.9338C140.705 27.7831 140.711 27.7037 141.088 26.5713C142.082 23.5886 144.738 21.1147 147.829 20.2947C148.964 19.9932 154.208 19.8488 155.352 20.0875C156.941 20.4188 157.973 21.6446 157.973 23.1997C157.973 24.526 157.37 25.5523 156.241 26.1489C155.71 26.4298 155.404 26.4597 152.376 26.5276C149.236 26.598 149.064 26.6161 148.56 26.9294C147.895 27.343 147.41 27.9807 147.213 28.7001C147.121 29.0378 147.06 30.7063 147.06 32.9053C147.059 36.5499 147.059 36.551 146.695 37.2808C146.45 37.7736 146.12 38.157 145.681 38.4612C145.109 38.8568 144.902 38.9163 143.981 38.9493C143.156 38.9787 142.824 38.9286 142.431 38.7151ZM75.586 17.4937C73.3648 16.3869 72.961 13.4634 74.8057 11.8438C75.5243 11.2128 76.1025 11 77.0979 11C78.4898 11 79.571 11.6503 80.1962 12.8635C81.691 15.7645 78.5156 18.9536 75.586 17.4937Z" fill="#33CCFF"/>
</g>
<defs>
<filter id="filter0_d_78_931" x="0" y="0" width="183" height="58" filterUnits="userSpaceOnUse" color-interpolation-filters="sRGB">
<feFlood flood-opacity="0" result="BackgroundImageFix"/>
<feColorMatrix in="SourceAlpha" type="matrix" values="0 0 0 0 0 0 0 0 0 0 0 0 0 0 0 0 0 0 127 0" result="hardAlpha"/>
<feOffset dx="4" dy="4"/>
<feGaussianBlur stdDeviation="2"/>
<feComposite in2="hardAlpha" operator="out"/>
<feColorMatrix type="matrix" values="0 0 0 0 0 0 0 0 0 0 0 0 0 0 0 0 0 0 0.25 0"/>
<feBlend mode="normal" in2="BackgroundImageFix" result="effect1_dropShadow_78_931"/>
<feBlend mode="normal" in="SourceGraphic" in2="effect1_dropShadow_78_931" result="shape"/>
</filter>
<clipPath id="clip0_78_931">
<rect width="139.973" height="28" fill="white" transform="translate(18 11)"/>
</clipPath>
</defs>
</svg>
