<svg width="183" height="58" viewBox="0 0 183 58" fill="none" xmlns="http://www.w3.org/2000/svg">
<g filter="url(#filter0_d_78_960)">
<rect width="175" height="50" rx="15" fill="white"/>
<rect x="1" y="1" width="173" height="48" rx="14" stroke="black" stroke-opacity="0.5" stroke-width="2"/>
</g>
<g clip-path="url(#clip0_78_960)">
<path d="M20.7762 39.4737H14.9613V24.9777H11V20.2581H14.9611V16.8998C14.9611 12.9201 16.7131 10.066 22.5123 10.066C23.7389 10.066 25.6645 10.3132 25.6645 10.3132V14.6956H23.642C21.5812 14.6956 20.7765 15.3225 20.7765 17.0555V20.2581H25.5873L25.159 24.9777H20.7764L20.7762 39.4737ZM34.1188 19.8809C34.0341 19.8809 33.9469 19.884 33.8606 19.8862C28.4687 19.8862 26.0017 23.9421 26.0017 29.6995C26.0017 36.9522 29.2017 39.855 33.9028 39.855C36.5924 39.855 38.3596 38.7229 39.4336 36.6103V39.4757H44.9645V20.2601H39.4336V23.2152C38.5566 21.314 36.7401 19.9035 34.1188 19.8809ZM35.5252 24.4215C37.7898 24.4215 39.1491 26.0012 39.1491 28.688L39.1543 31.4323C39.1543 33.2433 38.0316 35.362 35.5252 35.362C31.6718 35.362 31.7747 31.2012 31.7747 29.8154C31.7747 25.1538 33.8278 24.4215 35.5252 24.4215ZM47.1982 29.8689C47.1982 27.5339 47.0864 19.8934 57.0407 19.8934C61.0366 19.8934 62.7051 21.164 62.7051 21.164L61.364 25.3234C61.364 25.3234 59.6977 24.4058 57.5264 24.4058C54.7454 24.4058 52.9708 26.018 52.9708 28.8546L52.9739 30.8885C52.9739 33.6141 54.6861 35.4336 57.5321 35.4336C59.5102 35.4336 61.3333 34.5073 61.3333 34.5073L62.671 38.5799C62.671 38.5799 61.1454 39.8584 57.0687 39.8584C47.5906 39.8584 47.1983 33.0035 47.1983 29.8689H47.1982ZM95.1346 19.8862C100.527 19.8862 103.033 23.9421 103.033 29.6995C103.033 36.9522 99.8324 39.855 95.1313 39.855C92.4417 39.855 90.4534 38.7231 89.3793 36.6103V39.4757L83.9181 39.4735V10.6502L89.7165 10.1445V22.9549C90.5534 20.7137 93.3037 19.8862 95.1347 19.8862H95.1346ZM93.509 24.4215C91.2443 24.4215 89.7165 26.0012 89.7165 28.688L89.7111 31.4323C89.7077 33.2433 90.7691 35.362 93.509 35.362C97.3624 35.362 97.2594 31.2012 97.2594 29.8154C97.2594 25.1538 95.2065 24.4215 93.509 24.4215ZM72.7659 19.9021C66.6502 19.9021 63.4215 23.2365 63.4215 29.1621V30.263C63.4215 37.9539 67.9556 39.934 73.3611 39.934C78.6153 39.934 80.9935 38.4644 80.9935 38.4644L79.9085 34.5509C79.9085 34.5509 77.111 35.7411 74.0563 35.7411C70.8897 35.7411 69.5278 34.934 69.1787 31.8908H81.4571V28.7512C81.4571 22.3234 77.8335 19.9019 72.7657 19.9019L72.7659 19.9021ZM72.9133 23.8209C75.0303 23.8209 76.402 25.1191 76.3267 28.1297H69.1894C69.3131 24.961 70.7924 23.8211 72.9133 23.8211V23.8209ZM114.594 19.8757C108.314 19.8757 105.008 23.4149 105.008 29.7573C105.008 38.4595 110.707 39.8603 114.605 39.8603C120.311 39.8603 124.107 36.7882 124.107 29.8363C124.107 22.6007 119.839 19.8757 114.594 19.8757ZM114.515 24.4373C117.277 24.4373 118.371 26.5041 118.371 28.8567V30.8794C118.371 33.7294 116.84 35.3779 114.505 35.3779C112.321 35.3779 110.786 33.8359 110.786 30.8794V28.8567C110.786 25.7036 112.613 24.4373 114.515 24.4373ZM135.659 19.8757C129.379 19.8757 126.072 23.4149 126.072 29.7573C126.072 38.4595 131.772 39.8603 135.669 39.8603C141.375 39.8603 145.172 36.7882 145.172 29.8363C145.172 22.6007 140.903 19.8757 135.659 19.8757ZM135.58 24.4373C138.342 24.4373 139.436 26.5041 139.436 28.8567V30.8794C139.436 33.7294 137.904 35.3779 135.569 35.3779C133.386 35.3779 131.851 33.8359 131.851 30.8794V28.8567C131.851 25.7036 133.677 24.4373 135.58 24.4373ZM147.363 39.4737V10.6502L153.178 10.1445V29.4638L158.948 20.2581H165.089L159.071 29.7925L165.321 39.4737H159.162L153.178 30.0734V39.4737H147.363Z" fill="#1877F2"/>
</g>
<defs>
<filter id="filter0_d_78_960" x="0" y="0" width="183" height="58" filterUnits="userSpaceOnUse" color-interpolation-filters="sRGB">
<feFlood flood-opacity="0" result="BackgroundImageFix"/>
<feColorMatrix in="SourceAlpha" type="matrix" values="0 0 0 0 0 0 0 0 0 0 0 0 0 0 0 0 0 0 127 0" result="hardAlpha"/>
<feOffset dx="4" dy="4"/>
<feGaussianBlur stdDeviation="2"/>
<feComposite in2="hardAlpha" operator="out"/>
<feColorMatrix type="matrix" values="0 0 0 0 0 0 0 0 0 0 0 0 0 0 0 0 0 0 0.25 0"/>
<feBlend mode="normal" in2="BackgroundImageFix" result="effect1_dropShadow_78_960"/>
<feBlend mode="normal" in="SourceGraphic" in2="effect1_dropShadow_78_960" result="shape"/>
</filter>
<clipPath id="clip0_78_960">
<rect width="154.321" height="30" fill="white" transform="translate(11 10)"/>
</clipPath>
</defs>
</svg>
