<svg width="193" height="58" viewBox="0 0 193 58" fill="none" xmlns="http://www.w3.org/2000/svg">
<g filter="url(#filter0_d_78_930)">
<rect width="185" height="50" rx="15" fill="white"/>
<rect x="1" y="1" width="183" height="48" rx="14" stroke="black" stroke-opacity="0.5" stroke-width="2"/>
</g>
<path d="M77.9609 34H69.875V19.7227H77.9609V21.6953H72.2188V25.5723H77.5996V27.5352H72.2188V32.0176H77.9609V34ZM94.9609 34H92.0801L85.0879 22.6035H85C85.026 22.9876 85.0488 23.3945 85.0684 23.8242C85.0944 24.2539 85.1139 24.6966 85.127 25.1523C85.1465 25.6081 85.1628 26.0703 85.1758 26.5391V34H83.0469V19.7227H85.9082L92.8906 31.041H92.959C92.946 30.709 92.9297 30.3281 92.9102 29.8984C92.8906 29.4688 92.8711 29.026 92.8516 28.5703C92.8385 28.1081 92.8288 27.6621 92.8223 27.2324V19.7227H94.9609V34ZM105.662 34H103.309V21.7148H99.1289V19.7227H109.832V21.7148H105.662V34ZM118.033 19.7227C119.264 19.7227 120.279 19.8724 121.08 20.1719C121.887 20.4714 122.486 20.9271 122.877 21.5391C123.274 22.151 123.473 22.929 123.473 23.873C123.473 24.5762 123.342 25.1751 123.082 25.6699C122.822 26.1647 122.48 26.5749 122.057 26.9004C121.633 27.2259 121.181 27.4863 120.699 27.6816L124.752 34H122.105L118.658 28.2773H116.363V34H114.02V19.7227H118.033ZM117.877 21.6758H116.363V26.3438H117.984C119.072 26.3438 119.859 26.1419 120.348 25.7383C120.842 25.3346 121.09 24.7389 121.09 23.9512C121.09 23.1243 120.826 22.5384 120.299 22.1934C119.778 21.8483 118.971 21.6758 117.877 21.6758ZM137.641 34L136.244 30.0352H130.785L129.389 34H126.918L132.23 19.6641H134.828L140.131 34H137.641ZM135.639 28.0234L134.281 24.1172C134.229 23.9479 134.154 23.7103 134.057 23.4043C133.959 23.0918 133.861 22.776 133.764 22.457C133.666 22.1315 133.585 21.8581 133.52 21.6367C133.454 21.9036 133.373 22.2031 133.275 22.5352C133.184 22.8607 133.093 23.1667 133.002 23.4531C132.917 23.7396 132.852 23.9609 132.807 24.1172L131.439 28.0234H135.639ZM148.029 19.7227C149.26 19.7227 150.275 19.8724 151.076 20.1719C151.883 20.4714 152.482 20.9271 152.873 21.5391C153.27 22.151 153.469 22.929 153.469 23.873C153.469 24.5762 153.339 25.1751 153.078 25.6699C152.818 26.1647 152.476 26.5749 152.053 26.9004C151.63 27.2259 151.177 27.4863 150.695 27.6816L154.748 34H152.102L148.654 28.2773H146.359V34H144.016V19.7227H148.029ZM147.873 21.6758H146.359V26.3438H147.98C149.068 26.3438 149.855 26.1419 150.344 25.7383C150.839 25.3346 151.086 24.7389 151.086 23.9512C151.086 23.1243 150.822 22.5384 150.295 22.1934C149.774 21.8483 148.967 21.6758 147.873 21.6758Z" fill="black"/>
<path d="M49.1914 10.8281H36.1211C34.4805 10.8281 33.1475 12.1611 33.1475 13.8018V19.749C33.1475 20.0771 33.4141 20.3438 33.7422 20.3438C34.0703 20.3438 34.3369 20.0771 34.3369 19.749V13.8018C34.3369 12.8174 35.1367 12.0176 36.1143 12.0176H49.1914C50.1758 12.0176 50.9688 12.8174 50.9688 13.8018V35.1982C50.9688 36.1826 50.1689 36.9756 49.1914 36.9756H36.1211C35.1367 36.9756 34.3438 36.1758 34.3438 35.1982V29.251C34.3438 28.9229 34.0771 28.6562 33.749 28.6562C33.4209 28.6562 33.1543 28.9229 33.1543 29.251V35.1982C33.1543 36.8389 34.4873 38.1719 36.1279 38.1719H49.2051C50.8457 38.1719 52.1787 36.8389 52.1787 35.1982V13.8018C52.165 12.168 50.832 10.8281 49.1914 10.8281Z" fill="#010101"/>
<path d="M35.7041 28.834C35.4717 29.0664 35.4717 29.4424 35.7041 29.6748C35.8203 29.791 35.9707 29.8525 36.1279 29.8525C36.2852 29.8525 36.4287 29.7979 36.5518 29.6748L41.3027 24.9238C41.3301 24.8965 41.3574 24.8623 41.3848 24.8281C41.3848 24.8213 41.3916 24.8213 41.3916 24.8145C41.3984 24.8008 41.4121 24.7871 41.4121 24.7734C41.4121 24.7666 41.4189 24.7598 41.4189 24.7529C41.4258 24.7393 41.4326 24.7324 41.4395 24.7119C41.4395 24.7051 41.4463 24.6982 41.4463 24.6914C41.4531 24.6777 41.46 24.6709 41.46 24.6504C41.46 24.6436 41.4668 24.6367 41.4668 24.6299C41.4736 24.6162 41.4736 24.6094 41.4805 24.5957C41.4805 24.5889 41.4805 24.5752 41.4873 24.5752C41.4873 24.5615 41.4941 24.5547 41.4941 24.541C41.4941 24.5205 41.4941 24.5068 41.4941 24.4932C41.4941 24.4863 41.4941 24.4863 41.4941 24.4795C41.4941 24.4727 41.4941 24.4727 41.4941 24.4658C41.4941 24.4453 41.4941 24.4316 41.4941 24.418C41.4941 24.4043 41.4873 24.3975 41.4873 24.3838C41.4873 24.377 41.4873 24.3633 41.4805 24.3633C41.4805 24.3496 41.4736 24.3428 41.4668 24.3291C41.4668 24.3223 41.46 24.3154 41.46 24.3086C41.4531 24.2949 41.4531 24.2881 41.4463 24.2676C41.4463 24.2607 41.4395 24.2539 41.4395 24.2471C41.4326 24.2334 41.4258 24.2266 41.4189 24.2061C41.4189 24.1992 41.4121 24.1924 41.4121 24.1855C41.4053 24.1719 41.3916 24.1582 41.3916 24.1445C41.3916 24.1377 41.3848 24.1377 41.3848 24.1309C41.3643 24.0967 41.3301 24.0625 41.3027 24.0352L36.5518 19.2842C36.3193 19.0518 35.9434 19.0518 35.7109 19.2842C35.4785 19.5166 35.4785 19.8926 35.7109 20.125L39.4502 23.8643H25.4229C25.0947 23.8643 24.8281 24.1309 24.8281 24.459C24.8281 24.7871 25.0947 25.0537 25.4229 25.0537H39.4365L35.7041 28.834Z" fill="#010101"/>
<defs>
<filter id="filter0_d_78_930" x="0" y="0" width="193" height="58" filterUnits="userSpaceOnUse" color-interpolation-filters="sRGB">
<feFlood flood-opacity="0" result="BackgroundImageFix"/>
<feColorMatrix in="SourceAlpha" type="matrix" values="0 0 0 0 0 0 0 0 0 0 0 0 0 0 0 0 0 0 127 0" result="hardAlpha"/>
<feOffset dx="4" dy="4"/>
<feGaussianBlur stdDeviation="2"/>
<feComposite in2="hardAlpha" operator="out"/>
<feColorMatrix type="matrix" values="0 0 0 0 0 0 0 0 0 0 0 0 0 0 0 0 0 0 0.25 0"/>
<feBlend mode="normal" in2="BackgroundImageFix" result="effect1_dropShadow_78_930"/>
<feBlend mode="normal" in="SourceGraphic" in2="effect1_dropShadow_78_930" result="shape"/>
</filter>
</defs>
</svg>
