<svg width="23" height="23" viewBox="0 0 23 23" fill="none" xmlns="http://www.w3.org/2000/svg">
<path d="M22.2363 20.877L15.9785 14.5605C17.2031 13.0254 17.9414 11.0801 17.9414 8.96484C17.9414 4.01367 13.9277 0 8.9707 0C4.01367 0 0 4.01953 0 8.9707C0 13.9219 4.01367 17.9355 8.9707 17.9355C11.1152 17.9355 13.0781 17.1855 14.625 15.9316L20.8418 22.207C21.0293 22.4062 21.2871 22.5059 21.5391 22.5059C21.7793 22.5059 22.0195 22.418 22.2012 22.2422C22.5879 21.873 22.5996 21.2637 22.2363 20.877ZM8.9707 16.0078C7.08984 16.0078 5.32031 15.2754 3.99023 13.9453C2.66016 12.6152 1.92773 10.8457 1.92773 8.9707C1.92773 7.08984 2.66016 5.32031 3.99023 3.99609C5.32031 2.66602 7.08984 1.93359 8.9707 1.93359C10.8516 1.93359 12.6211 2.66602 13.9512 3.99609C15.2812 5.32617 16.0137 7.0957 16.0137 8.9707C16.0137 10.8516 15.2812 12.6211 13.9512 13.9453C12.6211 15.2754 10.8516 16.0078 8.9707 16.0078Z" fill="white" fill-opacity="0.9"/>
</svg>
