<svg width="68" height="40" viewBox="0 0 68 40" fill="none" xmlns="http://www.w3.org/2000/svg">
<g clip-path="url(#clip0_137_861)">
<path d="M52.9258 0.0270996C53.6318 0.0270996 54.2836 0.0270996 54.9896 0.0270996C54.9896 10.2376 54.9896 20.4209 54.9896 30.6585C54.3107 30.6585 53.6318 30.6585 52.9258 30.6585C52.9258 20.448 52.9258 10.2647 52.9258 0.0270996Z" fill="black"/>
<path d="M35.7911 0.0543213C36.4971 0.0543213 37.1488 0.0543213 37.8277 0.0543213C37.8277 10.2648 37.8277 20.4481 37.8277 30.6585C37.1488 30.6585 36.4971 30.6585 35.8454 30.6585C35.7096 30.2512 35.6553 1.05907 35.7911 0.0543213Z" fill="black"/>
<path d="M4.29053 0.0270996C4.75217 0.0270996 5.1595 0.0270996 5.62115 0.0270996C5.62115 11.894 5.62115 23.761 5.62115 35.6551C5.37675 35.6551 5.1595 35.6822 4.94226 35.6822C4.75217 35.6822 4.53493 35.6822 4.29053 35.6822C4.29053 23.7881 4.29053 11.9483 4.29053 0.0270996Z" fill="black"/>
<path d="M30.6856 30.6585C30.224 30.6585 29.8166 30.6585 29.355 30.6585C29.355 20.4752 29.355 10.2919 29.355 0.0543213C29.7895 0.0543213 30.224 0.0543213 30.6856 0.0543213C30.6856 10.2376 30.6856 20.4209 30.6856 30.6585Z" fill="black"/>
<path d="M24.3311 0.0543213C24.7927 0.0543213 25.2272 0.0543213 25.6888 0.0543213C25.6888 10.2648 25.6888 20.4481 25.6888 30.6585C25.2272 30.6585 24.7927 30.6585 24.3311 30.6585C24.3311 20.4481 24.3311 10.2648 24.3311 0.0543213Z" fill="black"/>
<path d="M40.7876 0.0270996C41.2764 0.0270996 41.6837 0.0270996 42.1454 0.0270996C42.1454 10.2376 42.1454 20.3937 42.1454 30.6313C41.6837 30.6313 41.2492 30.6313 40.7876 30.6313C40.7876 20.448 40.7876 10.2647 40.7876 0.0270996Z" fill="black"/>
<path d="M9.20592 30.6585C8.74428 30.6585 8.33694 30.6585 7.84814 30.6585C7.84814 20.4481 7.84814 10.2648 7.84814 0.0543213C8.30979 0.0543213 8.74428 0.0543213 9.20592 0.0543213C9.20592 10.2648 9.20592 20.4481 9.20592 30.6585Z" fill="black"/>
<path d="M47.142 30.6585C46.6803 30.6585 46.273 30.6585 45.7842 30.6585C45.7842 20.4481 45.7842 10.2648 45.7842 0.0543213C46.2458 0.0543213 46.6803 0.0543213 47.142 0.0543213C47.142 10.2648 47.142 20.4481 47.142 30.6585Z" fill="black"/>
<path d="M14.9356 30.6585C14.474 30.6585 14.0666 30.6585 13.605 30.6585C13.605 20.448 13.605 10.2647 13.605 0.0270996C14.0395 0.0270996 14.474 0.0270996 14.9356 0.0270996C14.9356 10.2376 14.9356 20.4209 14.9356 30.6585Z" fill="black"/>
<path d="M58.6831 0.0543213C59.1176 0.0543213 59.5521 0.0543213 60.0137 0.0543213C60.0137 10.2648 60.0137 20.4481 60.0137 30.6585C59.5521 30.6585 59.1447 30.6585 58.6831 30.6585C58.6831 20.4481 58.6831 10.2648 58.6831 0.0543213Z" fill="black"/>
<path d="M19.3349 0.0270996C19.7965 0.0270996 20.2039 0.0270996 20.6655 0.0270996C20.6655 10.2376 20.6655 20.3937 20.6655 30.6313C20.4483 30.6585 20.231 30.6585 20.0138 30.6585C19.8237 30.6585 19.6065 30.6585 19.4164 30.6585C19.2534 30.224 19.172 1.57496 19.3349 0.0270996Z" fill="black"/>
<path d="M55.8047 0.0543213C56.2392 0.0543213 56.6465 0.0543213 57.1353 0.0543213C57.1353 10.2648 57.1353 20.4481 57.1353 30.6585C56.7008 30.6585 56.2663 30.6585 55.8047 30.6585C55.8047 20.4481 55.8047 10.2648 55.8047 0.0543213Z" fill="black"/>
<path d="M47.9565 0.0543213C48.4182 0.0543213 48.8527 0.0543213 49.3143 0.0543213C49.3143 10.2648 49.3143 20.4209 49.3143 30.6314C48.8527 30.6314 48.4453 30.6314 47.9565 30.6314C47.9565 20.4481 47.9565 10.2648 47.9565 0.0543213Z" fill="black"/>
<path d="M43.6387 0.0270996C44.1003 0.0270996 44.5076 0.0270996 44.9693 0.0270996C44.9693 10.2376 44.9693 20.4209 44.9693 30.6585C44.5076 30.6585 44.1003 30.6585 43.6387 30.6585C43.6387 20.448 43.6387 10.2647 43.6387 0.0270996Z" fill="black"/>
<path d="M65.8247 0.0543213C66.0148 0.0543213 66.2049 0.0543213 66.4493 0.0543213C66.4493 11.9213 66.4493 23.761 66.4493 35.6551C66.2592 35.6823 66.0691 35.6823 65.8247 35.7095C65.8247 23.7882 65.8247 11.9484 65.8247 0.0543213Z" fill="black"/>
<path d="M67.2642 0.0543213C67.4542 0.0543213 67.6715 0.0543213 67.8887 0.0543213C67.8887 11.9213 67.8887 23.7882 67.8887 35.6551C67.6715 35.6551 67.4814 35.6551 67.2642 35.6551C67.2642 23.7882 67.2642 11.9484 67.2642 0.0543213Z" fill="black"/>
<path d="M0.624576 35.6551C0.380176 35.6551 0.217244 35.6551 0 35.6551C0 23.7882 0 11.9484 0 0.0543213C0.190088 0.0543213 0.407332 0.0543213 0.624576 0.0543213C0.624576 11.9213 0.624576 23.761 0.624576 35.6551Z" fill="black"/>
<path d="M34.3516 0.0271555C34.5417 0.0271555 34.7317 0 34.9761 0C34.9761 10.2376 34.9761 20.4209 34.9761 30.6314C34.8675 30.6585 34.786 30.6857 34.6774 30.6857C34.5688 30.6857 34.4873 30.6585 34.3516 30.6585C34.3516 20.4481 34.3516 10.2648 34.3516 0.0271555Z" fill="black"/>
<path d="M33.5643 30.6585C33.4286 30.6856 33.3471 30.7128 33.2656 30.7128C33.157 30.7128 33.0755 30.6856 32.9126 30.6856C32.9126 20.4752 32.9126 10.2919 32.9126 0.0814209C33.1298 0.0814209 33.3199 0.0814209 33.5643 0.0814209C33.5643 10.2647 33.5643 20.4209 33.5643 30.6585Z" fill="black"/>
<path d="M2.06403 35.6551C1.81963 35.6551 1.6567 35.6551 1.43945 35.6551C1.43945 23.7882 1.43945 11.9484 1.43945 0.0543109C1.62954 0.0271555 1.81963 0.0271555 2.06403 0C2.06403 11.8941 2.06403 23.761 2.06403 35.6551Z" fill="black"/>
<path d="M64.304 0.0543213C64.304 11.9484 64.304 23.7882 64.304 35.6551C64.0868 35.6551 63.9238 35.6823 63.7609 35.6823C63.6251 35.2207 63.5437 1.03192 63.7066 0.0543213C63.8695 0.0543213 64.0596 0.0543213 64.304 0.0543213Z" fill="black"/>
<path d="M60.8281 0.0270996C61.0453 0.0270996 61.2083 0.0270996 61.4255 0.0270996C61.4255 11.9212 61.4255 23.761 61.4255 35.6279C61.3169 35.6551 61.2354 35.6822 61.154 35.6822C61.0453 35.6822 60.9639 35.6551 60.8553 35.6551C60.7466 35.2206 60.6923 0.977541 60.8281 0.0270996Z" fill="black"/>
<path d="M51.4325 30.6585C51.2152 30.6585 51.0252 30.6585 50.7808 30.6585C50.7808 20.4752 50.7808 10.2919 50.7808 0.0543213C50.998 0.0543213 51.1881 0.0543213 51.4325 0.0543213C51.4325 10.2648 51.4325 20.4481 51.4325 30.6585Z" fill="black"/>
<path d="M22.1044 30.6314C21.9686 30.6585 21.8871 30.6857 21.7785 30.6857C21.6699 30.6857 21.5884 30.6585 21.4526 30.6585C21.4526 20.4481 21.4526 10.2919 21.4526 0.0543213C21.6699 0.0543213 21.86 0.0543213 22.1044 0.0543213C22.1044 10.2648 22.1044 20.4481 22.1044 30.6314Z" fill="black"/>
<path d="M12.0843 30.6314C11.9485 30.6585 11.8671 30.6857 11.8127 30.6857C11.7041 30.6857 11.6227 30.6857 11.514 30.6585C11.3783 30.1969 11.2968 1.54787 11.4326 0.0543213C11.6227 0.0543213 11.8399 0.0543213 12.0843 0.0543213C12.0843 10.2376 12.0843 20.4209 12.0843 30.6314Z" fill="black"/>
<path d="M39.9999 30.6585C39.7826 30.6585 39.5925 30.6585 39.3481 30.6585C39.3481 20.4481 39.3481 10.2648 39.3481 0.0814664C39.4296 0.0543109 39.5111 0.0271555 39.5925 0C39.7012 0 39.8369 0.0271555 39.9999 0.0271555C39.9999 10.2376 39.9999 20.4209 39.9999 30.6585Z" fill="black"/>
<path d="M16.4561 0.0543109C16.5647 0.0543109 16.6733 0 16.7548 0C16.8634 0 16.9449 0.0271555 17.0806 0.0543109C17.0806 10.2376 17.0806 20.4209 17.0806 30.6585C16.8634 30.6585 16.6733 30.6585 16.4561 30.6585C16.4561 20.4481 16.4561 10.2648 16.4561 0.0543109Z" fill="black"/>
<path d="M26.4766 0.0543213C26.6938 0.0543213 26.8839 0.0543213 27.1283 0.0543213C27.1283 10.2648 27.1283 20.4209 27.1283 30.6585C26.9111 30.6585 26.721 30.6585 26.4766 30.6585C26.4766 20.4481 26.4766 10.2648 26.4766 0.0543213Z" fill="black"/>
<path d="M7.08745 35.6551C6.87021 35.6551 6.70727 35.6823 6.5715 35.6823C6.38141 35.4922 6.3271 0.896141 6.49003 0.0543213C6.68012 0.0543213 6.87021 0.0543213 7.08745 0.0543213C7.08745 11.9213 7.08745 23.761 7.08745 35.6551Z" fill="black"/>
<path d="M31.5005 0.0270996C31.7449 0.0270996 31.9078 0.0270996 32.1251 0.0270996C32.1251 10.2376 32.1251 20.3937 32.1251 30.6313C31.9078 30.6313 31.7449 30.6313 31.5005 30.6313C31.5005 20.448 31.5005 10.2647 31.5005 0.0270996Z" fill="black"/>
<path d="M23.8339 38.7483V32.9301H25.868C26.2733 32.9301 26.6076 33.0002 26.8709 33.1403C27.1341 33.2786 27.3302 33.4651 27.4589 33.7C27.5877 33.9329 27.6521 34.1915 27.6521 34.4756C27.6521 34.7256 27.6076 34.932 27.5186 35.0949C27.4315 35.2578 27.3159 35.3865 27.172 35.4812C27.03 35.5759 26.8756 35.646 26.7089 35.6915V35.7483C26.887 35.7597 27.0659 35.8222 27.2459 35.9358C27.4258 36.0494 27.5764 36.2123 27.6976 36.4244C27.8188 36.6365 27.8794 36.896 27.8794 37.2028C27.8794 37.4945 27.8131 37.7568 27.6805 37.9898C27.548 38.2227 27.3387 38.4074 27.0527 38.5437C26.7667 38.6801 26.3945 38.7483 25.9362 38.7483H23.8339ZM24.5385 38.1233H25.9362C26.3964 38.1233 26.7231 38.0343 26.9163 37.8562C27.1114 37.6763 27.2089 37.4585 27.2089 37.2028C27.2089 37.0059 27.1588 36.824 27.0584 36.6574C26.958 36.4888 26.815 36.3544 26.6294 36.254C26.4438 36.1517 26.2241 36.1006 25.9703 36.1006H24.5385V38.1233ZM24.5385 35.4869H25.8453C26.0574 35.4869 26.2487 35.4453 26.4192 35.3619C26.5915 35.2786 26.7279 35.1612 26.8283 35.0097C26.9305 34.8581 26.9817 34.6801 26.9817 34.4756C26.9817 34.2199 26.8927 34.003 26.7146 33.825C26.5366 33.6451 26.2544 33.5551 25.868 33.5551H24.5385V35.4869ZM30.7189 38.8392C30.3249 38.8392 29.9793 38.7455 29.682 38.558C29.3865 38.3705 29.1554 38.1081 28.9888 37.771C28.824 37.4339 28.7416 37.04 28.7416 36.5892C28.7416 36.1347 28.824 35.7379 28.9888 35.3989C29.1554 35.0598 29.3865 34.7966 29.682 34.6091C29.9793 34.4216 30.3249 34.3278 30.7189 34.3278C31.1128 34.3278 31.4575 34.4216 31.753 34.6091C32.0503 34.7966 32.2814 35.0598 32.4462 35.3989C32.6128 35.7379 32.6962 36.1347 32.6962 36.5892C32.6962 37.04 32.6128 37.4339 32.4462 37.771C32.2814 38.1081 32.0503 38.3705 31.753 38.558C31.4575 38.7455 31.1128 38.8392 30.7189 38.8392ZM30.7189 38.2369C31.0181 38.2369 31.2643 38.1602 31.4575 38.0068C31.6507 37.8534 31.7937 37.6517 31.8865 37.4017C31.9793 37.1517 32.0257 36.8809 32.0257 36.5892C32.0257 36.2975 31.9793 36.0258 31.8865 35.7739C31.7937 35.522 31.6507 35.3184 31.4575 35.1631C31.2643 35.0078 31.0181 34.9301 30.7189 34.9301C30.4196 34.9301 30.1734 35.0078 29.9802 35.1631C29.7871 35.3184 29.6441 35.522 29.5513 35.7739C29.4585 36.0258 29.4121 36.2975 29.4121 36.5892C29.4121 36.8809 29.4585 37.1517 29.5513 37.4017C29.6441 37.6517 29.7871 37.8534 29.9802 38.0068C30.1734 38.1602 30.4196 38.2369 30.7189 38.2369ZM34.39 32.9301V38.7483H33.7196V32.9301H34.39ZM37.4476 38.8392C37.0271 38.8392 36.6644 38.7464 36.3595 38.5608C36.0565 38.3733 35.8226 38.1119 35.6578 37.7767C35.4949 37.4396 35.4135 37.0475 35.4135 36.6006C35.4135 36.1536 35.4949 35.7597 35.6578 35.4187C35.8226 35.0759 36.0517 34.8089 36.3453 34.6176C36.6408 34.4244 36.9855 34.3278 37.3794 34.3278C37.6067 34.3278 37.8311 34.3657 38.0527 34.4415C38.2743 34.5172 38.476 34.6403 38.6578 34.8108C38.8396 34.9794 38.9845 35.2028 39.0925 35.4812C39.2004 35.7597 39.2544 36.1025 39.2544 36.5097V36.7937H35.8908V36.2142H38.5726C38.5726 35.968 38.5233 35.7483 38.4248 35.5551C38.3283 35.3619 38.19 35.2095 38.0101 35.0977C37.832 34.986 37.6218 34.9301 37.3794 34.9301C37.1123 34.9301 36.8813 34.9964 36.6862 35.129C36.493 35.2597 36.3444 35.4301 36.2402 35.6403C36.136 35.8506 36.0839 36.0759 36.0839 36.3165V36.7028C36.0839 37.0324 36.1408 37.3117 36.2544 37.5409C36.3699 37.7682 36.53 37.9415 36.7345 38.0608C36.9391 38.1782 37.1767 38.2369 37.4476 38.2369C37.6237 38.2369 37.7828 38.2123 37.9248 38.1631C38.0688 38.1119 38.1928 38.0362 38.297 37.9358C38.4012 37.8335 38.4817 37.7066 38.5385 37.5551L39.1862 37.7369C39.118 37.9566 39.0034 38.1498 38.8425 38.3165C38.6815 38.4812 38.4826 38.61 38.2459 38.7028C38.0091 38.7937 37.743 38.8392 37.4476 38.8392ZM42.172 34.3847V34.9528H39.9106V34.3847H42.172ZM40.5697 33.3392H41.2402V37.4983C41.2402 37.6877 41.2677 37.8297 41.3226 37.9244C41.3794 38.0172 41.4514 38.0797 41.5385 38.1119C41.6275 38.1422 41.7213 38.1574 41.8197 38.1574C41.8936 38.1574 41.9542 38.1536 42.0016 38.146C42.0489 38.1365 42.0868 38.129 42.1152 38.1233L42.2516 38.7256C42.2061 38.7426 42.1427 38.7597 42.0612 38.7767C41.9798 38.7956 41.8766 38.8051 41.7516 38.8051C41.5622 38.8051 41.3766 38.7644 41.1947 38.683C41.0148 38.6015 40.8652 38.4775 40.7459 38.3108C40.6284 38.1441 40.5697 37.9339 40.5697 37.6801V33.3392ZM44.9064 38.8392C44.5124 38.8392 44.1668 38.7455 43.8695 38.558C43.574 38.3705 43.3429 38.1081 43.1763 37.771C43.0115 37.4339 42.9291 37.04 42.9291 36.5892C42.9291 36.1347 43.0115 35.7379 43.1763 35.3989C43.3429 35.0598 43.574 34.7966 43.8695 34.6091C44.1668 34.4216 44.5124 34.3278 44.9064 34.3278C45.3003 34.3278 45.645 34.4216 45.9405 34.6091C46.2378 34.7966 46.4689 35.0598 46.6337 35.3989C46.8003 35.7379 46.8837 36.1347 46.8837 36.5892C46.8837 37.04 46.8003 37.4339 46.6337 37.771C46.4689 38.1081 46.2378 38.3705 45.9405 38.558C45.645 38.7455 45.3003 38.8392 44.9064 38.8392ZM44.9064 38.2369C45.2056 38.2369 45.4518 38.1602 45.645 38.0068C45.8382 37.8534 45.9812 37.6517 46.074 37.4017C46.1668 37.1517 46.2132 36.8809 46.2132 36.5892C46.2132 36.2975 46.1668 36.0258 46.074 35.7739C45.9812 35.522 45.8382 35.3184 45.645 35.1631C45.4518 35.0078 45.2056 34.9301 44.9064 34.9301C44.6071 34.9301 44.3609 35.0078 44.1677 35.1631C43.9746 35.3184 43.8316 35.522 43.7388 35.7739C43.646 36.0258 43.5996 36.2975 43.5996 36.5892C43.5996 36.8809 43.646 37.1517 43.7388 37.4017C43.8316 37.6517 43.9746 37.8534 44.1677 38.0068C44.3609 38.1602 44.6071 38.2369 44.9064 38.2369Z" fill="black"/>
</g>
<defs>
<clipPath id="clip0_137_861">
<rect width="67.8887" height="40" fill="white"/>
</clipPath>
</defs>
</svg>
