<svg width="34" height="35" viewBox="0 0 34 35" fill="none" xmlns="http://www.w3.org/2000/svg">
<path d="M24.1106 25.0908C22.6106 25.0908 21.3956 26.3463 21.3906 27.9015C21.3906 29.4515 22.6056 30.707 24.1106 30.707C25.6106 30.707 26.8256 29.4515 26.8256 27.9015C26.8256 26.3515 25.6106 25.0908 24.1106 25.0908ZM24.1106 29.5858C23.2106 29.5858 22.4806 28.8315 22.4806 27.9015C22.4806 26.9715 23.2106 26.2172 24.1106 26.2172C25.0106 26.2172 25.7406 26.9715 25.7406 27.9015C25.7406 28.8315 25.0106 29.5858 24.1106 29.5858Z" fill="#010101"/>
<path d="M13.2405 25.0908C11.7405 25.0908 10.5205 26.3463 10.5205 27.9015C10.5205 29.4567 11.7355 30.707 13.2405 30.707C14.7405 30.707 15.9555 29.4515 15.9555 27.9015C15.9555 26.3515 14.7405 25.0908 13.2405 25.0908ZM13.2405 29.5858C12.3405 29.5858 11.6105 28.8315 11.6105 27.9015C11.6105 26.9715 12.3405 26.2172 13.2405 26.2172C14.1405 26.2172 14.8705 26.9715 14.8705 27.9015C14.8705 28.8315 14.1405 29.5858 13.2405 29.5858Z" fill="#010101"/>
<path d="M28.455 9.36867H8.9L8.335 6.4495C8.285 6.186 8.06 6 7.805 6H4.545C4.245 6 4 6.25317 4 6.56317C4 6.87317 4.245 7.12633 4.545 7.12633H7.36L10.01 20.8128C10.37 22.647 11.93 23.9697 13.74 23.9748H26.285C26.585 23.9748 26.83 23.7217 26.83 23.4117C26.83 23.1017 26.585 22.8485 26.285 22.8485H13.74C12.445 22.8433 11.33 21.903 11.075 20.5907L10.86 19.4798H25.45C26.82 19.4747 27.975 18.4258 28.145 17.0205L28.995 10.0042C29 9.97833 29 9.95767 29 9.93183C29 9.61667 28.755 9.36867 28.455 9.36867ZM27.07 16.8758C26.965 17.718 26.275 18.3483 25.45 18.3535H10.64L9.12 10.4898H27.84L27.07 16.8758Z" fill="#010101"/>
</svg>
