<svg width="226" height="11" viewBox="0 0 226 11" fill="none" xmlns="http://www.w3.org/2000/svg">
<path d="M3.91406 1.49121C3.52018 1.49121 3.16536 1.55957 2.84961 1.69629C2.53711 1.82975 2.27018 2.02507 2.04883 2.28223C1.83073 2.53613 1.66309 2.84375 1.5459 3.20508C1.42871 3.56641 1.37012 3.97331 1.37012 4.42578C1.37012 5.02474 1.46289 5.54557 1.64844 5.98828C1.83724 6.42773 2.11719 6.7679 2.48828 7.00879C2.86263 7.24967 3.32975 7.37012 3.88965 7.37012C4.20866 7.37012 4.50814 7.34408 4.78809 7.29199C5.07129 7.23665 5.34635 7.16829 5.61328 7.08691V7.80957C5.35286 7.90723 5.07943 7.97884 4.79297 8.02441C4.50651 8.07324 4.16634 8.09766 3.77246 8.09766C3.04655 8.09766 2.43945 7.94792 1.95117 7.64844C1.46615 7.3457 1.10156 6.91927 0.857422 6.36914C0.616536 5.81901 0.496094 5.1696 0.496094 4.4209C0.496094 3.88053 0.570964 3.38737 0.720703 2.94141C0.873698 2.49219 1.09505 2.10482 1.38477 1.7793C1.67773 1.45378 2.03581 1.20312 2.45898 1.02734C2.88542 0.848307 3.3737 0.758789 3.92383 0.758789C4.28516 0.758789 4.63346 0.794596 4.96875 0.866211C5.30404 0.937826 5.60677 1.04036 5.87695 1.17383L5.54492 1.87695C5.31706 1.77279 5.06641 1.68327 4.79297 1.6084C4.52279 1.53027 4.22982 1.49121 3.91406 1.49121ZM12.1533 5.31445C12.1533 5.75391 12.0964 6.14616 11.9824 6.49121C11.8685 6.83626 11.7041 7.1276 11.4893 7.36523C11.2744 7.60286 11.014 7.78516 10.708 7.91211C10.4053 8.03581 10.0618 8.09766 9.67773 8.09766C9.31966 8.09766 8.99089 8.03581 8.69141 7.91211C8.39518 7.78516 8.13802 7.60286 7.91992 7.36523C7.70508 7.1276 7.53743 6.83626 7.41699 6.49121C7.2998 6.14616 7.24121 5.75391 7.24121 5.31445C7.24121 4.72852 7.34049 4.23047 7.53906 3.82031C7.73763 3.4069 8.02083 3.09277 8.38867 2.87793C8.75977 2.65983 9.20085 2.55078 9.71191 2.55078C10.2002 2.55078 10.6266 2.65983 10.9912 2.87793C11.359 3.09603 11.6439 3.41178 11.8457 3.8252C12.0508 4.23535 12.1533 4.73177 12.1533 5.31445ZM8.08105 5.31445C8.08105 5.74414 8.13802 6.11686 8.25195 6.43262C8.36589 6.74837 8.54167 6.99251 8.7793 7.16504C9.01693 7.33757 9.32292 7.42383 9.69727 7.42383C10.0684 7.42383 10.3727 7.33757 10.6104 7.16504C10.8512 6.99251 11.0286 6.74837 11.1426 6.43262C11.2565 6.11686 11.3135 5.74414 11.3135 5.31445C11.3135 4.88802 11.2565 4.52018 11.1426 4.21094C11.0286 3.89844 10.8529 3.65755 10.6152 3.48828C10.3776 3.31901 10.07 3.23438 9.69238 3.23438C9.13574 3.23438 8.72721 3.41829 8.4668 3.78613C8.20964 4.15397 8.08105 4.66341 8.08105 5.31445ZM16.5693 2.55078C17.2367 2.55078 17.7689 2.78027 18.166 3.23926C18.5632 3.69824 18.7617 4.38835 18.7617 5.30957C18.7617 5.91829 18.6706 6.42936 18.4883 6.84277C18.306 7.25618 18.0488 7.56868 17.7168 7.78027C17.388 7.99186 16.999 8.09766 16.5498 8.09766C16.2666 8.09766 16.0176 8.06022 15.8027 7.98535C15.5879 7.91048 15.404 7.80957 15.251 7.68262C15.098 7.55566 14.971 7.41732 14.8701 7.26758H14.8115C14.8213 7.39453 14.8327 7.54753 14.8457 7.72656C14.862 7.9056 14.8701 8.06185 14.8701 8.19531V10.3926H14.0547V2.64844H14.7236L14.8311 3.43945H14.8701C14.9743 3.27669 15.1012 3.12858 15.251 2.99512C15.4007 2.8584 15.583 2.75098 15.7979 2.67285C16.016 2.59147 16.2731 2.55078 16.5693 2.55078ZM16.4277 3.23438C16.0566 3.23438 15.7572 3.30599 15.5293 3.44922C15.3047 3.59245 15.1403 3.80729 15.0361 4.09375C14.932 4.37695 14.8766 4.7334 14.8701 5.16309V5.31934C14.8701 5.77181 14.9189 6.1543 15.0166 6.4668C15.1175 6.7793 15.2819 7.01693 15.5098 7.17969C15.7409 7.34245 16.0501 7.42383 16.4375 7.42383C16.7695 7.42383 17.0462 7.33431 17.2676 7.15527C17.4889 6.97624 17.6533 6.72721 17.7607 6.4082C17.8714 6.08594 17.9268 5.71647 17.9268 5.2998C17.9268 4.66829 17.8031 4.16699 17.5557 3.7959C17.3115 3.42155 16.9355 3.23438 16.4277 3.23438ZM19.833 2.64844H20.7021L21.8838 5.75391C21.9521 5.9362 22.0156 6.11198 22.0742 6.28125C22.1328 6.44727 22.1849 6.60677 22.2305 6.75977C22.276 6.91276 22.3118 7.06087 22.3379 7.2041H22.3721C22.4176 7.04134 22.4827 6.82812 22.5674 6.56445C22.652 6.29753 22.7432 6.02572 22.8408 5.74902L23.959 2.64844H24.833L22.5039 8.78613C22.3802 9.11491 22.2354 9.40137 22.0693 9.64551C21.9066 9.88965 21.708 10.0768 21.4736 10.207C21.2393 10.3405 20.9561 10.4072 20.624 10.4072C20.471 10.4072 20.3359 10.3975 20.2188 10.3779C20.1016 10.3617 20.0007 10.3421 19.916 10.3193V9.66992C19.9876 9.6862 20.0739 9.70085 20.1748 9.71387C20.279 9.72689 20.3864 9.7334 20.4971 9.7334C20.6989 9.7334 20.873 9.69434 21.0195 9.61621C21.1693 9.54134 21.2979 9.43066 21.4053 9.28418C21.5127 9.1377 21.6055 8.96354 21.6836 8.76172L21.9766 8.00977L19.833 2.64844ZM28.6191 2.55078C28.7266 2.55078 28.8389 2.55729 28.9561 2.57031C29.0732 2.58008 29.1774 2.59473 29.2686 2.61426L29.166 3.36621C29.0781 3.34342 28.9805 3.32552 28.873 3.3125C28.7656 3.29948 28.6647 3.29297 28.5703 3.29297C28.3555 3.29297 28.152 3.33691 27.96 3.4248C27.7712 3.50944 27.6051 3.63314 27.4619 3.7959C27.3187 3.9554 27.2064 4.14909 27.125 4.37695C27.0436 4.60156 27.0029 4.85221 27.0029 5.12891V8H26.1875V2.64844H26.8613L26.9492 3.63477H26.9834C27.0941 3.4362 27.2275 3.25553 27.3838 3.09277C27.54 2.92676 27.7207 2.79492 27.9258 2.69727C28.1341 2.59961 28.3652 2.55078 28.6191 2.55078ZM31.5898 2.64844V8H30.7793V2.64844H31.5898ZM31.1943 0.646484C31.3278 0.646484 31.4417 0.69043 31.5361 0.77832C31.6338 0.862956 31.6826 0.996419 31.6826 1.17871C31.6826 1.35775 31.6338 1.49121 31.5361 1.5791C31.4417 1.66699 31.3278 1.71094 31.1943 1.71094C31.0544 1.71094 30.9372 1.66699 30.8428 1.5791C30.7516 1.49121 30.7061 1.35775 30.7061 1.17871C30.7061 0.996419 30.7516 0.862956 30.8428 0.77832C30.9372 0.69043 31.0544 0.646484 31.1943 0.646484ZM35.3027 10.4023C34.5996 10.4023 34.0576 10.2705 33.6768 10.0068C33.2959 9.74642 33.1055 9.38021 33.1055 8.9082C33.1055 8.57292 33.2113 8.28646 33.4229 8.04883C33.6377 7.8112 33.9339 7.65332 34.3115 7.5752C34.1715 7.51009 34.0511 7.41243 33.9502 7.28223C33.8525 7.15202 33.8037 7.00228 33.8037 6.83301C33.8037 6.6377 33.8574 6.4668 33.9648 6.32031C34.0755 6.17057 34.2432 6.02734 34.4678 5.89062C34.1878 5.77669 33.96 5.58464 33.7842 5.31445C33.6117 5.04102 33.5254 4.72363 33.5254 4.3623C33.5254 3.97819 33.6051 3.65104 33.7646 3.38086C33.9242 3.10742 34.1553 2.89909 34.458 2.75586C34.7607 2.61263 35.127 2.54102 35.5566 2.54102C35.651 2.54102 35.7454 2.5459 35.8398 2.55566C35.9375 2.56217 36.0303 2.57357 36.1182 2.58984C36.2061 2.60286 36.2826 2.61914 36.3477 2.63867H38.1836V3.16113L37.1973 3.2832C37.2949 3.41016 37.3763 3.56315 37.4414 3.74219C37.5065 3.92122 37.5391 4.11979 37.5391 4.33789C37.5391 4.87174 37.3584 5.29655 36.9971 5.6123C36.6357 5.9248 36.1393 6.08105 35.5078 6.08105C35.3581 6.08105 35.2051 6.06803 35.0488 6.04199C34.8893 6.12988 34.7673 6.22754 34.6826 6.33496C34.6012 6.44238 34.5605 6.56608 34.5605 6.70605C34.5605 6.81022 34.5915 6.89323 34.6533 6.95508C34.7184 7.01693 34.8112 7.0625 34.9316 7.0918C35.0521 7.11784 35.1969 7.13086 35.3662 7.13086H36.3086C36.8913 7.13086 37.3372 7.25293 37.6465 7.49707C37.959 7.74121 38.1152 8.09766 38.1152 8.56641C38.1152 9.15885 37.8743 9.61296 37.3926 9.92871C36.9108 10.2445 36.2142 10.4023 35.3027 10.4023ZM35.3271 9.76758C35.7699 9.76758 36.1361 9.72201 36.4258 9.63086C36.7188 9.54297 36.9368 9.41439 37.0801 9.24512C37.2266 9.0791 37.2998 8.88053 37.2998 8.64941C37.2998 8.43457 37.251 8.27181 37.1533 8.16113C37.0557 8.05371 36.9124 7.9821 36.7236 7.94629C36.5348 7.90723 36.3037 7.8877 36.0303 7.8877H35.1025C34.8617 7.8877 34.6517 7.92513 34.4727 8C34.2936 8.07487 34.1553 8.18555 34.0576 8.33203C33.9632 8.47852 33.916 8.66081 33.916 8.87891C33.916 9.16862 34.0381 9.38835 34.2822 9.53809C34.5264 9.69108 34.8747 9.76758 35.3271 9.76758ZM35.5371 5.49023C35.9245 5.49023 36.2158 5.39258 36.4111 5.19727C36.6064 5.00195 36.7041 4.71712 36.7041 4.34277C36.7041 3.94238 36.6048 3.6429 36.4062 3.44434C36.2077 3.24251 35.9147 3.1416 35.5273 3.1416C35.1562 3.1416 34.8698 3.24577 34.668 3.4541C34.4694 3.65918 34.3701 3.96029 34.3701 4.35742C34.3701 4.72201 34.471 5.00195 34.6729 5.19727C34.8747 5.39258 35.1628 5.49023 35.5371 5.49023ZM40.5488 0.402344V2.67285C40.5488 2.80306 40.5456 2.9349 40.5391 3.06836C40.5326 3.19857 40.5212 3.31901 40.5049 3.42969H40.5586C40.6693 3.24089 40.8092 3.08301 40.9785 2.95605C41.151 2.82585 41.3464 2.72819 41.5645 2.66309C41.7826 2.59473 42.0137 2.56055 42.2578 2.56055C42.6875 2.56055 43.0456 2.62891 43.332 2.76562C43.6217 2.90234 43.8382 3.11393 43.9814 3.40039C44.1279 3.68685 44.2012 4.05794 44.2012 4.51367V8H43.4004V4.56738C43.4004 4.12142 43.2979 3.78776 43.0928 3.56641C42.891 3.34505 42.5801 3.23438 42.1602 3.23438C41.763 3.23438 41.4456 3.31087 41.208 3.46387C40.9736 3.61361 40.8044 3.83496 40.7002 4.12793C40.5993 4.4209 40.5488 4.77897 40.5488 5.20215V8H39.7383V0.402344H40.5488ZM48.0996 7.43359C48.2331 7.43359 48.3698 7.4222 48.5098 7.39941C48.6497 7.37663 48.7637 7.34896 48.8516 7.31641V7.94629C48.7572 7.98861 48.6253 8.02441 48.4561 8.05371C48.29 8.08301 48.1273 8.09766 47.9678 8.09766C47.6846 8.09766 47.4274 8.04883 47.1963 7.95117C46.9652 7.85026 46.7796 7.68099 46.6396 7.44336C46.5029 7.20573 46.4346 6.87695 46.4346 6.45703V3.2832H45.6729V2.8877L46.4395 2.57031L46.7617 1.4082H47.25V2.64844H48.8174V3.2832H47.25V6.43262C47.25 6.7679 47.3265 7.01855 47.4795 7.18457C47.6357 7.35059 47.8424 7.43359 48.0996 7.43359ZM56.8389 8.09766C56.3083 8.09766 55.8184 8.00651 55.3691 7.82422C54.9232 7.64193 54.5342 7.38639 54.2021 7.05762C53.8734 6.72884 53.6178 6.34147 53.4355 5.89551C53.2565 5.44629 53.167 4.95801 53.167 4.43066C53.167 3.90007 53.2581 3.41178 53.4404 2.96582C53.6227 2.5166 53.8783 2.1276 54.207 1.79883C54.5391 1.47005 54.9281 1.21452 55.374 1.03223C55.8232 0.849935 56.3115 0.758789 56.8389 0.758789C57.3499 0.758789 57.8268 0.851562 58.2695 1.03711C58.7155 1.2194 59.1061 1.47656 59.4414 1.80859C59.7767 2.13737 60.0387 2.52474 60.2275 2.9707C60.4163 3.41667 60.5107 3.90332 60.5107 4.43066C60.5107 4.95801 60.4196 5.44629 60.2373 5.89551C60.055 6.34147 59.7979 6.72884 59.4658 7.05762C59.137 7.38639 58.748 7.64193 58.2988 7.82422C57.8529 8.00651 57.3662 8.09766 56.8389 8.09766ZM56.9951 6.66211C56.3376 6.66211 55.8428 6.46029 55.5107 6.05664C55.1787 5.64974 55.0127 5.10775 55.0127 4.43066C55.0127 3.99772 55.0908 3.61523 55.2471 3.2832C55.4066 2.94792 55.6361 2.68587 55.9355 2.49707C56.2383 2.30501 56.6045 2.20898 57.0342 2.20898C57.249 2.20898 57.4622 2.23503 57.6738 2.28711C57.8854 2.33919 58.084 2.41243 58.2695 2.50684L57.9961 3.07324C57.8333 2.98861 57.6722 2.92513 57.5127 2.88281C57.3532 2.83724 57.1969 2.81445 57.0439 2.81445C56.6305 2.81445 56.3099 2.95931 56.082 3.24902C55.8542 3.53548 55.7402 3.92936 55.7402 4.43066C55.7402 4.9515 55.8428 5.35189 56.0479 5.63184C56.2562 5.91178 56.5833 6.05176 57.0293 6.05176C57.1921 6.05176 57.3662 6.0306 57.5518 5.98828C57.7406 5.94596 57.9196 5.89062 58.0889 5.82227V6.41797C57.9294 6.48958 57.765 6.54818 57.5957 6.59375C57.4264 6.63932 57.2262 6.66211 56.9951 6.66211ZM56.8389 7.59961C57.2718 7.59961 57.6771 7.52148 58.0547 7.36523C58.4355 7.20898 58.7692 6.98926 59.0557 6.70605C59.3421 6.4196 59.5667 6.08431 59.7295 5.7002C59.8923 5.31283 59.9736 4.88965 59.9736 4.43066C59.9736 3.99447 59.8955 3.58594 59.7393 3.20508C59.5863 2.82422 59.3698 2.4873 59.0898 2.19434C58.8099 1.90137 58.4779 1.6735 58.0938 1.51074C57.7129 1.34473 57.2946 1.26172 56.8389 1.26172C56.3831 1.26172 55.9632 1.33984 55.5791 1.49609C55.1982 1.65234 54.8662 1.8737 54.583 2.16016C54.3031 2.44336 54.085 2.77865 53.9287 3.16602C53.7757 3.55013 53.6992 3.97168 53.6992 4.43066C53.6992 4.86686 53.7757 5.27702 53.9287 5.66113C54.0817 6.04199 54.2982 6.37891 54.5781 6.67188C54.8613 6.96159 55.1934 7.18945 55.5742 7.35547C55.9583 7.51823 56.3799 7.59961 56.8389 7.59961ZM69.7676 8H65.0898V7.32129L66.999 5.38281C67.3538 5.02474 67.6517 4.70573 67.8926 4.42578C68.1367 4.14583 68.3223 3.87077 68.4492 3.60059C68.5762 3.32715 68.6396 3.02767 68.6396 2.70215C68.6396 2.2985 68.5192 1.99089 68.2783 1.7793C68.0407 1.56445 67.7266 1.45703 67.3359 1.45703C66.9941 1.45703 66.6914 1.51562 66.4277 1.63281C66.1641 1.75 65.8939 1.91602 65.6172 2.13086L65.1826 1.58398C65.3714 1.42448 65.5765 1.28288 65.7979 1.15918C66.0225 1.03548 66.2617 0.937826 66.5156 0.866211C66.7728 0.794596 67.0462 0.758789 67.3359 0.758789C67.7754 0.758789 68.1546 0.835286 68.4736 0.988281C68.7926 1.14128 69.0384 1.35938 69.2109 1.64258C69.3867 1.92578 69.4746 2.2627 69.4746 2.65332C69.4746 3.03092 69.3997 3.38249 69.25 3.70801C69.1003 4.03027 68.8903 4.35091 68.6201 4.66992C68.3499 4.98568 68.0342 5.32096 67.6729 5.67578L66.1201 7.22363V7.25781H69.7676V8ZM76.0293 4.4209C76.0293 5.00033 75.9854 5.5179 75.8975 5.97363C75.8096 6.42936 75.6712 6.8151 75.4824 7.13086C75.2936 7.44661 75.0495 7.6875 74.75 7.85352C74.4505 8.01628 74.0908 8.09766 73.6709 8.09766C73.1403 8.09766 72.7008 7.9528 72.3525 7.66309C72.0075 7.37337 71.7487 6.95508 71.5762 6.4082C71.4069 5.85807 71.3223 5.19564 71.3223 4.4209C71.3223 3.65918 71.3988 3.00488 71.5518 2.45801C71.708 1.90788 71.9587 1.48633 72.3037 1.19336C72.6488 0.897135 73.1045 0.749023 73.6709 0.749023C74.208 0.749023 74.6507 0.895508 74.999 1.18848C75.3473 1.47819 75.6061 1.89811 75.7754 2.44824C75.9447 2.99512 76.0293 3.65267 76.0293 4.4209ZM72.1377 4.4209C72.1377 5.08496 72.1882 5.63835 72.2891 6.08105C72.39 6.52376 72.5527 6.85579 72.7773 7.07715C73.0052 7.29525 73.3031 7.4043 73.6709 7.4043C74.0387 7.4043 74.335 7.29525 74.5596 7.07715C74.7874 6.85905 74.9518 6.52865 75.0527 6.08594C75.1569 5.64323 75.209 5.08822 75.209 4.4209C75.209 3.7666 75.1585 3.21973 75.0576 2.78027C74.9567 2.33757 74.7939 2.00553 74.5693 1.78418C74.3447 1.55957 74.0452 1.44727 73.6709 1.44727C73.2965 1.44727 72.9971 1.55957 72.7725 1.78418C72.5479 2.00553 72.3851 2.33757 72.2842 2.78027C72.1865 3.21973 72.1377 3.7666 72.1377 4.4209ZM82.2129 8H77.5352V7.32129L79.4443 5.38281C79.7992 5.02474 80.097 4.70573 80.3379 4.42578C80.582 4.14583 80.7676 3.87077 80.8945 3.60059C81.0215 3.32715 81.085 3.02767 81.085 2.70215C81.085 2.2985 80.9645 1.99089 80.7236 1.7793C80.486 1.56445 80.1719 1.45703 79.7812 1.45703C79.4395 1.45703 79.1367 1.51562 78.873 1.63281C78.6094 1.75 78.3392 1.91602 78.0625 2.13086L77.6279 1.58398C77.8167 1.42448 78.0218 1.28288 78.2432 1.15918C78.4678 1.03548 78.707 0.937826 78.9609 0.866211C79.2181 0.794596 79.4915 0.758789 79.7812 0.758789C80.2207 0.758789 80.5999 0.835286 80.9189 0.988281C81.238 1.14128 81.4837 1.35938 81.6562 1.64258C81.832 1.92578 81.9199 2.2627 81.9199 2.65332C81.9199 3.03092 81.8451 3.38249 81.6953 3.70801C81.5456 4.03027 81.3356 4.35091 81.0654 4.66992C80.7952 4.98568 80.4795 5.32096 80.1182 5.67578L78.5654 7.22363V7.25781H82.2129V8ZM88.4355 8H83.7578V7.32129L85.667 5.38281C86.0218 5.02474 86.3197 4.70573 86.5605 4.42578C86.8047 4.14583 86.9902 3.87077 87.1172 3.60059C87.2441 3.32715 87.3076 3.02767 87.3076 2.70215C87.3076 2.2985 87.1872 1.99089 86.9463 1.7793C86.7087 1.56445 86.3945 1.45703 86.0039 1.45703C85.6621 1.45703 85.3594 1.51562 85.0957 1.63281C84.832 1.75 84.5618 1.91602 84.2852 2.13086L83.8506 1.58398C84.0394 1.42448 84.2445 1.28288 84.4658 1.15918C84.6904 1.03548 84.9297 0.937826 85.1836 0.866211C85.4408 0.794596 85.7142 0.758789 86.0039 0.758789C86.4434 0.758789 86.8226 0.835286 87.1416 0.988281C87.4606 1.14128 87.7064 1.35938 87.8789 1.64258C88.0547 1.92578 88.1426 2.2627 88.1426 2.65332C88.1426 3.03092 88.0677 3.38249 87.918 3.70801C87.7682 4.03027 87.5583 4.35091 87.2881 4.66992C87.0179 4.98568 86.7021 5.32096 86.3408 5.67578L84.7881 7.22363V7.25781H88.4355V8ZM94.3916 8H93.5615V0.861328H97.5361V1.59375H94.3916V4.21094H97.3457V4.93848H94.3916V8ZM103.524 2.64844V8H102.86L102.743 7.24805H102.699C102.589 7.43359 102.445 7.58984 102.27 7.7168C102.094 7.84375 101.895 7.93815 101.674 8C101.456 8.0651 101.223 8.09766 100.976 8.09766C100.552 8.09766 100.198 8.0293 99.9111 7.89258C99.6247 7.75586 99.4082 7.54427 99.2617 7.25781C99.1185 6.97135 99.0469 6.60352 99.0469 6.1543V2.64844H99.8672V6.0957C99.8672 6.54167 99.9681 6.87533 100.17 7.09668C100.372 7.31478 100.679 7.42383 101.093 7.42383C101.49 7.42383 101.806 7.34896 102.04 7.19922C102.278 7.04948 102.449 6.82975 102.553 6.54004C102.657 6.24707 102.709 5.889 102.709 5.46582V2.64844H103.524ZM105.094 10.4023C104.928 10.4023 104.783 10.3893 104.659 10.3633C104.535 10.3405 104.428 10.3128 104.337 10.2803V9.62109C104.438 9.65365 104.54 9.67806 104.645 9.69434C104.749 9.71387 104.866 9.72363 104.996 9.72363C105.217 9.72363 105.396 9.66178 105.533 9.53809C105.67 9.41439 105.738 9.18978 105.738 8.86426V2.64844H106.549V8.84473C106.549 9.17025 106.497 9.44857 106.393 9.67969C106.288 9.91406 106.129 10.0931 105.914 10.2168C105.699 10.3405 105.426 10.4023 105.094 10.4023ZM105.665 1.17871C105.665 0.996419 105.711 0.862956 105.802 0.77832C105.896 0.69043 106.013 0.646484 106.153 0.646484C106.287 0.646484 106.401 0.69043 106.495 0.77832C106.593 0.862956 106.642 0.996419 106.642 1.17871C106.642 1.35775 106.593 1.49121 106.495 1.5791C106.401 1.66699 106.287 1.71094 106.153 1.71094C106.013 1.71094 105.896 1.66699 105.802 1.5791C105.711 1.49121 105.665 1.35775 105.665 1.17871ZM109.578 2.64844V8H108.768V2.64844H109.578ZM109.183 0.646484C109.316 0.646484 109.43 0.69043 109.524 0.77832C109.622 0.862956 109.671 0.996419 109.671 1.17871C109.671 1.35775 109.622 1.49121 109.524 1.5791C109.43 1.66699 109.316 1.71094 109.183 1.71094C109.043 1.71094 108.925 1.66699 108.831 1.5791C108.74 1.49121 108.694 1.35775 108.694 1.17871C108.694 0.996419 108.74 0.862956 108.831 0.77832C108.925 0.69043 109.043 0.646484 109.183 0.646484ZM113.525 7.43359C113.659 7.43359 113.796 7.4222 113.936 7.39941C114.076 7.37663 114.189 7.34896 114.277 7.31641V7.94629C114.183 7.98861 114.051 8.02441 113.882 8.05371C113.716 8.08301 113.553 8.09766 113.394 8.09766C113.11 8.09766 112.853 8.04883 112.622 7.95117C112.391 7.85026 112.205 7.68099 112.065 7.44336C111.929 7.20573 111.86 6.87695 111.86 6.45703V3.2832H111.099V2.8877L111.865 2.57031L112.188 1.4082H112.676V2.64844H114.243V3.2832H112.676V6.43262C112.676 6.7679 112.752 7.01855 112.905 7.18457C113.062 7.35059 113.268 7.43359 113.525 7.43359ZM117.922 2.55078C118.378 2.55078 118.768 2.65169 119.094 2.85352C119.419 3.05534 119.668 3.33854 119.841 3.70312C120.013 4.06445 120.1 4.48763 120.1 4.97266V5.47559H116.403C116.413 6.10384 116.569 6.58236 116.872 6.91113C117.175 7.23991 117.601 7.4043 118.151 7.4043C118.49 7.4043 118.789 7.37337 119.05 7.31152C119.31 7.24967 119.58 7.15853 119.86 7.03809V7.75098C119.59 7.87142 119.322 7.95931 119.055 8.01465C118.791 8.06999 118.479 8.09766 118.117 8.09766C117.603 8.09766 117.154 7.99349 116.77 7.78516C116.389 7.57357 116.092 7.26432 115.881 6.85742C115.669 6.45052 115.563 5.95247 115.563 5.36328C115.563 4.78711 115.66 4.28906 115.852 3.86914C116.047 3.44596 116.32 3.12044 116.672 2.89258C117.027 2.66471 117.443 2.55078 117.922 2.55078ZM117.912 3.21484C117.479 3.21484 117.134 3.35645 116.877 3.63965C116.62 3.92285 116.467 4.31836 116.418 4.82617H119.25C119.247 4.50716 119.196 4.22721 119.099 3.98633C119.004 3.74219 118.859 3.55339 118.664 3.41992C118.469 3.2832 118.218 3.21484 117.912 3.21484ZM122.782 0.402344V4.34766C122.782 4.47786 122.777 4.63737 122.768 4.82617C122.758 5.01172 122.75 5.17611 122.743 5.31934H122.777C122.846 5.2347 122.945 5.10938 123.075 4.94336C123.209 4.77734 123.321 4.64388 123.412 4.54297L125.189 2.64844H126.142L123.988 4.93359L126.298 8H125.321L123.432 5.46582L122.782 6.06152V8H121.977V0.402344H122.782ZM127.608 7.49219C127.608 7.26432 127.664 7.10319 127.774 7.00879C127.885 6.91113 128.02 6.8623 128.18 6.8623C128.346 6.8623 128.486 6.91113 128.6 7.00879C128.714 7.10319 128.771 7.26432 128.771 7.49219C128.771 7.7168 128.714 7.88118 128.6 7.98535C128.486 8.08626 128.346 8.13672 128.18 8.13672C128.02 8.13672 127.885 8.08626 127.774 7.98535C127.664 7.88118 127.608 7.7168 127.608 7.49219ZM138.555 8L137.676 5.73438H134.814L133.94 8H133.101L135.894 0.832031H136.641L139.414 8H138.555ZM137.427 4.99707L136.592 2.74609C136.572 2.6875 136.54 2.59147 136.494 2.45801C136.452 2.32454 136.408 2.1862 136.362 2.04297C136.317 1.89974 136.279 1.78418 136.25 1.69629C136.217 1.82975 136.182 1.96322 136.143 2.09668C136.107 2.22689 136.071 2.34896 136.035 2.46289C135.999 2.57357 135.968 2.66797 135.942 2.74609L135.093 4.99707H137.427ZM141.599 8H140.783V0.402344H141.599V8ZM144.628 8H143.812V0.402344H144.628V8ZM152.371 2.55078C152.479 2.55078 152.591 2.55729 152.708 2.57031C152.825 2.58008 152.929 2.59473 153.021 2.61426L152.918 3.36621C152.83 3.34342 152.732 3.32552 152.625 3.3125C152.518 3.29948 152.417 3.29297 152.322 3.29297C152.107 3.29297 151.904 3.33691 151.712 3.4248C151.523 3.50944 151.357 3.63314 151.214 3.7959C151.071 3.9554 150.958 4.14909 150.877 4.37695C150.796 4.60156 150.755 4.85221 150.755 5.12891V8H149.939V2.64844H150.613L150.701 3.63477H150.735C150.846 3.4362 150.979 3.25553 151.136 3.09277C151.292 2.92676 151.473 2.79492 151.678 2.69727C151.886 2.59961 152.117 2.55078 152.371 2.55078ZM155.342 2.64844V8H154.531V2.64844H155.342ZM154.946 0.646484C155.08 0.646484 155.194 0.69043 155.288 0.77832C155.386 0.862956 155.435 0.996419 155.435 1.17871C155.435 1.35775 155.386 1.49121 155.288 1.5791C155.194 1.66699 155.08 1.71094 154.946 1.71094C154.806 1.71094 154.689 1.66699 154.595 1.5791C154.504 1.49121 154.458 1.35775 154.458 1.17871C154.458 0.996419 154.504 0.862956 154.595 0.77832C154.689 0.69043 154.806 0.646484 154.946 0.646484ZM159.055 10.4023C158.352 10.4023 157.81 10.2705 157.429 10.0068C157.048 9.74642 156.857 9.38021 156.857 8.9082C156.857 8.57292 156.963 8.28646 157.175 8.04883C157.39 7.8112 157.686 7.65332 158.063 7.5752C157.924 7.51009 157.803 7.41243 157.702 7.28223C157.604 7.15202 157.556 7.00228 157.556 6.83301C157.556 6.6377 157.609 6.4668 157.717 6.32031C157.827 6.17057 157.995 6.02734 158.22 5.89062C157.94 5.77669 157.712 5.58464 157.536 5.31445C157.364 5.04102 157.277 4.72363 157.277 4.3623C157.277 3.97819 157.357 3.65104 157.517 3.38086C157.676 3.10742 157.907 2.89909 158.21 2.75586C158.513 2.61263 158.879 2.54102 159.309 2.54102C159.403 2.54102 159.497 2.5459 159.592 2.55566C159.689 2.56217 159.782 2.57357 159.87 2.58984C159.958 2.60286 160.035 2.61914 160.1 2.63867H161.936V3.16113L160.949 3.2832C161.047 3.41016 161.128 3.56315 161.193 3.74219C161.258 3.92122 161.291 4.11979 161.291 4.33789C161.291 4.87174 161.11 5.29655 160.749 5.6123C160.388 5.9248 159.891 6.08105 159.26 6.08105C159.11 6.08105 158.957 6.06803 158.801 6.04199C158.641 6.12988 158.519 6.22754 158.435 6.33496C158.353 6.44238 158.312 6.56608 158.312 6.70605C158.312 6.81022 158.343 6.89323 158.405 6.95508C158.47 7.01693 158.563 7.0625 158.684 7.0918C158.804 7.11784 158.949 7.13086 159.118 7.13086H160.061C160.643 7.13086 161.089 7.25293 161.398 7.49707C161.711 7.74121 161.867 8.09766 161.867 8.56641C161.867 9.15885 161.626 9.61296 161.145 9.92871C160.663 10.2445 159.966 10.4023 159.055 10.4023ZM159.079 9.76758C159.522 9.76758 159.888 9.72201 160.178 9.63086C160.471 9.54297 160.689 9.41439 160.832 9.24512C160.979 9.0791 161.052 8.88053 161.052 8.64941C161.052 8.43457 161.003 8.27181 160.905 8.16113C160.808 8.05371 160.664 7.9821 160.476 7.94629C160.287 7.90723 160.056 7.8877 159.782 7.8877H158.854C158.614 7.8877 158.404 7.92513 158.225 8C158.046 8.07487 157.907 8.18555 157.81 8.33203C157.715 8.47852 157.668 8.66081 157.668 8.87891C157.668 9.16862 157.79 9.38835 158.034 9.53809C158.278 9.69108 158.627 9.76758 159.079 9.76758ZM159.289 5.49023C159.676 5.49023 159.968 5.39258 160.163 5.19727C160.358 5.00195 160.456 4.71712 160.456 4.34277C160.456 3.94238 160.357 3.6429 160.158 3.44434C159.96 3.24251 159.667 3.1416 159.279 3.1416C158.908 3.1416 158.622 3.24577 158.42 3.4541C158.221 3.65918 158.122 3.96029 158.122 4.35742C158.122 4.72201 158.223 5.00195 158.425 5.19727C158.627 5.39258 158.915 5.49023 159.289 5.49023ZM164.301 0.402344V2.67285C164.301 2.80306 164.298 2.9349 164.291 3.06836C164.285 3.19857 164.273 3.31901 164.257 3.42969H164.311C164.421 3.24089 164.561 3.08301 164.73 2.95605C164.903 2.82585 165.098 2.72819 165.316 2.66309C165.535 2.59473 165.766 2.56055 166.01 2.56055C166.439 2.56055 166.798 2.62891 167.084 2.76562C167.374 2.90234 167.59 3.11393 167.733 3.40039C167.88 3.68685 167.953 4.05794 167.953 4.51367V8H167.152V4.56738C167.152 4.12142 167.05 3.78776 166.845 3.56641C166.643 3.34505 166.332 3.23438 165.912 3.23438C165.515 3.23438 165.198 3.31087 164.96 3.46387C164.726 3.61361 164.556 3.83496 164.452 4.12793C164.351 4.4209 164.301 4.77897 164.301 5.20215V8H163.49V0.402344H164.301ZM171.852 7.43359C171.985 7.43359 172.122 7.4222 172.262 7.39941C172.402 7.37663 172.516 7.34896 172.604 7.31641V7.94629C172.509 7.98861 172.377 8.02441 172.208 8.05371C172.042 8.08301 171.879 8.09766 171.72 8.09766C171.437 8.09766 171.179 8.04883 170.948 7.95117C170.717 7.85026 170.532 7.68099 170.392 7.44336C170.255 7.20573 170.187 6.87695 170.187 6.45703V3.2832H169.425V2.8877L170.191 2.57031L170.514 1.4082H171.002V2.64844H172.569V3.2832H171.002V6.43262C171.002 6.7679 171.078 7.01855 171.231 7.18457C171.388 7.35059 171.594 7.43359 171.852 7.43359ZM177.649 6.53516C177.649 6.87695 177.563 7.16504 177.391 7.39941C177.221 7.63053 176.977 7.80469 176.658 7.92188C176.342 8.03906 175.965 8.09766 175.525 8.09766C175.151 8.09766 174.827 8.06836 174.554 8.00977C174.28 7.95117 174.041 7.86816 173.836 7.76074V7.01367C174.054 7.12109 174.314 7.21875 174.617 7.30664C174.92 7.39453 175.229 7.43848 175.545 7.43848C176.007 7.43848 176.342 7.36361 176.551 7.21387C176.759 7.06413 176.863 6.86068 176.863 6.60352C176.863 6.45703 176.821 6.32845 176.736 6.21777C176.655 6.10384 176.517 5.99479 176.321 5.89062C176.126 5.7832 175.856 5.66602 175.511 5.53906C175.169 5.40885 174.873 5.28027 174.622 5.15332C174.375 5.02311 174.183 4.86523 174.046 4.67969C173.912 4.49414 173.846 4.25326 173.846 3.95703C173.846 3.50456 174.028 3.15788 174.393 2.91699C174.76 2.67285 175.242 2.55078 175.838 2.55078C176.16 2.55078 176.461 2.58333 176.741 2.64844C177.024 2.71029 177.288 2.79492 177.532 2.90234L177.259 3.55176C177.037 3.45736 176.801 3.3776 176.551 3.3125C176.3 3.2474 176.045 3.21484 175.784 3.21484C175.41 3.21484 175.122 3.27669 174.92 3.40039C174.721 3.52409 174.622 3.69336 174.622 3.9082C174.622 4.07422 174.668 4.21094 174.759 4.31836C174.853 4.42578 175.003 4.52669 175.208 4.62109C175.413 4.71549 175.683 4.82617 176.019 4.95312C176.354 5.07682 176.644 5.2054 176.888 5.33887C177.132 5.46908 177.319 5.62858 177.449 5.81738C177.583 6.00293 177.649 6.24219 177.649 6.53516ZM184.982 2.55078C185.09 2.55078 185.202 2.55729 185.319 2.57031C185.437 2.58008 185.541 2.59473 185.632 2.61426L185.529 3.36621C185.441 3.34342 185.344 3.32552 185.236 3.3125C185.129 3.29948 185.028 3.29297 184.934 3.29297C184.719 3.29297 184.515 3.33691 184.323 3.4248C184.134 3.50944 183.968 3.63314 183.825 3.7959C183.682 3.9554 183.57 4.14909 183.488 4.37695C183.407 4.60156 183.366 4.85221 183.366 5.12891V8H182.551V2.64844H183.225L183.312 3.63477H183.347C183.457 3.4362 183.591 3.25553 183.747 3.09277C183.903 2.92676 184.084 2.79492 184.289 2.69727C184.497 2.59961 184.729 2.55078 184.982 2.55078ZM189.203 2.55078C189.659 2.55078 190.049 2.65169 190.375 2.85352C190.701 3.05534 190.95 3.33854 191.122 3.70312C191.295 4.06445 191.381 4.48763 191.381 4.97266V5.47559H187.685C187.694 6.10384 187.851 6.58236 188.153 6.91113C188.456 7.23991 188.882 7.4043 189.433 7.4043C189.771 7.4043 190.071 7.37337 190.331 7.31152C190.591 7.24967 190.862 7.15853 191.142 7.03809V7.75098C190.871 7.87142 190.603 7.95931 190.336 8.01465C190.072 8.06999 189.76 8.09766 189.398 8.09766C188.884 8.09766 188.435 7.99349 188.051 7.78516C187.67 7.57357 187.374 7.26432 187.162 6.85742C186.951 6.45052 186.845 5.95247 186.845 5.36328C186.845 4.78711 186.941 4.28906 187.133 3.86914C187.328 3.44596 187.602 3.12044 187.953 2.89258C188.308 2.66471 188.725 2.55078 189.203 2.55078ZM189.193 3.21484C188.76 3.21484 188.415 3.35645 188.158 3.63965C187.901 3.92285 187.748 4.31836 187.699 4.82617H190.531C190.528 4.50716 190.478 4.22721 190.38 3.98633C190.285 3.74219 190.141 3.55339 189.945 3.41992C189.75 3.2832 189.499 3.21484 189.193 3.21484ZM196.72 6.53516C196.72 6.87695 196.633 7.16504 196.461 7.39941C196.292 7.63053 196.048 7.80469 195.729 7.92188C195.413 8.03906 195.035 8.09766 194.596 8.09766C194.221 8.09766 193.897 8.06836 193.624 8.00977C193.351 7.95117 193.111 7.86816 192.906 7.76074V7.01367C193.124 7.12109 193.385 7.21875 193.688 7.30664C193.99 7.39453 194.299 7.43848 194.615 7.43848C195.077 7.43848 195.413 7.36361 195.621 7.21387C195.829 7.06413 195.934 6.86068 195.934 6.60352C195.934 6.45703 195.891 6.32845 195.807 6.21777C195.725 6.10384 195.587 5.99479 195.392 5.89062C195.196 5.7832 194.926 5.66602 194.581 5.53906C194.239 5.40885 193.943 5.28027 193.692 5.15332C193.445 5.02311 193.253 4.86523 193.116 4.67969C192.983 4.49414 192.916 4.25326 192.916 3.95703C192.916 3.50456 193.098 3.15788 193.463 2.91699C193.831 2.67285 194.312 2.55078 194.908 2.55078C195.23 2.55078 195.532 2.58333 195.812 2.64844C196.095 2.71029 196.358 2.79492 196.603 2.90234L196.329 3.55176C196.108 3.45736 195.872 3.3776 195.621 3.3125C195.37 3.2474 195.115 3.21484 194.854 3.21484C194.48 3.21484 194.192 3.27669 193.99 3.40039C193.792 3.52409 193.692 3.69336 193.692 3.9082C193.692 4.07422 193.738 4.21094 193.829 4.31836C193.924 4.42578 194.073 4.52669 194.278 4.62109C194.483 4.71549 194.754 4.82617 195.089 4.95312C195.424 5.07682 195.714 5.2054 195.958 5.33887C196.202 5.46908 196.389 5.62858 196.52 5.81738C196.653 6.00293 196.72 6.24219 196.72 6.53516ZM200.584 2.55078C201.04 2.55078 201.43 2.65169 201.756 2.85352C202.081 3.05534 202.33 3.33854 202.503 3.70312C202.675 4.06445 202.762 4.48763 202.762 4.97266V5.47559H199.065C199.075 6.10384 199.231 6.58236 199.534 6.91113C199.837 7.23991 200.263 7.4043 200.813 7.4043C201.152 7.4043 201.451 7.37337 201.712 7.31152C201.972 7.24967 202.243 7.15853 202.522 7.03809V7.75098C202.252 7.87142 201.984 7.95931 201.717 8.01465C201.453 8.06999 201.141 8.09766 200.779 8.09766C200.265 8.09766 199.816 7.99349 199.432 7.78516C199.051 7.57357 198.755 7.26432 198.543 6.85742C198.331 6.45052 198.226 5.95247 198.226 5.36328C198.226 4.78711 198.322 4.28906 198.514 3.86914C198.709 3.44596 198.982 3.12044 199.334 2.89258C199.689 2.66471 200.105 2.55078 200.584 2.55078ZM200.574 3.21484C200.141 3.21484 199.796 3.35645 199.539 3.63965C199.282 3.92285 199.129 4.31836 199.08 4.82617H201.912C201.909 4.50716 201.858 4.22721 201.761 3.98633C201.666 3.74219 201.521 3.55339 201.326 3.41992C201.131 3.2832 200.88 3.21484 200.574 3.21484ZM207.07 2.55078C207.178 2.55078 207.29 2.55729 207.407 2.57031C207.524 2.58008 207.629 2.59473 207.72 2.61426L207.617 3.36621C207.529 3.34342 207.432 3.32552 207.324 3.3125C207.217 3.29948 207.116 3.29297 207.021 3.29297C206.807 3.29297 206.603 3.33691 206.411 3.4248C206.222 3.50944 206.056 3.63314 205.913 3.7959C205.77 3.9554 205.658 4.14909 205.576 4.37695C205.495 4.60156 205.454 4.85221 205.454 5.12891V8H204.639V2.64844H205.312L205.4 3.63477H205.435C205.545 3.4362 205.679 3.25553 205.835 3.09277C205.991 2.92676 206.172 2.79492 206.377 2.69727C206.585 2.59961 206.816 2.55078 207.07 2.55078ZM210.407 8L208.376 2.64844H209.245L210.422 5.88574C210.503 6.1071 210.586 6.35124 210.671 6.61816C210.756 6.88509 210.814 7.09993 210.847 7.2627H210.881C210.92 7.09993 210.985 6.88509 211.076 6.61816C211.167 6.34798 211.25 6.10384 211.325 5.88574L212.502 2.64844H213.371L211.335 8H210.407ZM216.791 2.55078C217.247 2.55078 217.637 2.65169 217.963 2.85352C218.288 3.05534 218.537 3.33854 218.71 3.70312C218.882 4.06445 218.969 4.48763 218.969 4.97266V5.47559H215.272C215.282 6.10384 215.438 6.58236 215.741 6.91113C216.044 7.23991 216.47 7.4043 217.021 7.4043C217.359 7.4043 217.659 7.37337 217.919 7.31152C218.179 7.24967 218.45 7.15853 218.729 7.03809V7.75098C218.459 7.87142 218.191 7.95931 217.924 8.01465C217.66 8.06999 217.348 8.09766 216.986 8.09766C216.472 8.09766 216.023 7.99349 215.639 7.78516C215.258 7.57357 214.962 7.26432 214.75 6.85742C214.538 6.45052 214.433 5.95247 214.433 5.36328C214.433 4.78711 214.529 4.28906 214.721 3.86914C214.916 3.44596 215.189 3.12044 215.541 2.89258C215.896 2.66471 216.312 2.55078 216.791 2.55078ZM216.781 3.21484C216.348 3.21484 216.003 3.35645 215.746 3.63965C215.489 3.92285 215.336 4.31836 215.287 4.82617H218.119C218.116 4.50716 218.065 4.22721 217.968 3.98633C217.873 3.74219 217.729 3.55339 217.533 3.41992C217.338 3.2832 217.087 3.21484 216.781 3.21484ZM222.75 8.09766C222.073 8.09766 221.536 7.86654 221.139 7.4043C220.745 6.94206 220.548 6.25521 220.548 5.34375C220.548 4.42253 220.75 3.72754 221.153 3.25879C221.557 2.78678 222.094 2.55078 222.765 2.55078C223.048 2.55078 223.295 2.58822 223.507 2.66309C223.718 2.73796 223.901 2.83887 224.054 2.96582C224.207 3.08952 224.335 3.23112 224.439 3.39062H224.498C224.485 3.28971 224.472 3.15137 224.459 2.97559C224.446 2.7998 224.439 2.65658 224.439 2.5459V0.402344H225.25V8H224.596L224.474 7.23828H224.439C224.339 7.39779 224.21 7.54264 224.054 7.67285C223.901 7.80306 223.717 7.90723 223.502 7.98535C223.29 8.06022 223.04 8.09766 222.75 8.09766ZM222.877 7.42383C223.45 7.42383 223.855 7.26107 224.093 6.93555C224.33 6.61003 224.449 6.12663 224.449 5.48535V5.33887C224.449 4.65853 224.335 4.13607 224.107 3.77148C223.883 3.4069 223.473 3.22461 222.877 3.22461C222.379 3.22461 222.006 3.41667 221.759 3.80078C221.511 4.18164 221.388 4.70247 221.388 5.36328C221.388 6.02083 221.51 6.52865 221.754 6.88672C222.001 7.24479 222.376 7.42383 222.877 7.42383Z" fill="black"/>
</svg>
