<svg width="70" height="70" viewBox="0 0 70 70" fill="none" xmlns="http://www.w3.org/2000/svg">
<path d="M57.5859 4.23828C61.1953 4.23828 64.0938 7.15039 64.2715 10.582V65.7617L57.4082 59.9375L53.6484 56.5195L49.5332 52.9375L51.2422 58.584H15.2578C11.6621 58.5703 8.75 55.8496 8.75 52.2266V10.5957C8.75 7.16406 11.6621 4.25195 15.2715 4.25195H57.5586L57.5859 4.23828ZM41.9043 18.8125H41.8223L41.3027 19.3184C46.6211 20.8633 49.1914 23.2695 49.1914 23.2695C45.7734 21.5605 42.6699 20.6992 39.5938 20.3438C37.3652 20.002 35.1367 20.1797 33.25 20.3438H32.7305C31.5273 20.3438 28.9707 20.8633 25.5254 22.2305C24.3359 22.75 23.6387 23.0918 23.6387 23.0918C23.6387 23.0918 26.1953 20.5215 31.8691 19.1406L31.5137 18.7988C31.5137 18.7988 27.2344 18.6211 22.5996 22.0527C22.5996 22.0527 17.9785 30.1191 17.9785 40.0449C17.9785 40.0449 20.5352 44.502 27.5762 44.666C27.5762 44.666 28.6016 43.2988 29.6406 42.1094C25.6895 40.9062 24.1582 38.5 24.1582 38.5C24.1582 38.5 24.5137 38.6777 25.0195 39.0059H25.1699C25.252 39.0059 25.293 39.0469 25.334 39.0879V39.1016C25.375 39.1426 25.416 39.1699 25.4844 39.1699C26.332 39.5254 27.1797 39.8535 27.8633 40.1953C29.0664 40.7012 30.5977 41.2207 32.4844 41.5625C34.8633 41.918 37.5977 42.0684 40.7148 41.5625C42.2461 41.207 43.791 40.8789 45.3359 40.1953C46.334 39.6895 47.5645 39.1699 48.9043 38.3086C48.9043 38.3086 47.373 40.7148 43.2578 41.918C44.1055 43.1074 45.2949 44.4746 45.2949 44.4746C52.3359 44.3105 55.0703 39.8535 55.2207 40.0449C55.2207 30.1191 50.5586 22.0527 50.5586 22.0527C46.375 18.9355 42.4512 18.8125 41.7539 18.8125H41.9043ZM42.3281 30.1191C44.1328 30.1191 45.582 31.6504 45.582 33.5371C45.582 35.4375 44.1191 36.9688 42.3281 36.9688C40.5234 36.9688 39.0742 35.4375 39.0742 33.5508C39.0742 31.6504 40.5371 30.1191 42.3281 30.1191ZM30.6797 30.1191C32.4707 30.1191 33.9199 31.6504 33.9199 33.5371C33.9199 35.4375 32.457 36.9688 30.666 36.9688C28.8613 36.9688 27.3984 35.4375 27.3984 33.5508C27.4121 31.6504 28.875 30.1191 30.6797 30.1191Z" fill="black"/>
</svg>
