<svg width="45" height="45" viewBox="0 0 45 45" fill="none" xmlns="http://www.w3.org/2000/svg">
<path d="M22.4999 3.21423C15.8434 3.21423 10.4463 8.61009 10.4463 15.2678C10.4463 17.1323 10.87 18.9004 11.6269 20.4753C11.6693 20.5648 22.4999 41.7857 22.4999 41.7857L33.2422 20.739C34.0803 19.0981 34.5534 17.2383 34.5534 15.2678C34.5534 8.61009 29.1576 3.21423 22.4999 3.21423ZM22.4999 22.4999C18.5059 22.4999 15.2677 19.2606 15.2677 15.2678C15.2677 11.2751 18.5059 8.03566 22.4999 8.03566C26.4926 8.03566 29.732 11.2751 29.732 15.2678C29.732 19.2606 26.4926 22.4999 22.4999 22.4999Z" fill="black"/>
</svg>
