<svg width="70" height="70" viewBox="0 0 70 70" fill="none" xmlns="http://www.w3.org/2000/svg">
<path d="M35 10C28.2083 10 27.3604 10.0312 24.6937 10.15C22.0312 10.275 20.2187 10.6937 18.625 11.3125C16.9812 11.95 15.5854 12.8062 14.1958 14.1958C12.8062 15.5854 11.9479 16.9792 11.3125 18.625C10.6937 20.2187 10.2729 22.0312 10.15 24.6937C10.025 27.3604 10 28.2083 10 35C10 41.7917 10.0312 42.6396 10.15 45.3063C10.275 47.9667 10.6937 49.7812 11.3125 51.375C11.95 53.0167 12.8062 54.4146 14.1958 55.8042C15.5854 57.1917 16.9792 58.0521 18.625 58.6875C20.2208 59.3042 22.0333 59.7271 24.6937 59.85C27.3604 59.975 28.2083 60 35 60C41.7917 60 42.6396 59.9687 45.3063 59.85C47.9667 59.725 49.7812 59.3042 51.375 58.6875C53.0167 58.05 54.4146 57.1917 55.8042 55.8042C57.1917 54.4146 58.0521 53.0229 58.6875 51.375C59.3042 49.7812 59.7271 47.9667 59.85 45.3063C59.975 42.6396 60 41.7917 60 35C60 28.2083 59.9687 27.3604 59.85 24.6937C59.725 22.0333 59.3042 20.2167 58.6875 18.625C58.05 16.9812 57.1917 15.5854 55.8042 14.1958C54.4146 12.8062 53.0229 11.9479 51.375 11.3125C49.7812 10.6937 47.9667 10.2729 45.3063 10.15C42.6396 10.025 41.7917 10 35 10ZM35 14.5C41.6729 14.5 42.4688 14.5333 45.1042 14.6479C47.5417 14.7625 48.8646 15.1667 49.7437 15.5125C50.9146 15.9646 51.7437 16.5062 52.6229 17.3792C53.4958 18.2542 54.0375 19.0854 54.4896 20.2562C54.8312 21.1354 55.2396 22.4583 55.35 24.8958C55.4687 27.5333 55.4958 28.325 55.4958 35C55.4958 41.675 55.4646 42.4688 55.3417 45.1042C55.2146 47.5417 54.8083 48.8646 54.4646 49.7437C53.9979 50.9146 53.4667 51.7437 52.5917 52.6229C51.7188 53.4958 50.875 54.0375 49.7167 54.4896C48.8417 54.8312 47.4979 55.2396 45.0604 55.35C42.4062 55.4687 41.625 55.4958 34.9375 55.4958C28.2479 55.4958 27.4667 55.4646 24.8146 55.3417C22.375 55.2146 21.0312 54.8083 20.1562 54.4646C18.9708 53.9979 18.1562 53.4667 17.2833 52.5917C16.4062 51.7188 15.8458 50.875 15.4083 49.7167C15.0646 48.8417 14.6604 47.4979 14.5333 45.0604C14.4396 42.4354 14.4062 41.625 14.4062 34.9687C14.4062 28.3104 14.4396 27.4979 14.5333 24.8417C14.6604 22.4042 15.0646 21.0625 15.4083 20.1875C15.8458 19 16.4062 18.1875 17.2833 17.3104C18.1562 16.4375 18.9708 15.875 20.1562 15.4396C21.0312 15.0938 22.3458 14.6875 24.7833 14.5625C27.4396 14.4688 28.2208 14.4375 34.9062 14.4375L35 14.5ZM35 22.1625C27.9062 22.1625 22.1625 27.9125 22.1625 35C22.1625 42.0938 27.9125 47.8375 35 47.8375C42.0938 47.8375 47.8375 42.0875 47.8375 35C47.8375 27.9062 42.0875 22.1625 35 22.1625ZM35 43.3333C30.3958 43.3333 26.6667 39.6042 26.6667 35C26.6667 30.3958 30.3958 26.6667 35 26.6667C39.6042 26.6667 43.3333 30.3958 43.3333 35C43.3333 39.6042 39.6042 43.3333 35 43.3333ZM51.3458 21.6562C51.3458 23.3125 50 24.6562 48.3458 24.6562C46.6896 24.6562 45.3458 23.3104 45.3458 21.6562C45.3458 20.0021 46.6917 18.6583 48.3458 18.6583C49.9979 18.6562 51.3458 20.0021 51.3458 21.6562Z" fill="black"/>
</svg>
