<svg width="35" height="35" viewBox="0 0 35 35" fill="none" xmlns="http://www.w3.org/2000/svg">
<path d="M28.3633 4H15.293C13.6523 4 12.3193 5.33301 12.3193 6.97363V12.9209C12.3193 13.249 12.5859 13.5156 12.9141 13.5156C13.2422 13.5156 13.5088 13.249 13.5088 12.9209V6.97363C13.5088 5.98926 14.3086 5.18945 15.2861 5.18945H28.3633C29.3477 5.18945 30.1406 5.98926 30.1406 6.97363V28.3701C30.1406 29.3545 29.3408 30.1475 28.3633 30.1475H15.293C14.3086 30.1475 13.5156 29.3477 13.5156 28.3701V22.4229C13.5156 22.0947 13.249 21.8281 12.9209 21.8281C12.5928 21.8281 12.3262 22.0947 12.3262 22.4229V28.3701C12.3262 30.0107 13.6592 31.3438 15.2998 31.3438H28.377C30.0176 31.3438 31.3506 30.0107 31.3506 28.3701V6.97363C31.3369 5.33984 30.0039 4 28.3633 4Z" fill="#010101"/>
<path d="M14.876 22.0059C14.6436 22.2383 14.6436 22.6143 14.876 22.8467C14.9922 22.9629 15.1426 23.0244 15.2998 23.0244C15.457 23.0244 15.6006 22.9697 15.7236 22.8467L20.4746 18.0957C20.502 18.0684 20.5293 18.0342 20.5566 18C20.5566 17.9932 20.5635 17.9932 20.5635 17.9863C20.5703 17.9727 20.584 17.959 20.584 17.9453C20.584 17.9385 20.5908 17.9316 20.5908 17.9248C20.5977 17.9111 20.6045 17.9043 20.6113 17.8838C20.6113 17.877 20.6182 17.8701 20.6182 17.8633C20.625 17.8496 20.6318 17.8428 20.6318 17.8223C20.6318 17.8154 20.6387 17.8086 20.6387 17.8018C20.6455 17.7881 20.6455 17.7812 20.6523 17.7676C20.6523 17.7607 20.6523 17.7471 20.6592 17.7471C20.6592 17.7334 20.666 17.7266 20.666 17.7129C20.666 17.6924 20.666 17.6787 20.666 17.665C20.666 17.6582 20.666 17.6582 20.666 17.6514C20.666 17.6445 20.666 17.6445 20.666 17.6377C20.666 17.6172 20.666 17.6035 20.666 17.5898C20.666 17.5762 20.6592 17.5693 20.6592 17.5557C20.6592 17.5488 20.6592 17.5352 20.6523 17.5352C20.6523 17.5215 20.6455 17.5146 20.6387 17.501C20.6387 17.4941 20.6318 17.4873 20.6318 17.4805C20.625 17.4668 20.625 17.46 20.6182 17.4395C20.6182 17.4326 20.6113 17.4258 20.6113 17.4189C20.6045 17.4053 20.5977 17.3984 20.5908 17.3779C20.5908 17.3711 20.584 17.3643 20.584 17.3574C20.5771 17.3438 20.5635 17.3301 20.5635 17.3164C20.5635 17.3096 20.5566 17.3096 20.5566 17.3027C20.5361 17.2686 20.502 17.2344 20.4746 17.207L15.7236 12.4561C15.4912 12.2236 15.1152 12.2236 14.8828 12.4561C14.6504 12.6885 14.6504 13.0645 14.8828 13.2969L18.6221 17.0361H4.59473C4.2666 17.0361 4 17.3027 4 17.6309C4 17.959 4.2666 18.2256 4.59473 18.2256H18.6084L14.876 22.0059Z" fill="#010101"/>
</svg>
