<svg width="30" height="15" viewBox="0 0 30 15" fill="none" xmlns="http://www.w3.org/2000/svg">
<path d="M1.07604 0C0.481759 0 0 0.48176 0 1.07604V1.07604C0 1.67032 0.48176 2.15208 1.07604 2.15208H28.924C29.5182 2.15208 30 1.67032 30 1.07604V1.07604C30 0.48176 29.5182 0 28.924 0H1.07604ZM1.07604 6.39168C0.481759 6.39168 0 6.87344 0 7.46772V7.46772C0 8.062 0.48176 8.54376 1.07604 8.54376H28.924C29.5182 8.54376 30 8.062 30 7.46772V7.46772C30 6.87344 29.5182 6.39168 28.924 6.39168H1.07604ZM1.07604 12.8479C0.481759 12.8479 0 13.3297 0 13.924V13.924C0 14.5182 0.48176 15 1.07604 15H28.924C29.5182 15 30 14.5182 30 13.924V13.924C30 13.3297 29.5182 12.8479 28.924 12.8479H1.07604Z" fill="white" fill-opacity="0.9"/>
</svg>
