<svg width="70" height="70" viewBox="0 0 70 70" fill="none" xmlns="http://www.w3.org/2000/svg">
<path fill-rule="evenodd" clip-rule="evenodd" d="M26.5396 35.9282C26.5956 33.7406 26.7736 32.058 27.3956 30.4488C28.2814 28.157 29.5337 27.3917 31.9394 27.9039C35.0938 28.5758 37.8225 30.0947 40.0994 32.3931C40.3465 32.643 40.5573 32.9341 40.7577 33.2248C41.7422 34.6551 41.8086 35.667 40.7397 37.0079C38.3804 39.967 35.3752 42.036 31.6985 43.0003C29.5071 43.5752 28.1938 42.7999 27.398 40.6576C27.1651 40.03 26.9542 39.381 26.8452 38.723C26.6659 37.6423 26.4943 36.553 26.5396 35.9282Z" fill="black"/>
<path d="M22.1508 14.4937C22.1508 14.4937 17.6115 14.4829 15.6392 17.8139C15.6392 17.8139 14.2895 19.7214 13.3965 23.2811C13.3965 23.2811 11.0687 35.4457 12.4238 44.5604C12.4238 44.5604 12.7672 52.4029 17.7929 54.6809C17.7929 54.6809 20.8095 56.4887 27.4291 53.9356C27.4291 53.9356 38.2793 50.2007 43.4043 44.2695C43.4043 44.2695 34.66 49.9515 30.1128 50.0065C30.1128 50.0065 23.4419 51.7569 21.9694 46.4682C21.9694 46.4682 18.4204 37.5025 19.5232 23.3542C19.5232 23.3542 19.5977 20.3414 22.1508 14.4937Z" fill="black"/>
<path d="M56.545 36.4995C56.545 36.4995 58.8666 32.5984 57.0047 29.2042C57.0047 29.2042 56.0504 27.0712 53.4418 24.489C53.4418 24.489 44.159 16.2902 35.6251 12.8143C35.6251 12.8143 28.7012 9.11542 24.1813 12.2805C24.1813 12.2805 21.0889 13.9552 19.9141 20.9521C19.9141 20.9521 17.6022 32.1921 20.0962 39.6231C20.0962 39.6231 19.66 29.2042 21.9287 25.2633C21.9287 25.2633 23.8203 18.6308 29.1215 20.057C29.1215 20.057 38.6446 21.5696 50.2584 29.7247C50.2584 29.7247 52.8136 31.3232 56.545 36.4995Z" fill="black"/>
<path d="M21.4121 55.2755C21.4121 55.2755 23.8341 59.1153 27.7036 58.9972C27.7036 58.9972 30.0373 59.1153 33.5226 57.9633C33.5226 57.9633 45.0422 53.4146 52.0132 47.389C52.0132 47.389 58.4525 42.8988 57.6844 37.4346C57.6844 37.4346 57.5961 33.9195 51.8951 29.6959C51.8951 29.6959 42.8535 22.8924 35.0999 21.7405C35.0999 21.7405 43.0041 24.6155 47.1392 29.5336C47.1392 29.5336 52.19 34.23 48.5126 38.3062C48.5126 38.3062 42.8414 46.1041 30.3027 52.7501C30.3028 52.7501 27.7185 54.3008 21.4121 55.2755Z" fill="black"/>
</svg>
