<svg width="70" height="70" viewBox="0 0 70 70" fill="none" xmlns="http://www.w3.org/2000/svg">
<path d="M65.5242 15.9154C63.2613 16.9196 60.8307 17.5984 58.2751 17.9036C60.8833 16.3418 62.8814 13.8668 63.8248 10.9213C61.3472 12.3928 58.6357 13.4287 55.8081 13.9841C53.507 11.5314 50.2257 10 46.5954 10C39.6273 10 33.9761 15.6489 33.9761 22.6211C33.9761 23.609 34.0874 24.5728 34.3013 25.4981C23.8116 24.9709 14.5119 19.9463 8.28714 12.3114C7.2002 14.176 6.57805 16.344 6.57805 18.6572C6.57805 23.0354 8.8065 26.8983 12.1926 29.1611C10.1881 29.099 8.22756 28.558 6.47493 27.5832V27.7427C6.47493 33.8583 10.8248 38.9577 16.599 40.1175C15.5383 40.4081 14.4251 40.56 13.2735 40.56C12.4593 40.56 11.6693 40.4829 10.8976 40.3377C12.5037 45.3503 17.1649 48.999 22.6863 49.1021C18.3667 52.4882 12.9239 54.5067 7.01237 54.5067C5.99418 54.5067 4.98789 54.4459 4 54.3268C9.58635 57.9089 16.2192 60 23.347 60C46.561 60 59.2569 40.7682 59.2569 24.0901C59.2569 23.5425 59.2449 22.9991 59.2185 22.4576C61.6921 20.6684 63.8273 18.4531 65.5242 15.9154Z" fill="black"/>
</svg>
