<svg width="70" height="70" viewBox="0 0 70 70" fill="none" xmlns="http://www.w3.org/2000/svg">
<path d="M60 23.1736C59.8438 28.0174 56.4062 34.7361 49.8438 43.1736C42.9688 52.0799 37.3438 56.4549 32.5 56.4549C29.5312 56.4549 27.1875 53.7986 25.1562 48.3299L21.0938 33.4861C19.5312 28.1736 17.9688 25.3611 16.25 25.3611C15.9375 25.3611 14.5312 26.1424 12.3438 27.7049L10 24.7361C12.5 22.5486 14.8437 20.3611 17.3437 18.1736C20.625 15.3611 23.125 13.7986 24.6875 13.6424C28.5938 13.3299 30.9375 15.9861 31.875 21.6111C32.8125 27.7049 33.4375 31.6111 33.9062 33.0174C35 38.1736 36.25 40.6736 37.6563 40.6736C38.75 40.6736 40.3125 38.9549 42.3438 35.6736C44.375 32.3924 45.625 29.8924 45.625 28.1736C45.9375 25.3611 44.8438 23.9549 42.1875 23.9549C40.9375 23.9549 39.6875 24.2674 38.4375 24.7361C40.9375 16.6111 45.625 12.7049 52.5 13.0174C57.8125 13.1736 60.3125 16.6111 60 23.1736Z" fill="black"/>
</svg>
