<svg width="60" height="40" viewBox="0 0 60 40" fill="none" xmlns="http://www.w3.org/2000/svg">
<path d="M0 1H60V39.545H0V1Z" fill="black"/>
<path d="M59.39 1.61609V38.935H0.610352V1.61609H59.39V1.61609Z" fill="white"/>
<path d="M3.05078 28.4626H56.8437V36.3887H3.05078V28.4626V28.4626Z" fill="#ECB73B"/>
<path d="M3.05078 4.10364H56.8437V12.0884H3.05078V4.10364V4.10364ZM34.4559 13.8954C35.9461 13.9892 36.6031 14.0244 38.5509 15.0335C38.5333 15.0335 37.3776 16.905 37.4128 16.8992C35.1247 15.4207 32.6665 15.9429 32.5433 17.3099C32.4553 18.8 36.697 19.903 36.7381 22.1852C36.7674 25.5234 33.834 26.7085 31.0942 26.6968C29.2051 26.7085 28.548 26.6557 26.9992 25.6583C27.005 25.6349 27.7794 23.4583 27.7736 23.3762C28.2899 23.6402 29.6158 24.6023 30.9827 24.6199C32.7193 24.6258 33.3999 23.734 33.3705 23.0652C33.3647 21.5868 29.0936 20.9004 29.1757 18.1429C29.1992 15.5322 31.851 13.7722 34.4559 13.8954V13.8954ZM16.6853 14.3178C16.7087 14.3236 16.9552 22.6663 16.9434 22.6604C16.9552 22.6663 21.719 14.3236 21.7073 14.3178H24.4588C24.4999 14.3236 16.9845 26.5501 16.9434 26.5442H13.7343L13.4233 16.2304C13.3881 15.5674 12.8601 14.6522 11.2467 14.5231C11.235 14.4586 11.2643 14.3236 11.2467 14.3178H16.6853V14.3178ZM25.4386 14.3178H28.8589L25.022 26.5442H21.6017L25.4386 14.3178V14.3178ZM47.8264 16.2832C47.9565 16.2856 48.0857 16.2617 48.2064 16.213C48.327 16.1643 48.4366 16.0918 48.5286 15.9998C48.6206 15.9078 48.6932 15.7982 48.7418 15.6775C48.7905 15.5569 48.8144 15.4276 48.812 15.2975C48.8153 15.1675 48.7919 15.0381 48.7435 14.9174C48.695 14.7967 48.6224 14.6871 48.5302 14.5954C48.4379 14.5037 48.3279 14.4318 48.2069 14.384C48.0859 14.3363 47.9564 14.3137 47.8264 14.3178C47.6963 14.3137 47.5669 14.3363 47.4458 14.384C47.3248 14.4318 47.2148 14.5037 47.1226 14.5954C47.0303 14.6871 46.9577 14.7967 46.9093 14.9174C46.8608 15.0381 46.8375 15.1675 46.8408 15.2975C46.8384 15.4276 46.8622 15.5569 46.9109 15.6775C46.9596 15.7982 47.0321 15.9078 47.1241 15.9998C47.2161 16.0918 47.3257 16.1643 47.4464 16.213C47.5671 16.2617 47.6963 16.2856 47.8264 16.2832ZM47.8264 16.072C47.7273 16.0705 47.6294 16.0491 47.5388 16.0091C47.4481 15.9691 47.3664 15.9112 47.2985 15.8389C47.2306 15.7667 47.178 15.6815 47.1437 15.5885C47.1094 15.4955 47.0942 15.3966 47.0989 15.2975C47.0989 14.8458 47.3981 14.5349 47.8264 14.5231C48.2547 14.5349 48.5597 14.8517 48.5539 15.2975C48.5594 15.3968 48.5448 15.4961 48.5108 15.5894C48.4768 15.6828 48.4242 15.7683 48.3562 15.8407C48.2881 15.9132 48.2061 15.971 48.115 16.0107C48.0239 16.0505 47.9257 16.0713 47.8264 16.072V16.072ZM48.0845 15.4031C48.2547 15.3679 48.3603 15.2917 48.3427 15.0922C48.3544 14.8399 48.2195 14.7637 47.9261 14.7813H47.4098V15.8197H47.668V15.4031H47.8205L48.0787 15.8197H48.3368L48.0845 15.4031ZM47.6738 15.1978V14.9338H47.8792C47.9965 14.9279 48.149 14.9162 48.1373 15.0394C48.149 15.1978 48.0669 15.2271 47.932 15.1978H47.6738ZM54.978 35.7669C55.1113 35.7646 55.2428 35.7358 55.3648 35.6822C55.4868 35.6286 55.5969 35.5511 55.6887 35.4545C55.7805 35.3578 55.852 35.2438 55.8993 35.1191C55.9465 34.9945 55.9684 34.8617 55.9637 34.7285C55.9637 34.5993 55.9381 34.4714 55.8885 34.3522C55.8389 34.2329 55.7662 34.1246 55.6746 34.0336C55.583 33.9425 55.4743 33.8705 55.3548 33.8216C55.2352 33.7727 55.1072 33.7479 54.978 33.7487C54.7181 33.7502 54.4692 33.8537 54.2848 34.037C54.1005 34.2202 53.9955 34.4685 53.9924 34.7285C53.9861 34.9967 54.0862 35.2565 54.2709 35.4511C54.4556 35.6457 54.7099 35.7592 54.978 35.7669V35.7669ZM54.978 35.5087C54.5498 35.5146 54.2506 35.1978 54.2506 34.7285C54.2506 34.3119 54.5439 33.9951 54.978 34.0068C55.0746 34.0009 55.1713 34.0155 55.2619 34.0496C55.3525 34.0837 55.4348 34.1365 55.5035 34.2046C55.5722 34.2728 55.6257 34.3547 55.6605 34.4449C55.6953 34.5352 55.7107 34.6318 55.7055 34.7285C55.7173 35.1978 55.4063 35.5146 54.978 35.5087ZM55.2362 34.8341C55.4063 34.8282 55.5119 34.7461 55.4943 34.5231C55.5061 34.2943 55.3711 34.218 55.0778 34.2122H54.5615V35.3034H54.8196V34.8341H54.9722L55.2303 35.3034H55.4884L55.2362 34.8341ZM54.8255 34.6757V34.3706H55.0308C55.1482 34.3882 55.3007 34.3764 55.289 34.5231C55.3007 34.6522 55.2186 34.6815 55.0778 34.6757H54.8255ZM46.0135 14.3178C46.0253 14.3823 47.0754 26.5501 47.052 26.5442H43.7313L43.5201 23.8514H39.7888C39.7712 23.8514 38.4453 26.5501 38.4453 26.5442H35.6468L42.6929 14.3178H46.0135V14.3178ZM43.1095 17.7323C43.1036 17.7323 43.438 22.1383 43.4204 22.1383H40.6747C40.6806 22.1441 43.1036 17.7675 43.1095 17.7323Z" fill="#2360A5"/>
<path d="M43.1095 17.7323C43.1037 17.7323 43.4381 22.1383 43.4205 22.1383H40.6748C40.6807 22.1442 43.1037 17.7675 43.1095 17.7323Z" fill="white"/>
</svg>
