<svg width="60" height="40" viewBox="0 0 60 40" fill="none" xmlns="http://www.w3.org/2000/svg">
<path d="M59.6949 1H0V39.5643H60V1H59.6949Z" fill="black"/>
<path d="M59.3898 1.61023V38.954H0.610352V1.61023H59.3898V1.61023Z" fill="white"/>
<path d="M43.693 22.6997C43.5757 21.5613 42.8187 20.8865 41.4632 20.8865C40.2251 20.8865 39.251 21.7784 39.251 23.2161C39.251 24.6596 40.137 25.5574 41.604 25.5574C42.7776 25.5574 43.5933 24.865 43.7224 23.7266H42.3258C42.273 24.1491 42.05 24.4777 41.5806 24.4777C40.8412 24.4777 40.7062 23.8909 40.7062 23.2689C40.7062 22.4121 41.0114 21.9779 41.5278 21.9779C41.9855 21.9779 42.273 22.242 42.3141 22.7055H43.693V22.6997Z" fill="black"/>
<path d="M47.3839 25.5515V25.4928C47.2196 25.3578 47.2137 25.264 47.2137 25.082V23.574C47.2137 22.8053 47.1198 22.2361 45.5942 22.2361C44.3208 22.2361 43.8338 22.6351 43.8338 23.3217H45.0661C45.0954 23.0459 45.336 23.0048 45.5179 23.0048C45.6529 23.0048 45.9345 23.0341 45.9345 23.2688C45.9345 23.8732 43.6343 23.2043 43.6343 24.6713C43.6343 25.3402 44.1741 25.6454 44.7903 25.6454C45.0116 25.6594 45.2335 25.6281 45.4423 25.5534C45.6512 25.4788 45.8426 25.3623 46.0049 25.2111L46.0636 25.5574H47.3839V25.5515ZM45.3712 24.9177C45.1189 24.9177 44.9663 24.8063 44.9663 24.6478C44.9663 24.2312 45.5179 24.3251 45.9404 24.1256C45.9638 24.5657 45.8172 24.9177 45.3712 24.9177V24.9177ZM47.5834 25.5691H48.8626V24.4542C48.8626 23.7618 49.1267 23.5153 49.6548 23.5153C49.7428 23.5153 49.8308 23.5388 49.9189 23.5505V22.2713L49.7546 22.2537C49.2558 22.2537 48.9389 22.4943 48.7629 22.9989H48.7511V22.3417H47.5834V25.5691V25.5691Z" fill="black"/>
<path d="M13.6781 18.1873H12.5162V15.623L11.2722 18.1932L10.6033 18.2108L9.16563 15.6582V18.1873L7.21159 18.1814L6.54265 17.1428L4.81159 17.1545L4.36562 18.1756L3.09814 18.1814L4.9583 13.9858H6.36073L8.01551 17.1076L8.02724 13.9858H9.65853L10.9319 16.2685L11.9353 13.9858H13.6722L13.6781 18.1873Z" fill="#00ACEC"/>
<path d="M22.3159 14.7428C22.3913 15.001 22.3869 15.2759 22.3031 15.5315C22.2193 15.787 22.0601 16.0112 21.8464 16.1746C22.3922 16.5384 22.3041 18.1756 22.3041 18.1756H21.1247C21.1247 18.1756 21.2244 16.9022 20.9193 16.7673C20.667 16.6734 19.5462 16.7144 19.5462 16.7144L19.5286 18.2049H18.3609L18.3433 13.9858H21.3125C21.6 13.9858 22.1457 14.2499 22.3159 14.7428V14.7428Z" fill="#00ACEC"/>
<path d="M21.119 15.3354C21.119 15.4586 20.9958 15.6346 20.7259 15.6523L19.5054 15.6405L19.523 14.9657C19.523 14.9657 19.9748 14.9774 20.5733 14.9774C21.0369 14.9422 21.1132 15.2239 21.119 15.3354V15.3354Z" fill="white"/>
<path d="M17.6391 13.9976V15.0479H15.6381L15.6264 15.5643H17.6861L17.6743 16.6088H15.6381L15.6147 17.1311H17.6919V18.1873L14.3413 18.1697L14.3237 13.9976H17.6391ZM31.2587 23.4333C30.8714 23.1457 30.8127 22.6763 30.8538 22.2245C30.8714 21.8606 31.1413 21.532 31.4523 21.3501C31.7516 21.1976 31.9394 21.2152 32.1858 21.1976H34.1105V22.2186H32.2445C32.0508 22.2186 32.0098 22.3477 31.998 22.4474C32.0098 22.688 32.1858 22.6939 32.3501 22.7115C32.7022 22.7115 33.4826 22.7056 33.7702 22.9579C34.1575 23.2455 34.2161 23.7149 34.1751 24.1668C34.1527 24.3505 34.0866 24.5263 33.9825 24.6794C33.8784 24.8325 33.7392 24.9585 33.5765 25.0469C33.2773 25.1995 33.0895 25.176 32.8372 25.1995H30.8831V24.1726H32.7315C32.9428 24.1726 33.0132 24.0435 33.0249 23.9438C33.0073 23.709 32.8372 23.7032 32.6729 23.6797H31.9628C31.7994 23.6726 31.6386 23.6369 31.4875 23.5741C31.4993 23.5741 31.335 23.4978 31.2587 23.4333V23.4333ZM35.0787 23.4391C34.6914 23.1516 34.6328 22.6763 34.6738 22.2303C34.6963 22.0465 34.7623 21.8708 34.8664 21.7176C34.9705 21.5645 35.1097 21.4385 35.2724 21.3501C35.5716 21.1976 35.7653 21.2152 36.0117 21.1976L37.9658 21.2093V22.2186H36.088C35.8592 22.2245 35.824 22.3829 35.824 22.4474C35.8416 22.688 36.0117 22.6939 36.1819 22.7115C36.534 22.7115 37.3144 22.7056 37.602 22.9579C37.9892 23.2455 38.0479 23.7149 38.0068 24.1668C37.9834 24.5306 37.7193 24.8592 37.4083 25.0411C37.109 25.1936 36.9213 25.176 36.6689 25.1936L34.7032 25.1878L34.6856 24.1726H36.534C36.8215 24.1726 36.845 24.0435 36.8567 23.9438C36.8391 23.7032 36.669 23.6973 36.4988 23.6856H35.7946C35.6316 23.6756 35.4712 23.64 35.3193 23.58C35.3193 23.58 35.1491 23.5037 35.0787 23.4391V23.4391ZM30.3433 22.1716H28.313V22.7232L30.355 22.7174L30.3433 23.7501L28.3188 23.7325L28.313 24.2254L30.3433 24.2372V25.1819L27.1276 25.1936L27.1394 21.1682H30.3491L30.3433 22.1716Z" fill="#00ACEC"/>
<path d="M38.1007 20.5227H35.3604C34.3041 20.5579 34.5154 21.2034 34.486 20.5286C34.4743 20.4992 31.7222 20.5227 31.7222 20.5227C30.578 20.5286 30.8479 21.1506 30.8127 20.5168C30.7951 20.4816 26.5173 20.5227 26.5173 20.5227L26.5291 20.8924C26.2767 20.6283 25.555 20.4816 25.3672 20.5227H21.8699V20.8982C21.8699 20.8982 21.4298 20.5344 21.1481 20.5227H16.8587L16.178 21.2973L15.5442 20.5462L10.486 20.5638V25.8743H15.5384L16.178 25.0997L16.8587 25.8743H20.0274L20.0332 24.5481C20.0332 24.5481 21.6411 24.642 21.8582 24.155L21.8758 24.7359L21.8699 25.8801H24.223L24.2112 24.5246C24.4518 24.5188 24.7804 24.4718 24.7804 24.7418C24.7804 25.0469 24.7511 24.1491 24.7804 25.8801H33.4357C33.5882 25.8801 33.6176 25.8919 33.7525 25.8567C33.9344 25.8156 34.134 25.5809 34.2572 25.4107C34.2513 25.6161 34.2689 25.8977 34.2689 25.8977L37.3613 25.9036C37.5236 25.8976 37.6814 25.849 37.819 25.7628C38.1946 25.1701 38.1418 25.3872 38.1066 25.8508V36.5129H3.02198V18.8621H4.7765L5.19901 17.8586L6.1144 17.8528L6.62492 18.8621H9.71735L9.71146 18.064L10.175 18.8679H11.6303L12.0411 18.0816L12.0469 18.8621H20.0215L20.0274 17.3422C20.0274 17.3422 20.7315 17.2014 20.62 17.6415V18.8621H24.4283L24.4166 18.4102C24.4225 18.3691 24.6924 18.8503 25.3965 18.8621C26.6934 18.8738 26.9105 18.8268 27.8083 18.8621L28.354 17.9056H29.4044L29.8856 18.8621L32.9486 18.8444L32.9721 17.7765L33.6411 18.8562H36.1232V13.2992L33.7643 13.2933V14.2616L33.1833 13.2933L30.4371 13.2992L30.4313 14.2322L29.9442 13.2992H25.954C24.622 13.2933 24.4049 13.9682 24.4049 13.9682L24.4107 13.2992H22.3922C22.3922 13.2992 22.2983 13.4283 22.3511 13.622C22.1927 13.4577 22.0283 13.2757 21.5472 13.2992L11.5305 13.2933C11.5305 13.2933 11.0142 14.2264 10.8675 14.731C10.629 14.2649 10.4098 13.7892 10.2103 13.3051L7.37015 13.2875L7.38774 14.5256C7.24105 14.197 6.74815 13.2992 6.74815 13.2992H4.5418L3.01611 16.6557L3.02784 4.03369H38.1124V20.5227H38.1007Z" fill="#00ACEC"/>
<path d="M22.8672 13.9859H23.9176V18.1756H22.8672V13.9859ZM27.4853 14.9247C27.4853 14.9247 25.8599 14.7722 25.7014 15.4235C25.5078 15.7697 25.5078 16.5208 25.8247 16.8964C26.0594 17.1076 26.3762 17.1956 26.6872 17.1135L26.922 16.7731L28.3127 13.98H29.5743L31.0941 17.2074L31.0824 13.98H32.7019C32.7547 13.98 34.2921 16.468 34.2921 16.468L34.3039 13.98H35.4188L35.4246 18.1697H34.0926L32.256 15.5174V18.1697H30.2374L29.6858 17.2074L27.9664 17.2015L27.497 18.1639C27.497 18.1639 25.4139 18.3868 24.9797 17.7179C24.4105 17.1076 24.3694 16.1511 24.522 15.3296C24.5687 15.0971 24.6619 14.8764 24.796 14.6808C24.9301 14.4851 25.1023 14.3186 25.3024 14.1912C25.8775 13.8744 27.4618 13.9741 27.4618 13.9741L27.4853 14.9247V14.9247Z" fill="#00ACEC"/>
<path d="M29.2811 16.1628H28.3657L28.8293 15.1241L29.2811 16.1628Z" fill="white"/>
<path d="M16.1548 22.2713L17.0937 21.1681H20.9313C21.3831 21.2737 21.7 21.6904 21.8408 22.1246C21.9079 22.4014 21.8975 22.6913 21.8105 22.9626C21.7235 23.2338 21.5635 23.4758 21.3479 23.662C21.2188 23.7559 21.2071 23.8028 20.9372 23.8322H19.3469L19.3352 25.1935H17.1171L16.1254 24.0904C15.8555 24.3662 15.1044 25.1935 15.1044 25.1935L11.167 25.2053V21.1564C14.6232 21.1974 15.1337 21.174 15.1337 21.174L16.1548 22.2713V22.2713Z" fill="#00ACEC"/>
<path d="M12.2051 22.1247V22.688H14.2354L14.2295 23.7677H12.2051L12.1934 24.3017H14.2295L15.1919 23.2161L14.212 22.1071L12.2051 22.1247ZM18.0731 24.3017L17.0227 23.1985L18.0731 22.154V24.3017ZM20.9366 22.5237C20.9366 22.6528 20.8134 22.8229 20.5376 22.8406H19.3112L19.3171 22.1833L20.3909 22.1657C20.8486 22.1305 20.9249 22.4122 20.9366 22.5237V22.5237Z" fill="white"/>
<path d="M25.449 21.1682H22.5796V25.2171L23.718 25.1936V23.8205L24.9796 23.8322C25.3551 23.9555 25.226 25.2112 25.226 25.2112H26.3938C26.3938 25.2112 26.5287 23.31 25.9361 23.3217C26.1449 23.1641 26.3006 22.9464 26.3823 22.6979C26.4641 22.4494 26.4681 22.1819 26.3938 21.931C26.2295 21.4499 25.6309 21.1271 25.449 21.1682V21.1682Z" fill="#00ACEC"/>
<path d="M24.7452 22.1187H23.7183V22.7936H24.8919C25.1677 22.776 25.2909 22.5999 25.2909 22.4708C25.2792 22.3652 25.2087 22.0835 24.7452 22.1187Z" fill="white"/>
<path d="M39.7554 36.5832C40.0199 36.5832 40.2737 36.4781 40.4608 36.2911C40.6478 36.104 40.7529 35.8503 40.7529 35.5857C40.7529 35.3211 40.6478 35.0674 40.4608 34.8803C40.2737 34.6932 40.0199 34.5881 39.7554 34.5881C39.4908 34.5881 39.2371 34.6932 39.05 34.8803C38.8629 35.0674 38.7578 35.3211 38.7578 35.5857C38.7578 35.8503 38.8629 36.104 39.05 36.2911C39.2371 36.4781 39.4908 36.5832 39.7554 36.5832ZM39.7554 36.3485C39.3211 36.3485 39.0219 36.0317 39.0219 35.5857C39.0219 35.1397 39.3211 34.8229 39.7554 34.8229C40.1837 34.8229 40.4889 35.1397 40.4889 35.5857C40.4947 36.0317 40.1837 36.3485 39.7554 36.3485ZM39.9901 35.6737C40.1837 35.662 40.2835 35.574 40.2835 35.3803C40.2835 35.128 40.1485 35.0517 39.8669 35.0517H39.3505V36.1314H39.5735V35.6737H39.7554L39.996 36.1314H40.26L39.9901 35.6737V35.6737ZM39.5676 35.5094V35.216H39.814C39.9197 35.216 40.0722 35.2043 40.0722 35.351C40.0722 35.4859 39.9842 35.5153 39.8669 35.5094H39.5676Z" fill="#00ACEC"/>
<path d="M51.673 24.7241C51.2564 24.7241 51.1684 24.331 51.1684 23.9907C51.1684 23.6327 51.2858 23.2278 51.7082 23.2278C52.1366 23.2278 52.2598 23.6151 52.2598 23.973C52.254 24.3486 52.1131 24.7241 51.673 24.7241ZM53.4921 25.5515V21.1212H52.2129V22.6586C51.943 22.3359 51.6554 22.242 51.2505 22.242C50.476 22.242 49.8833 22.9344 49.8833 24.0083C49.8833 24.9237 50.3762 25.6513 51.3503 25.6513C51.7611 25.6513 52.0369 25.5281 52.342 25.129V25.5574H53.4921V25.5515ZM53.6388 24.4718C53.7092 25.3403 54.519 25.5691 55.2584 25.5691C56.4378 25.5691 56.9953 25.1114 56.9953 24.4425C56.9953 23.2337 54.9532 23.5388 54.9532 23.0929C54.9532 22.9344 55.0941 22.864 55.3171 22.864C55.4168 22.864 55.5107 22.8875 55.5752 22.9462C55.6104 22.975 55.6395 23.0107 55.6606 23.051C55.6818 23.0913 55.6947 23.1355 55.6985 23.1809H56.8662C56.7899 22.3242 55.9684 22.1657 55.2642 22.1657C54.5953 22.1657 53.7327 22.4063 53.7327 23.2337C53.7327 24.4836 55.7102 24.0728 55.7102 24.5892C55.7102 24.818 55.4989 24.8767 55.3053 24.8767C55.1915 24.8797 55.08 24.8446 54.9885 24.777C54.9438 24.7427 54.9082 24.6981 54.8847 24.647C54.8611 24.5958 54.8504 24.5398 54.8535 24.4836H53.6388V24.4718Z" fill="black"/>
<path d="M6.03209 16.1863H5.1167L5.5744 15.1477L6.03209 16.1863Z" fill="white"/>
</svg>
