<svg width="98" height="45" viewBox="0 0 98 45" fill="none" xmlns="http://www.w3.org/2000/svg">
<g clip-path="url(#clip0_137_905)">
<path d="M54.9117 17.5036C52.4994 18.1803 48.7968 21.4826 46.295 24.5098L52.2742 8.49847C53.6001 5.32122 55.354 1.25928 55.8017 0.442785C56.4048 -0.607368 53.4604 0.446852 50.9233 1.16833C49.288 1.6333 47.5108 1.89335 46.6465 2.29394C46.2389 2.48282 45.9747 2.98646 45.8197 3.24478C45.5195 3.74512 49.3472 2.4192 47.8412 6.57119C47.8412 6.57119 41.7919 22.6335 40.8662 25.4104C39.9405 28.1874 38.5396 32.75 38.5396 34.0915C38.5396 35.7641 38.6158 37.8037 39.6856 38.8539C40.7548 39.9037 42.184 40.4287 43.9733 40.4288C46.0733 40.4288 49.1023 39.0756 51.4486 37.6941C54.1255 36.118 56.2958 34.0408 58.3285 31.3146C60.3174 28.5848 61.3705 25.2852 61.3306 21.9079C61.3306 19.7106 59.4354 16.2346 54.9117 17.5036ZM56.4272 23.2589C55.8768 25.1602 53.9367 28.9717 52.3743 31.1144C50.6231 33.5161 48.3097 36.4481 46.2583 37.6989C44.2068 38.9498 43.0177 36.8685 43.468 34.6669C43.8402 32.8472 44.6188 30.4139 46.6202 27.2617C48.6216 24.1095 51.4236 21.1574 54.1756 19.9565C56.9275 18.7557 56.9775 21.3576 56.4272 23.2589Z" fill="black"/>
<path d="M67.9604 28.8635C66.5901 32.1321 65.4836 34.6168 64.6581 36.4932C63.8325 38.3695 63.9075 39.9456 66.3092 40.0206C68.7109 40.0957 70.4371 39.3452 73.064 37.3938C75.6908 35.4424 76.8917 34.1665 76.8166 33.1908C76.7416 32.2151 75.5407 33.5661 74.6401 34.2416C73.7395 34.917 70.2657 37.0936 70.5015 35.5925C70.7374 34.0914 71.4879 32.6654 73.2141 28.4625C74.9403 24.2595 75.3906 23.584 76.4414 20.732C77.4921 17.88 76.0661 17.0544 74.8653 17.1295C73.6644 17.2045 72.2384 17.5048 69.3864 19.306C66.5344 21.1073 64.583 23.3589 65.2585 23.6591C65.934 23.9593 66.9847 23.2088 68.2606 22.4583C69.5365 21.7077 71.7881 20.4318 70.8875 22.3832C69.9868 24.3346 68.8616 26.7138 67.9604 28.8635Z" fill="black"/>
<path d="M79.1864 12.2436C80.519 10.8272 80.7076 8.84021 79.6078 7.80556C78.508 6.77091 76.5362 7.08037 75.2037 8.49678C73.8712 9.91318 73.6826 11.9002 74.7824 12.9348C75.8822 13.9695 77.8539 13.66 79.1864 12.2436Z" fill="#EC1C24"/>
<path d="M90.8515 20.7321H96.4054L97.5312 18.5556H91.6771L92.953 14.6529C92.953 14.6529 93.7035 12.4763 92.1274 12.4763C90.5513 12.4763 89.3504 14.7279 88.4498 15.9288C87.5492 17.1296 86.6486 18.2554 86.6486 18.2554C86.6486 18.2554 84.2469 18.3304 83.5714 18.3304C82.8959 18.3304 81.9202 19.096 81.545 19.6514C81.1697 20.2068 81.1697 20.582 81.9202 20.7321C82.6708 20.8823 85.9731 20.7321 85.9731 20.7321C85.9731 20.7321 84.0968 25.9858 82.5206 30.1888C80.9445 34.3918 79.5509 38.8949 81.2985 39.7205C81.9516 40.0573 82.6758 40.233 83.4106 40.233C84.1455 40.233 84.8696 40.0573 85.5228 39.7205C86.6486 39.1952 89.4255 36.8685 90.7765 35.4425C92.1274 34.0165 94.4541 30.3389 92.2025 31.915C89.9509 33.4911 84.6221 38.5197 86.0226 34.2548C86.9464 31.4411 90.8515 20.7321 90.8515 20.7321Z" fill="black"/>
<path d="M35.1123 27.4441C35.1123 30.9164 34.0826 34.3107 32.1535 37.1977C30.2244 40.0848 27.4826 42.335 24.2746 43.6638C21.0666 44.9926 17.5367 45.3402 14.1312 44.6628C10.7256 43.9854 7.59741 42.3134 5.14214 39.8581C2.68686 37.4029 1.01479 34.2747 0.337367 30.8691C-0.34006 27.4636 0.0075806 23.9336 1.33633 20.7257C2.66508 17.5177 4.91526 14.7758 7.80232 12.8467C10.6894 10.9176 14.0836 9.88787 17.5559 9.88782C19.8615 9.88778 22.1444 10.3419 24.2745 11.2241C26.4045 12.1064 28.3399 13.3996 29.9702 15.0299C31.6005 16.6601 32.8937 18.5955 33.776 20.7256C34.6583 22.8556 35.1124 25.1386 35.1123 27.4441Z" fill="#EC1C24"/>
<path fill-rule="evenodd" clip-rule="evenodd" d="M13.2504 25.0539C13.426 23.0095 14.9868 21.0555 17.8617 21.0555C18.3903 21.0435 18.9158 21.1387 19.4065 21.3353C19.8973 21.5319 20.3431 21.8259 20.7172 22.1996C21.0912 22.5732 21.3856 23.0188 21.5828 23.5093C21.7799 23.9999 21.8756 24.5253 21.8641 25.0539H13.2504ZM22.817 31.0061C21.728 32.4863 20.2943 33.5733 18.1647 33.5733C15.6429 33.5733 13.7728 31.9663 13.2504 29.4844H28.3105V27.4415C28.3105 20.9061 24.4418 16.1578 17.8148 16.1578C11.0768 16.1578 6.729 21.0819 6.729 27.4415C6.729 34.1823 11.9472 38.5318 18.4678 38.5318C21.8641 38.5318 25.2941 37.0052 27.3785 34.3565L22.817 31.0061Z" fill="white"/>
</g>
<defs>
<clipPath id="clip0_137_905">
<rect width="97.5313" height="45" fill="white"/>
</clipPath>
</defs>
</svg>
