<svg width="40" height="40" viewBox="0 0 40 40" fill="none" xmlns="http://www.w3.org/2000/svg">
<path d="M37.1426 15.2169V30.4082C37.1426 31.25 36.8429 31.9707 36.2434 32.5702C35.6439 33.1697 34.9233 33.4694 34.0814 33.4694H5.91816C5.07632 33.4694 4.35566 33.1697 3.75617 32.5702C3.15668 31.9707 2.85693 31.25 2.85693 30.4082V15.2169C3.41816 15.8419 4.06229 16.3967 4.78933 16.8814C9.40668 20.0192 12.5763 22.2194 14.2982 23.4822C15.0253 24.0179 15.6152 24.4356 16.068 24.7354C16.5208 25.0351 17.1235 25.3412 17.8761 25.6537C18.6286 25.9662 19.3302 26.1225 19.9806 26.1225H20.0189C20.6694 26.1225 21.371 25.9662 22.1235 25.6537C22.8761 25.3412 23.4787 25.0351 23.9316 24.7354C24.3844 24.4356 24.9743 24.0179 25.7013 23.4822C27.8697 21.9133 31.0457 19.713 35.2294 16.8814C35.9564 16.384 36.5942 15.8291 37.1426 15.2169ZM37.1426 9.59187C37.1426 10.5995 36.8301 11.5625 36.2052 12.4809C35.5802 13.3993 34.8021 14.1837 33.871 14.8342C29.075 18.1633 26.0903 20.236 24.9169 21.0523C24.7893 21.1417 24.5182 21.3362 24.1037 21.6359C23.6892 21.9356 23.3448 22.178 23.0706 22.3629C22.7963 22.5478 22.4647 22.7551 22.0757 22.9847C21.6866 23.2143 21.3199 23.3865 20.9756 23.5013C20.6312 23.6162 20.3123 23.6736 20.0189 23.6736H19.9806C19.6873 23.6736 19.3684 23.6162 19.024 23.5013C18.6796 23.3864 18.3129 23.2143 17.9239 22.9847C17.5349 22.7551 17.2032 22.5478 16.929 22.3629C16.6548 22.1779 16.3104 21.9356 15.8958 21.6359C15.4813 21.3361 15.2102 21.1416 15.0827 21.0523C13.922 20.236 12.2511 19.0721 10.0699 17.5606C7.88881 16.0491 6.58142 15.1403 6.14776 14.8342C5.35694 14.2985 4.61076 13.5619 3.90923 12.6244C3.2077 11.6869 2.85693 10.8163 2.85693 10.0128C2.85693 9.01789 3.1216 8.1888 3.65094 7.52552C4.18028 6.86227 4.93602 6.53064 5.91816 6.53064H34.0814C34.9105 6.53064 35.628 6.83038 36.2338 7.42987C36.8397 8.02935 37.1426 8.75002 37.1426 9.59187Z" fill="black"/>
</svg>
