<svg width="65" height="54" viewBox="0 0 65 54" fill="none" xmlns="http://www.w3.org/2000/svg">
<g filter="url(#filter0_d_232_8)">
<path d="M60.4 7.9C60.4 3.3 58.26 0.999996 53.98 0.999996H35.08V12.1H39.88V5.08H55.48V41.92H39.88V27.88L48.22 33.1V28.72L35.08 20.5V46H52.9C55.74 46 57.68 45.48 58.72 44.44C59.84 43.36 60.4 41.4 60.4 38.56V7.9Z" fill="black"/>
<path d="M35.08 0.999996H34.08V-3.57628e-06H35.08V0.999996ZM35.08 12.1V13.1H34.08V12.1H35.08ZM39.88 12.1H40.88V13.1H39.88V12.1ZM39.88 5.08H38.88V4.08H39.88V5.08ZM55.48 5.08V4.08H56.48V5.08H55.48ZM55.48 41.92H56.48V42.92H55.48V41.92ZM39.88 41.92V42.92H38.88V41.92H39.88ZM39.88 27.88H38.88V26.0744L40.4105 27.0323L39.88 27.88ZM48.22 33.1H49.22V34.9056L47.6895 33.9477L48.22 33.1ZM48.22 28.72L48.7503 27.8722L49.22 28.166V28.72H48.22ZM35.08 20.5H34.08V18.6949L35.6103 19.6522L35.08 20.5ZM35.08 46V47H34.08V46H35.08ZM58.72 44.44L58.0129 43.7329L58.0193 43.7265L58.0259 43.7202L58.72 44.44ZM59.4 7.9C59.4 5.73694 58.8954 4.30093 58.0629 3.40618C57.243 2.52503 55.9466 2 53.98 2V-3.57628e-06C56.2934 -3.57628e-06 58.207 0.624965 59.5271 2.04381C60.8346 3.44907 61.4 5.46305 61.4 7.9H59.4ZM53.98 2H35.08V-3.57628e-06H53.98V2ZM36.08 0.999996V12.1H34.08V0.999996H36.08ZM35.08 11.1H39.88V13.1H35.08V11.1ZM38.88 12.1V5.08H40.88V12.1H38.88ZM39.88 4.08H55.48V6.08H39.88V4.08ZM56.48 5.08V41.92H54.48V5.08H56.48ZM55.48 42.92H39.88V40.92H55.48V42.92ZM38.88 41.92V27.88H40.88V41.92H38.88ZM40.4105 27.0323L48.7505 32.2523L47.6895 33.9477L39.3495 28.7277L40.4105 27.0323ZM47.22 33.1V28.72H49.22V33.1H47.22ZM47.6897 29.5678L34.5497 21.3478L35.6103 19.6522L48.7503 27.8722L47.6897 29.5678ZM36.08 20.5V46H34.08V20.5H36.08ZM35.08 45H52.9V47H35.08V45ZM52.9 45C55.6928 45 57.2725 44.4733 58.0129 43.7329L59.4271 45.1471C58.0875 46.4867 55.7872 47 52.9 47V45ZM58.0259 43.7202C58.8406 42.9345 59.4 41.3329 59.4 38.56H61.4C61.4 41.4671 60.8394 43.7855 59.4141 45.1598L58.0259 43.7202ZM59.4 38.56V7.9H61.4V38.56H59.4Z" fill="black"/>
</g>
<g filter="url(#filter1_d_232_8)">
<path d="M4.34023 7.9C4.34023 3.3 6.48023 0.999996 10.7602 0.999996H29.6602V12.1H24.8602V5.08H9.26023V41.92H24.8602V27.88L16.5202 33.1V28.72L29.6602 20.5V46H11.8402C9.00023 46 7.06023 45.48 6.02023 44.44C4.90023 43.36 4.34023 41.4 4.34023 38.56V7.9Z" fill="black"/>
<path d="M29.6602 0.999996H30.6602V-3.57628e-06H29.6602V0.999996ZM29.6602 12.1V13.1H30.6602V12.1H29.6602ZM24.8602 12.1H23.8602V13.1H24.8602V12.1ZM24.8602 5.08H25.8602V4.08H24.8602V5.08ZM9.26023 5.08V4.08H8.26023V5.08H9.26023ZM9.26023 41.92H8.26023V42.92H9.26023V41.92ZM24.8602 41.92V42.92H25.8602V41.92H24.8602ZM24.8602 27.88H25.8602V26.0744L24.3297 27.0323L24.8602 27.88ZM16.5202 33.1H15.5202V34.9056L17.0508 33.9477L16.5202 33.1ZM16.5202 28.72L15.9899 27.8722L15.5202 28.166V28.72H16.5202ZM29.6602 20.5H30.6602V18.6949L29.1299 19.6522L29.6602 20.5ZM29.6602 46V47H30.6602V46H29.6602ZM6.02023 44.44L6.72734 43.7329L6.72091 43.7265L6.71437 43.7202L6.02023 44.44ZM5.34023 7.9C5.34023 5.73694 5.84485 4.30093 6.67735 3.40618C7.4972 2.52503 8.7936 2 10.7602 2V-3.57628e-06C8.44687 -3.57628e-06 6.53327 0.624965 5.21312 2.04381C3.90562 3.44907 3.34023 5.46305 3.34023 7.9H5.34023ZM10.7602 2H29.6602V-3.57628e-06H10.7602V2ZM28.6602 0.999996V12.1H30.6602V0.999996H28.6602ZM29.6602 11.1H24.8602V13.1H29.6602V11.1ZM25.8602 12.1V5.08H23.8602V12.1H25.8602ZM24.8602 4.08H9.26023V6.08H24.8602V4.08ZM8.26023 5.08V41.92H10.2602V5.08H8.26023ZM9.26023 42.92H24.8602V40.92H9.26023V42.92ZM25.8602 41.92V27.88H23.8602V41.92H25.8602ZM24.3297 27.0323L15.9897 32.2523L17.0508 33.9477L25.3908 28.7277L24.3297 27.0323ZM17.5202 33.1V28.72H15.5202V33.1H17.5202ZM17.0506 29.5678L30.1906 21.3478L29.1299 19.6522L15.9899 27.8722L17.0506 29.5678ZM28.6602 20.5V46H30.6602V20.5H28.6602ZM29.6602 45H11.8402V47H29.6602V45ZM11.8402 45C9.04743 45 7.46774 44.4733 6.72734 43.7329L5.31313 45.1471C6.65273 46.4867 8.95304 47 11.8402 47V45ZM6.71437 43.7202C5.89959 42.9345 5.34023 41.3329 5.34023 38.56H3.34023C3.34023 41.4671 3.90088 43.7855 5.3261 45.1598L6.71437 43.7202ZM5.34023 38.56V7.9H3.34023V38.56H5.34023Z" fill="black"/>
</g>
<defs>
<filter id="filter0_d_232_8" x="31.0801" y="0.999996" width="33.3198" height="53" filterUnits="userSpaceOnUse" color-interpolation-filters="sRGB">
<feFlood flood-opacity="0" result="BackgroundImageFix"/>
<feColorMatrix in="SourceAlpha" type="matrix" values="0 0 0 0 0 0 0 0 0 0 0 0 0 0 0 0 0 0 127 0" result="hardAlpha"/>
<feOffset dy="4"/>
<feGaussianBlur stdDeviation="2"/>
<feComposite in2="hardAlpha" operator="out"/>
<feColorMatrix type="matrix" values="0 0 0 0 0 0 0 0 0 0 0 0 0 0 0 0 0 0 0.25 0"/>
<feBlend mode="normal" in2="BackgroundImageFix" result="effect1_dropShadow_232_8"/>
<feBlend mode="normal" in="SourceGraphic" in2="effect1_dropShadow_232_8" result="shape"/>
</filter>
<filter id="filter1_d_232_8" x="0.340332" y="0.999996" width="33.3198" height="53" filterUnits="userSpaceOnUse" color-interpolation-filters="sRGB">
<feFlood flood-opacity="0" result="BackgroundImageFix"/>
<feColorMatrix in="SourceAlpha" type="matrix" values="0 0 0 0 0 0 0 0 0 0 0 0 0 0 0 0 0 0 127 0" result="hardAlpha"/>
<feOffset dy="4"/>
<feGaussianBlur stdDeviation="2"/>
<feComposite in2="hardAlpha" operator="out"/>
<feColorMatrix type="matrix" values="0 0 0 0 0 0 0 0 0 0 0 0 0 0 0 0 0 0 0.25 0"/>
<feBlend mode="normal" in2="BackgroundImageFix" result="effect1_dropShadow_232_8"/>
<feBlend mode="normal" in="SourceGraphic" in2="effect1_dropShadow_232_8" result="shape"/>
</filter>
</defs>
</svg>
