<svg width="147" height="66" viewBox="0 0 147 66" fill="none" xmlns="http://www.w3.org/2000/svg">
<g filter="url(#filter0_d_137_754)">
<path d="M77.002 35.416C77.002 36.472 76.486 37 75.454 37H71.098V34.282H72.322V35.776H75.562V34.282L72.61 32.428C72.31 32.236 72.052 32.08 71.836 31.96C71.62 31.84 71.44 31.72 71.296 31.6C71.032 31.36 70.9 31.036 70.9 30.628V29.602C70.9 29.098 70.984 28.75 71.152 28.558C71.476 28.186 71.956 28 72.592 28H76.786V30.7H75.562V29.224H72.322V30.736L75.382 32.644C75.634 32.8 75.856 32.938 76.048 33.058C76.252 33.166 76.42 33.28 76.552 33.4C76.852 33.652 77.002 33.952 77.002 34.3V35.416ZM81.3662 24.724V28H82.8242V29.296H81.3662V35.776H83.0762V37H81.5642C81.0242 37 80.6222 36.862 80.3582 36.586C80.0942 36.298 79.9622 35.812 79.9622 35.128V29.296H78.6302V28H79.9622V24.724H81.3662ZM86.017 37C85.405 37 84.973 36.862 84.721 36.586C84.469 36.298 84.343 35.902 84.343 35.398V29.602C84.343 29.122 84.451 28.738 84.667 28.45C84.895 28.15 85.345 28 86.017 28H89.347C90.007 28 90.451 28.15 90.679 28.45C90.907 28.738 91.021 29.122 91.021 29.602V35.398C91.021 35.902 90.895 36.298 90.643 36.586C90.391 36.862 89.959 37 89.347 37H86.017ZM85.801 35.776H89.563V29.224H85.801V35.776ZM97.9181 28C98.8541 28 99.3221 28.462 99.3221 29.386V30.988H97.8641V29.242L95.0561 31.024V35.776H95.9381V37H92.4641V35.776H93.5981V29.206H92.4641V27.982H95.0561V29.566L97.2701 28.18C97.4621 28.06 97.6781 28 97.9181 28ZM100.941 29.764C100.941 28.576 101.559 27.982 102.795 27.982H105.837C106.425 27.982 106.851 28.096 107.115 28.324C107.379 28.552 107.511 28.972 107.511 29.584V31.258L102.381 34.498V35.776H106.089V34.732H107.511V35.686C107.511 36.046 107.397 36.358 107.169 36.622C106.953 36.874 106.587 37 106.071 37H102.381C101.865 37 101.493 36.874 101.265 36.622C101.049 36.358 100.941 36.046 100.941 35.686V29.764ZM102.381 33.04L106.071 30.718V29.224H102.381V33.04ZM110.406 35.218C110.658 35.218 110.868 35.314 111.036 35.506C111.216 35.698 111.306 35.92 111.306 36.172C111.306 36.424 111.216 36.64 111.036 36.82C110.868 36.988 110.658 37.072 110.406 37.072C110.154 37.072 109.938 36.988 109.758 36.82C109.578 36.64 109.488 36.424 109.488 36.172C109.488 35.92 109.578 35.698 109.758 35.506C109.95 35.314 110.166 35.218 110.406 35.218ZM119.329 37H114.847C113.983 37 113.485 36.676 113.353 36.028C113.305 35.836 113.281 35.632 113.281 35.416V29.584C113.281 29.08 113.419 28.69 113.695 28.414C113.983 28.126 114.415 27.982 114.991 27.982H119.329V30.268H118.105V29.224H114.721V35.776H118.105V34.732H119.329V37ZM122.439 37C121.827 37 121.395 36.862 121.143 36.586C120.891 36.298 120.765 35.902 120.765 35.398V29.602C120.765 29.122 120.873 28.738 121.089 28.45C121.317 28.15 121.767 28 122.439 28H125.769C126.429 28 126.873 28.15 127.101 28.45C127.329 28.738 127.443 29.122 127.443 29.602V35.398C127.443 35.902 127.317 36.298 127.065 36.586C126.813 36.862 126.381 37 125.769 37H122.439ZM122.223 35.776H125.985V29.224H122.223V35.776ZM139.596 27.82C140.532 27.82 141 28.282 141 29.206V35.776H142.152V37H138.678V35.776H139.542V29.08L136.248 31.132V35.776H137.13V37H133.908V35.776H134.772L134.79 35.704V29.062L131.478 31.132V35.776H132.36V37H128.886V35.776H130.02V29.206H128.886V28H131.478V29.71L134.196 28C134.388 27.88 134.604 27.82 134.844 27.82C135.78 27.82 136.248 28.282 136.248 29.206V29.692L138.948 28C139.14 27.88 139.356 27.82 139.596 27.82Z" fill="black"/>
</g>
<line x1="70" y1="39.5" x2="143" y2="39.5" stroke="black"/>
<g filter="url(#filter1_d_137_754)">
<path d="M66.4 19.9C66.4 15.3 64.26 13 59.98 13H41.08V24.1H45.88V17.08H61.48V53.92H45.88V39.88L54.22 45.1V40.72L41.08 32.5V58H58.9C61.74 58 63.68 57.48 64.72 56.44C65.84 55.36 66.4 53.4 66.4 50.56V19.9Z" fill="black"/>
<path d="M41.08 13H40.08V12H41.08V13ZM41.08 24.1V25.1H40.08V24.1H41.08ZM45.88 24.1H46.88V25.1H45.88V24.1ZM45.88 17.08H44.88V16.08H45.88V17.08ZM61.48 17.08V16.08H62.48V17.08H61.48ZM61.48 53.92H62.48V54.92H61.48V53.92ZM45.88 53.92V54.92H44.88V53.92H45.88ZM45.88 39.88H44.88V38.0744L46.4105 39.0323L45.88 39.88ZM54.22 45.1H55.22V46.9056L53.6895 45.9477L54.22 45.1ZM54.22 40.72L54.7503 39.8722L55.22 40.166V40.72H54.22ZM41.08 32.5H40.08V30.6949L41.6103 31.6522L41.08 32.5ZM41.08 58V59H40.08V58H41.08ZM64.72 56.44L64.0129 55.7329L64.0193 55.7265L64.0259 55.7202L64.72 56.44ZM65.4 19.9C65.4 17.7369 64.8954 16.3009 64.0629 15.4062C63.243 14.525 61.9466 14 59.98 14V12C62.2934 12 64.207 12.625 65.5271 14.0438C66.8346 15.4491 67.4 17.4631 67.4 19.9H65.4ZM59.98 14H41.08V12H59.98V14ZM42.08 13V24.1H40.08V13H42.08ZM41.08 23.1H45.88V25.1H41.08V23.1ZM44.88 24.1V17.08H46.88V24.1H44.88ZM45.88 16.08H61.48V18.08H45.88V16.08ZM62.48 17.08V53.92H60.48V17.08H62.48ZM61.48 54.92H45.88V52.92H61.48V54.92ZM44.88 53.92V39.88H46.88V53.92H44.88ZM46.4105 39.0323L54.7505 44.2523L53.6895 45.9477L45.3495 40.7277L46.4105 39.0323ZM53.22 45.1V40.72H55.22V45.1H53.22ZM53.6897 41.5678L40.5497 33.3478L41.6103 31.6522L54.7503 39.8722L53.6897 41.5678ZM42.08 32.5V58H40.08V32.5H42.08ZM41.08 57H58.9V59H41.08V57ZM58.9 57C61.6928 57 63.2725 56.4733 64.0129 55.7329L65.4271 57.1471C64.0875 58.4867 61.7872 59 58.9 59V57ZM64.0259 55.7202C64.8406 54.9345 65.4 53.3329 65.4 50.56H67.4C67.4 53.4671 66.8394 55.7855 65.4141 57.1598L64.0259 55.7202ZM65.4 50.56V19.9H67.4V50.56H65.4Z" fill="black"/>
</g>
<g filter="url(#filter2_d_137_754)">
<path d="M10.3402 19.9C10.3402 15.3 12.4802 13 16.7602 13H35.6602V24.1H30.8602V17.08H15.2602V53.92H30.8602V39.88L22.5202 45.1V40.72L35.6602 32.5V58H17.8402C15.0002 58 13.0602 57.48 12.0202 56.44C10.9002 55.36 10.3402 53.4 10.3402 50.56V19.9Z" fill="black"/>
<path d="M35.6602 13H36.6602V12H35.6602V13ZM35.6602 24.1V25.1H36.6602V24.1H35.6602ZM30.8602 24.1H29.8602V25.1H30.8602V24.1ZM30.8602 17.08H31.8602V16.08H30.8602V17.08ZM15.2602 17.08V16.08H14.2602V17.08H15.2602ZM15.2602 53.92H14.2602V54.92H15.2602V53.92ZM30.8602 53.92V54.92H31.8602V53.92H30.8602ZM30.8602 39.88H31.8602V38.0744L30.3297 39.0323L30.8602 39.88ZM22.5202 45.1H21.5202V46.9056L23.0508 45.9477L22.5202 45.1ZM22.5202 40.72L21.9899 39.8722L21.5202 40.166V40.72H22.5202ZM35.6602 32.5H36.6602V30.6949L35.1299 31.6522L35.6602 32.5ZM35.6602 58V59H36.6602V58H35.6602ZM12.0202 56.44L12.7273 55.7329L12.7209 55.7265L12.7144 55.7202L12.0202 56.44ZM11.3402 19.9C11.3402 17.7369 11.8448 16.3009 12.6773 15.4062C13.4972 14.525 14.7936 14 16.7602 14V12C14.4469 12 12.5333 12.625 11.2131 14.0438C9.90562 15.4491 9.34023 17.4631 9.34023 19.9H11.3402ZM16.7602 14H35.6602V12H16.7602V14ZM34.6602 13V24.1H36.6602V13H34.6602ZM35.6602 23.1H30.8602V25.1H35.6602V23.1ZM31.8602 24.1V17.08H29.8602V24.1H31.8602ZM30.8602 16.08H15.2602V18.08H30.8602V16.08ZM14.2602 17.08V53.92H16.2602V17.08H14.2602ZM15.2602 54.92H30.8602V52.92H15.2602V54.92ZM31.8602 53.92V39.88H29.8602V53.92H31.8602ZM30.3297 39.0323L21.9897 44.2523L23.0508 45.9477L31.3908 40.7277L30.3297 39.0323ZM23.5202 45.1V40.72H21.5202V45.1H23.5202ZM23.0506 41.5678L36.1906 33.3478L35.1299 31.6522L21.9899 39.8722L23.0506 41.5678ZM34.6602 32.5V58H36.6602V32.5H34.6602ZM35.6602 57H17.8402V59H35.6602V57ZM17.8402 57C15.0474 57 13.4677 56.4733 12.7273 55.7329L11.3131 57.1471C12.6527 58.4867 14.953 59 17.8402 59V57ZM12.7144 55.7202C11.8996 54.9345 11.3402 53.3329 11.3402 50.56H9.34023C9.34023 53.4671 9.90088 55.7855 11.3261 57.1598L12.7144 55.7202ZM11.3402 50.56V19.9H9.34023V50.56H11.3402Z" fill="black"/>
</g>
<defs>
<filter id="filter0_d_137_754" x="66.8999" y="24.724" width="79.252" height="20.348" filterUnits="userSpaceOnUse" color-interpolation-filters="sRGB">
<feFlood flood-opacity="0" result="BackgroundImageFix"/>
<feColorMatrix in="SourceAlpha" type="matrix" values="0 0 0 0 0 0 0 0 0 0 0 0 0 0 0 0 0 0 127 0" result="hardAlpha"/>
<feOffset dy="4"/>
<feGaussianBlur stdDeviation="2"/>
<feComposite in2="hardAlpha" operator="out"/>
<feColorMatrix type="matrix" values="0 0 0 0 0 0 0 0 0 0 0 0 0 0 0 0 0 0 0.25 0"/>
<feBlend mode="normal" in2="BackgroundImageFix" result="effect1_dropShadow_137_754"/>
<feBlend mode="normal" in="SourceGraphic" in2="effect1_dropShadow_137_754" result="shape"/>
</filter>
<filter id="filter1_d_137_754" x="37.0801" y="13" width="33.3198" height="53" filterUnits="userSpaceOnUse" color-interpolation-filters="sRGB">
<feFlood flood-opacity="0" result="BackgroundImageFix"/>
<feColorMatrix in="SourceAlpha" type="matrix" values="0 0 0 0 0 0 0 0 0 0 0 0 0 0 0 0 0 0 127 0" result="hardAlpha"/>
<feOffset dy="4"/>
<feGaussianBlur stdDeviation="2"/>
<feComposite in2="hardAlpha" operator="out"/>
<feColorMatrix type="matrix" values="0 0 0 0 0 0 0 0 0 0 0 0 0 0 0 0 0 0 0.25 0"/>
<feBlend mode="normal" in2="BackgroundImageFix" result="effect1_dropShadow_137_754"/>
<feBlend mode="normal" in="SourceGraphic" in2="effect1_dropShadow_137_754" result="shape"/>
</filter>
<filter id="filter2_d_137_754" x="6.34033" y="13" width="33.3198" height="53" filterUnits="userSpaceOnUse" color-interpolation-filters="sRGB">
<feFlood flood-opacity="0" result="BackgroundImageFix"/>
<feColorMatrix in="SourceAlpha" type="matrix" values="0 0 0 0 0 0 0 0 0 0 0 0 0 0 0 0 0 0 127 0" result="hardAlpha"/>
<feOffset dy="4"/>
<feGaussianBlur stdDeviation="2"/>
<feComposite in2="hardAlpha" operator="out"/>
<feColorMatrix type="matrix" values="0 0 0 0 0 0 0 0 0 0 0 0 0 0 0 0 0 0 0.25 0"/>
<feBlend mode="normal" in2="BackgroundImageFix" result="effect1_dropShadow_137_754"/>
<feBlend mode="normal" in="SourceGraphic" in2="effect1_dropShadow_137_754" result="shape"/>
</filter>
</defs>
</svg>
