<svg width="60" height="40" viewBox="0 0 60 40" fill="none" xmlns="http://www.w3.org/2000/svg">
<path d="M0 1H60V39.6409H0V1Z" fill="black"/>
<path d="M0.285645 1.29126H59.7032V39.3497H0.285645V1.29126Z" fill="#1C346F"/>
<path d="M54.9268 24.223C54.9268 24.0839 54.982 23.9506 55.0803 23.8523C55.1786 23.754 55.3119 23.6987 55.451 23.6987C55.59 23.6987 55.7233 23.754 55.8217 23.8523C55.92 23.9506 55.9752 24.0839 55.9752 24.223C55.9752 24.362 55.92 24.4953 55.8217 24.5936C55.7233 24.6919 55.59 24.7472 55.451 24.7472C55.3119 24.7472 55.1786 24.6919 55.0803 24.5936C54.982 24.4953 54.9268 24.362 54.9268 24.223V24.223ZM55.451 24.619C55.6723 24.619 55.8471 24.4443 55.8471 24.223C55.8471 24.0016 55.6723 23.8269 55.451 23.8269C55.2296 23.8269 55.0549 24.0074 55.0549 24.223C55.0549 24.4385 55.2355 24.619 55.451 24.619ZM55.3811 24.4501H55.2762V23.99H55.4684C55.5092 23.99 55.55 23.99 55.5849 24.0133C55.6257 24.0366 55.6432 24.0832 55.6432 24.1298C55.6444 24.1555 55.637 24.1808 55.6223 24.2019C55.6075 24.223 55.5862 24.2386 55.5616 24.2462L55.649 24.4501H55.5267L55.4568 24.2695H55.3811V24.4501ZM55.3811 24.188H55.4393L55.5034 24.1822C55.5209 24.1705 55.5267 24.1472 55.5267 24.1298C55.5267 24.1123 55.515 24.0948 55.5034 24.0832C55.4859 24.0715 55.4568 24.0773 55.4335 24.0773H55.3753V24.188H55.3811Z" fill="white"/>
<path d="M35.8682 17.944L35.9031 17.8974C35.8929 17.914 35.8812 17.9296 35.8682 17.944V17.944ZM36.2002 17.5247L36.2351 17.4839C36.225 17.4987 36.2133 17.5124 36.2002 17.5247V17.5247ZM36.0138 24.1648L35.8915 24.0483L36.0138 24.1648Z" fill="#E0912F"/>
<path d="M39.8351 22.7494C39.3766 23.0013 38.8665 23.1447 38.344 23.1688C37.3247 23.1688 36.7131 22.4174 36.7131 21.1768C36.7131 19.3711 37.6276 18.113 38.9381 18.113C39.4216 18.113 39.8817 18.2411 40.505 18.5557L40.7904 16.7791C40.6498 16.7217 40.5081 16.6673 40.3652 16.616L39.6429 16.4355C39.033 16.2915 38.3958 16.3127 37.7968 16.497C37.1979 16.6813 36.6589 17.022 36.2355 17.4839L36.2005 17.5247C36.0819 17.656 35.971 17.7941 35.8685 17.9382C35.2109 18.9396 34.8774 20.1191 34.9133 21.3166C34.9133 21.9573 35.0298 22.5164 35.2161 22.9999C35.3652 23.3913 35.5955 23.7466 35.8918 24.0425L36.0141 24.159C36.0957 24.2289 36.1714 24.2988 36.2529 24.357C36.3802 24.4409 36.5124 24.5167 36.649 24.5842L36.8296 24.6483C36.949 24.6958 37.0716 24.7348 37.1965 24.7648L37.3713 24.8055C37.7663 24.8709 38.1691 24.8749 38.5653 24.8172C38.7479 24.7963 38.9289 24.7632 39.107 24.7182L39.5148 24.6192L39.8351 22.7494V22.7494Z" fill="white"/>
<path d="M34.4588 20.5709H34.3365C34.0394 20.5593 33.7948 20.5709 33.5385 20.8156C33.3113 21.5029 33.1191 22.6911 32.8104 24.7065H31.0514L32.1173 18.0489H33.7016L33.5443 19.0565C34.0802 18.2702 34.4064 17.9731 34.983 17.9731C35.0471 17.9731 35.1053 17.979 35.1578 17.9906L35.2218 18.0023C35.1697 17.6847 35.1115 17.3682 35.0471 17.0528H25.1684C25.2907 16.4704 25.448 15.8996 25.6344 15.3462H34.5811C34.3863 14.765 34.1588 14.1952 33.8996 13.6396H26.3217C26.4557 13.3483 26.6013 13.0629 26.7528 12.7892L26.7702 12.7542C26.9201 12.474 27.0814 12.2 27.2537 11.9329H32.9677C32.5953 11.3382 32.1847 10.7681 31.7387 10.2263H28.4827L28.4885 10.2205C28.7157 9.95256 28.9487 9.68462 29.1875 9.42834L29.3389 9.27107C29.5894 9.01479 29.8456 8.7585 30.1078 8.51969C27.792 6.42265 24.9173 5.04277 21.8327 4.5475C18.748 4.05222 15.5859 4.46284 12.73 5.72951C9.87417 6.99619 7.4473 9.06448 5.7439 11.6834C4.0405 14.3024 3.13379 17.3594 3.13379 20.4836C3.13379 23.6078 4.0405 26.6648 5.7439 29.2837C7.4473 31.9027 9.87417 33.971 12.73 35.2376C15.5859 36.5043 18.748 36.9149 21.8327 36.4197C24.9173 35.9244 27.792 34.5445 30.1078 32.4475C30.6902 31.9174 31.2377 31.3466 31.7387 30.735H28.4827C28.0366 30.1946 27.628 29.6244 27.2595 29.0284H32.9735C33.3172 28.4809 33.6259 27.91 33.9054 27.3218H26.3275C26.1977 27.0483 26.0773 26.7705 25.9664 26.4888L25.9606 26.4772C25.8452 26.1931 25.7384 25.9056 25.6402 25.6151H34.5869C34.75 25.1258 34.8898 24.6191 35.0063 24.1065C34.5756 23.4332 34.3584 22.6455 34.3831 21.8466C34.3771 21.4201 34.4025 20.9937 34.4588 20.5709V20.5709Z" fill="#CF4044"/>
<path d="M37.4989 25.3704C38.0241 25.3649 38.5458 25.2844 39.0483 25.1316L39.1182 24.718C38.7447 24.8104 38.3613 24.8574 37.9766 24.8578C37.3791 24.8834 36.7891 24.7175 36.2925 24.3843C35.7958 24.0511 35.4186 23.5681 35.2157 23.0056C35.0085 22.4688 34.9057 21.8975 34.9128 21.3222C34.9128 20.4369 35.0642 19.6331 35.338 18.9458C35.6005 18.2423 36.0398 17.6185 36.6136 17.1343C36.567 17.1576 36.5204 17.1692 36.4796 17.1983C36.0906 17.4362 35.7392 17.7306 35.437 18.0721L35.2273 18.008V18.0138C34.9361 18.5497 34.7206 19.138 34.5633 19.9418L34.4351 19.9301C34.3827 19.9301 34.3303 19.9301 34.2837 19.9418H34.2721C34.2305 19.9481 34.1896 19.9578 34.1497 19.9709L34.0274 20.0233C33.9925 20.0466 33.9517 20.0699 33.9168 20.1049V20.1107C33.8794 20.1434 33.8461 20.1806 33.8177 20.2214V20.2272C33.7828 20.268 33.7537 20.3204 33.7245 20.3728L33.7187 20.3903C33.687 20.4463 33.6597 20.5047 33.6372 20.565L33.6255 20.6L33.5498 20.8038C33.8061 20.565 34.0507 20.5534 34.3478 20.5592H34.4701C34.4147 20.9782 34.3875 21.4005 34.3886 21.8231C34.3886 22.7376 34.6215 23.4948 35.0118 24.0831C35.5418 24.9044 36.4097 25.3704 37.4989 25.3704V25.3704Z" fill="#1B326C"/>
<path d="M34.4355 19.9302C34.3831 19.9302 34.3307 19.9302 34.2841 19.9418C34.3343 19.9348 34.3849 19.9309 34.4355 19.9302V19.9302ZM34.1443 19.9709L34.022 20.0234C34.0618 20.0038 34.1027 19.9863 34.1443 19.9709V19.9709ZM33.6084 20.6058L33.5327 20.8097C33.5525 20.7398 33.5778 20.6717 33.6084 20.6058V20.6058ZM33.8006 20.2331C33.7657 20.2738 33.7366 20.3263 33.7074 20.3787L33.8006 20.2331Z" fill="#CF4044"/>
<path d="M24.6268 20.2447H25.2675L25.3491 19.6681H24.72L24.6268 20.2447ZM22.4251 23.3784C22.4251 23.192 22.4425 22.9939 22.4775 22.7784L23.3395 17.5712H22.9784L22.1804 22.3416L22.1921 22.5862C22.1921 22.9939 22.128 23.3434 21.9999 23.6347C21.994 23.7162 21.9766 23.8094 21.9766 23.8851C21.9766 24.8345 22.4833 25.3471 23.3046 25.3471C23.7123 25.3471 24.0851 25.283 24.6268 25.1258L24.6967 24.7064C24.4095 24.7826 24.1142 24.8237 23.8172 24.8287C22.9143 24.8404 22.4251 24.322 22.4251 23.3784V23.3784ZM28.6225 19.4059C28.209 19.4059 27.8828 19.6448 27.6731 20.0816C27.8198 19.9787 27.9948 19.9238 28.174 19.9243C28.6284 19.9243 28.9079 20.1748 28.972 20.6058H29.4322L29.4438 20.268C29.4496 19.7205 29.1467 19.4059 28.6225 19.4059ZM25.6461 21.8523C25.6461 20.8679 25.9024 20.0059 26.316 19.3244C25.5969 20.1709 25.219 21.2548 25.2559 22.3649C25.2559 24.322 26.3567 25.3471 28.2381 25.3471C28.8497 25.3471 29.4322 25.2597 30.0321 25.0792L30.1136 24.6307C29.6292 24.7605 29.1299 24.8271 28.6283 24.8287C26.6713 24.8287 25.6461 23.8094 25.6461 21.8523V21.8523Z" fill="#1B326C"/>
<path d="M40.9417 4.33754C38.7754 4.33447 36.6309 4.76942 34.637 5.61623C32.6431 6.46304 30.8409 7.70423 29.3389 9.26522L29.1875 9.42248C28.9437 9.67682 28.7105 9.94109 28.4885 10.2146V10.2205H31.7445C32.193 10.7622 32.6007 11.333 32.9735 11.9271H27.2595C27.0894 12.1955 26.9281 12.4694 26.7761 12.7484L26.7586 12.7833C26.6068 13.0626 26.4631 13.3462 26.3276 13.6337H33.9055C34.1618 14.1871 34.3889 14.7579 34.587 15.3404H25.6344C25.4465 15.8998 25.2909 16.4696 25.1685 17.047H35.0529C35.1228 17.3615 35.1753 17.6761 35.2277 18.0022L35.4374 18.0663C35.7396 17.7249 36.091 17.4304 36.48 17.1926C36.5266 17.1635 36.5732 17.1518 36.614 17.1285C37.0323 16.7892 37.5228 16.5503 38.0479 16.4301C38.5729 16.31 39.1185 16.3118 39.6428 16.4354L40.3592 16.616L40.7844 16.7791L40.499 18.5556C40.0213 18.2809 39.483 18.1289 38.9322 18.1129C37.6216 18.1129 36.7071 19.3769 36.7071 21.1767C36.7071 22.4173 37.3187 23.1687 38.3381 23.1687C38.8606 23.1446 39.3707 23.0012 39.8292 22.7493L39.5205 24.6132L39.1127 24.7123L39.0428 25.1258C38.5405 25.2795 38.0187 25.3599 37.4935 25.3646C37.0027 25.3829 36.5155 25.2753 36.0781 25.052C35.6407 24.8287 35.2677 24.4972 34.9947 24.089C34.8769 24.5977 34.737 25.1011 34.5753 25.5976H25.6344C25.8256 26.1792 26.0552 26.7474 26.3217 27.2984H33.8997C33.6248 27.8861 33.3135 28.4561 32.9677 29.0051H27.2537C27.6265 29.605 28.0342 30.17 28.4769 30.7117H31.7329C31.2302 31.3202 30.6852 31.8924 30.102 32.4241C32.4169 34.5239 35.2918 35.906 38.3773 36.4028C41.4629 36.8995 44.6263 36.4894 47.4833 35.2223C50.3402 33.9551 52.7675 31.8855 54.4705 29.2649C56.1734 26.6443 57.0786 23.5856 57.076 20.4603C57.0768 18.3418 56.6599 16.244 55.8492 14.2868C55.0385 12.3296 53.8499 10.5514 52.3514 9.05394C50.8529 7.55651 49.0739 6.36919 47.1161 5.5599C45.1583 4.75062 43.0601 4.33524 40.9417 4.33754V4.33754Z" fill="#E0912F"/>
<path d="M52.0376 19.5865C51.6183 19.5865 51.2688 19.8428 51.0241 20.2797C51.1896 20.1632 51.3868 20.1002 51.5891 20.0991C52.1949 20.0991 52.5152 20.5593 52.5152 21.4038C52.5312 21.9378 52.4109 22.467 52.1658 22.9416C52.6492 22.6037 52.9638 21.8523 52.9638 20.8854C52.9638 20.0467 52.6434 19.5865 52.0376 19.5865V19.5865ZM46.4576 18.5614H46.0965L45.0247 25.2248H46.7779L46.8653 24.7064H45.4732L46.4576 18.5614ZM41.7862 22.394C42.0811 22.2713 42.399 22.2137 42.7181 22.2251C42.8405 22.2251 42.8754 22.2309 43.0618 22.2484C43.0615 22.6008 42.9902 22.9494 42.8521 23.2736C43.2948 23.0348 43.586 22.4698 43.6093 21.7359C43.4801 21.7166 43.3497 21.7069 43.2191 21.7067C42.4094 21.7126 41.9318 21.9455 41.7862 22.394V22.394ZM43.4695 24.0191C43.25 24.2897 42.9689 24.5039 42.6497 24.6438C42.3305 24.7836 41.9825 24.845 41.6347 24.8229C40.6853 24.8229 40.0388 24.0832 40.0388 23.0056C40.0263 22.5048 40.1643 22.0118 40.4349 21.5902C40.0227 21.9045 39.7308 22.3507 39.6078 22.8542L39.8349 22.7552L39.6078 24.1181C39.6948 24.4585 39.8902 24.7613 40.1644 24.9809C40.4386 25.2005 40.7768 25.325 41.128 25.3355C42.0599 25.3355 42.5842 25.0501 42.9628 24.5317L42.9337 25.2248H44.4481L44.5063 24.7064H43.4346L43.4695 24.0191V24.0191ZM43.8889 20.0525C43.8889 19.6098 43.586 19.4468 42.7647 19.4468C42.2734 19.4471 41.7841 19.5097 41.3086 19.6331L40.9125 19.7438L41.0872 18.6546C40.96 18.6856 40.8337 18.7206 40.7086 18.7594L40.464 20.2564L40.8135 20.1574C41.2859 20.0269 41.7737 19.9603 42.2638 19.9593C43.0152 19.9593 43.3763 20.0816 43.4346 20.4428C43.5651 20.4492 43.6953 20.4608 43.8248 20.4777C43.8658 20.3396 43.8873 20.1965 43.8889 20.0525V20.0525ZM17.8934 20.6874C17.8934 21.4796 18.2778 22.0737 19.2039 22.5105C19.9145 22.8425 20.0368 22.9066 20.0368 23.2095L20.0194 23.2794C20.3339 23.1978 20.4912 23.0289 20.4912 22.7435C20.4912 22.4406 20.3805 22.3416 19.6757 22.0096C18.7496 21.5728 18.3419 20.9961 18.3419 20.1515C18.3419 19.7147 18.4292 19.3128 18.6273 18.9633C18.256 19.2673 18.0128 19.6997 17.9458 20.1748C17.9225 20.3729 17.8992 20.5593 17.8934 20.6874V20.6874ZM20.1475 20.0176V20.035C20.2613 20.0037 20.3789 19.988 20.497 19.9884C20.8406 19.9826 21.3066 20.0176 21.8134 20.0875L21.9066 19.5283C21.6068 19.4939 21.3055 19.4744 21.0037 19.4701C20.4329 19.4701 20.1475 19.6564 20.1475 20.0176V20.0176ZM18.5283 24.7589C18.3758 24.7488 18.224 24.7294 18.0739 24.7006L17.6778 24.6191L17.8176 23.6988C17.6895 23.6696 17.5672 23.6463 17.4332 23.5997L17.2818 24.7064H17.2585L17.2061 25.1258L17.241 25.1316L17.5614 25.1957C17.7135 25.2265 17.8671 25.2499 18.0215 25.2656C18.4351 25.3006 18.7904 25.3239 19.0117 25.3239C20.3281 25.3239 21.1086 24.9744 21.4872 24.2987C21.0445 24.6424 20.3863 24.8113 19.4893 24.8113C19.268 24.8113 18.9476 24.7938 18.5283 24.7589V24.7589Z" fill="#1B326C"/>
<path d="M27.3531 22.1553C27.3531 22.266 27.3647 22.365 27.388 22.464H30.4635L30.5683 21.9514H27.3706L27.3531 22.1553ZM7.36279 18.4508L6.9667 20.8273L7.07155 25.2249H8.2656L8.44617 24.7065H7.51422L7.36279 18.4508ZM10.1586 17.0354H9.82663L8.61509 20.6351L8.63257 21.5903L10.1586 17.0354ZM10.9508 18.4158L10.2868 20.2681L9.50045 25.2249H11.2478L11.3352 24.7065H9.94311L10.9508 18.4158ZM5.95321 17.0354H5.53383L4.16504 25.2249H5.86584L5.95321 24.7065H4.67179L5.95321 17.0354ZM16.292 20.0526C16.292 19.6099 15.9833 19.4468 15.1679 19.4468C14.6765 19.4472 14.1872 19.5098 13.7117 19.6332L13.3098 19.7439L13.4903 18.6547C13.3631 18.6857 13.2368 18.7206 13.1117 18.7595L12.8671 20.2564L13.2108 20.1574C13.6832 20.0269 14.171 19.9603 14.6611 19.9594C15.4125 19.9594 15.7794 20.0817 15.8319 20.4428C15.9624 20.4492 16.0926 20.4609 16.2221 20.4778C16.2643 20.3398 16.2878 20.1968 16.292 20.0526V20.0526ZM14.1777 22.3941C14.4744 22.2709 14.7943 22.2133 15.1154 22.2252C15.2377 22.2252 15.2785 22.231 15.4591 22.2485C15.4588 22.6008 15.3875 22.9495 15.2494 23.2736C15.6921 23.0348 15.9833 22.4698 16.0066 21.7359C15.8774 21.7165 15.747 21.7068 15.6164 21.7068C14.8067 21.7126 14.3291 21.9456 14.1777 22.3941V22.3941ZM15.8668 24.0192C15.6466 24.2891 15.3654 24.5027 15.0464 24.6425C14.7274 24.7823 14.3797 24.8441 14.032 24.823C13.0826 24.823 12.4302 24.0833 12.4302 23.0057C12.4178 22.5049 12.5557 22.0119 12.8263 21.5903C12.4731 21.8534 12.2171 22.2262 12.0982 22.6504C12.0181 22.9329 11.9751 23.2246 11.9701 23.5183C11.9701 24.5958 12.6807 25.3356 13.5311 25.3356C14.4631 25.3356 14.9815 25.0502 15.3659 24.5318L15.3309 25.2249H16.8454L16.9094 24.7065H15.8377L15.8668 24.0192V24.0192ZM37.2842 19.0449C37.6167 18.7744 38.0321 18.6263 38.4607 18.6255C38.9442 18.6255 39.4043 18.7537 40.0276 19.0682L40.1382 18.3867C39.7621 18.2117 39.3532 18.1184 38.9384 18.113C38.6063 18.1157 38.2804 18.2026 37.9911 18.3656C37.7018 18.5286 37.4585 18.7623 37.2842 19.0449V19.0449ZM32.0361 18.5615H31.6692L30.6032 25.2249H32.3565L32.4438 24.7065H31.0517L32.0361 18.5615ZM52.5914 24.0541C52.3928 24.2893 52.1447 24.4776 51.8647 24.6055C51.5847 24.7334 51.2799 24.7977 50.9721 24.7939C49.6965 24.7939 48.8578 23.693 48.8578 22.0271C48.8578 20.7632 49.283 19.6157 49.9354 18.8643C49.5338 19.1451 49.2061 19.5188 48.9801 19.9536L48.9859 19.9419L48.8578 19.9303C48.3918 19.9303 48.1355 20.1458 47.8909 21.0253C47.9817 21.5499 48.1444 22.0595 48.3743 22.5397C48.3743 24.2056 49.2422 25.3064 50.5178 25.3064C51.1585 25.3064 51.6536 25.0793 52.1371 24.5667L52.0497 25.2191H53.7039L53.7913 24.7007H52.4982L52.5914 24.0541V24.0541ZM53.6806 17.0354H53.2612L53.0283 18.4683C53.1582 18.5874 53.2771 18.718 53.3836 18.8585L53.6806 17.0354Z" fill="#1B326C"/>
<path d="M54.9267 29.471C54.919 29.3979 54.9267 29.324 54.9494 29.2541C54.9721 29.1842 55.0092 29.1198 55.0583 29.0652C55.1075 29.0106 55.1676 28.9669 55.2347 28.937C55.3019 28.9071 55.3745 28.8916 55.448 28.8916C55.5215 28.8916 55.5942 28.9071 55.6614 28.937C55.7285 28.9669 55.7886 29.0106 55.8377 29.0652C55.8869 29.1198 55.924 29.1842 55.9467 29.2541C55.9694 29.324 55.9771 29.3979 55.9694 29.471C55.9557 29.5998 55.8949 29.7189 55.7987 29.8055C55.7024 29.8921 55.5775 29.94 55.448 29.94C55.3186 29.94 55.1937 29.8921 55.0974 29.8055C55.0012 29.7189 54.9404 29.5998 54.9267 29.471V29.471ZM55.451 29.8729C55.5552 29.8729 55.6552 29.8315 55.729 29.7577C55.8027 29.684 55.8441 29.584 55.8441 29.4797C55.8441 29.3755 55.8027 29.2755 55.729 29.2017C55.6552 29.128 55.5552 29.0866 55.451 29.0866C55.3992 29.0858 55.3478 29.0953 55.2998 29.1146C55.2518 29.1339 55.2081 29.1625 55.1712 29.1988C55.1344 29.2351 55.1051 29.2784 55.0851 29.3261C55.0652 29.3739 55.0549 29.4251 55.0549 29.4768C55.0549 29.6923 55.2354 29.8729 55.451 29.8729ZM55.3811 29.704H55.2762V29.2438H55.4684C55.5092 29.2438 55.55 29.2438 55.5849 29.2671C55.6257 29.2904 55.6432 29.337 55.6432 29.3836C55.6432 29.4361 55.614 29.4885 55.5616 29.506L55.649 29.7098H55.5267L55.4568 29.5234H55.3811V29.704V29.704ZM55.3811 29.4419H55.4393C55.4626 29.4419 55.4859 29.4419 55.5034 29.4302C55.5209 29.4244 55.5267 29.4011 55.5267 29.3778C55.5267 29.3603 55.515 29.3429 55.5034 29.3312C55.4859 29.3196 55.4568 29.3254 55.4335 29.3254H55.3752V29.4419H55.3811Z" fill="#E0912F"/>
<path d="M34.9888 17.9789C34.4122 17.9789 34.086 18.2759 33.5501 19.0623L33.7016 18.0546H32.1173L31.0513 24.7064H32.8046C33.1133 22.6852 33.3113 21.497 33.5327 20.8155C33.5534 20.746 33.5787 20.6778 33.6084 20.6116L33.62 20.5767C33.6426 20.5164 33.6698 20.4579 33.7016 20.4019L33.7074 20.3903C33.7423 20.332 33.7715 20.2796 33.8064 20.2388V20.233C33.8348 20.1923 33.8681 20.1551 33.9054 20.1224V20.1165C33.9409 20.0875 33.9779 20.0603 34.0161 20.035C34.0511 20.0175 34.0918 19.9942 34.1384 19.9826L34.2608 19.9534H34.2724C34.3651 19.9409 34.4589 19.9389 34.552 19.9476C34.6712 19.2724 34.8953 18.6199 35.216 18.0138L35.1519 18.0022C35.0994 17.9847 35.0442 17.9768 34.9888 17.9789V17.9789ZM24.2307 22.7202C24.2307 22.6561 24.2423 22.5687 24.2598 22.4464L24.7199 19.668H25.6169L25.8616 18.0488H24.9704L25.1743 17.0586H23.4327L22.4774 22.7842C22.4434 22.9824 22.4259 23.1831 22.425 23.3842C22.425 24.3278 22.9143 24.8462 23.8055 24.8462C24.0967 24.8462 24.3821 24.7996 24.685 24.7239C24.8073 24.6947 24.9238 24.6714 25.0636 24.6307L25.2966 23.157C25.1439 23.2041 24.9845 23.2258 24.8248 23.2211C24.4112 23.2153 24.2307 23.0638 24.2307 22.7202V22.7202ZM20.963 20.7398C20.2466 20.4078 20.1476 20.3262 20.1476 20.035V20.0175C20.1476 19.6564 20.4388 19.47 20.998 19.47C21.3474 19.47 21.8134 19.5049 22.2561 19.5748L22.5066 18.0313C21.9975 17.9532 21.4838 17.9104 20.9688 17.9032C19.0117 17.9032 18.3302 18.9283 18.3361 20.1515C18.3361 20.9961 18.7438 21.5727 19.6699 22.0096C20.3805 22.3416 20.4854 22.4406 20.4854 22.7435C20.4854 23.0289 20.3281 23.1978 20.0136 23.2793C19.8402 23.3222 19.6622 23.3437 19.4835 23.3434C18.9489 23.3383 18.4183 23.2499 17.9109 23.0813L17.6721 24.619L18.0681 24.7006C18.5387 24.7716 19.0135 24.8105 19.4894 24.817C21.33 24.817 22.1862 24.1123 22.1862 22.5978C22.192 21.6775 21.8367 21.1417 20.963 20.7398V20.7398ZM55.4975 16.5227H53.7676L53.3832 18.8584C52.9055 18.2293 52.3871 17.9498 51.7057 17.9498C50.1563 17.9498 48.8516 19.8136 48.8516 22.0329C48.8516 23.6987 49.6961 24.7996 50.9659 24.7996C51.6066 24.7996 52.1017 24.5724 52.5852 24.0598L52.5036 24.7064H54.1637L55.4975 16.5227V16.5227ZM51.5775 23.1395C50.9776 23.1395 50.6747 22.6969 50.6747 21.8232C50.6747 20.5126 51.2397 19.5865 52.0377 19.5865C52.6434 19.5865 52.9638 20.0466 52.9638 20.8912C52.9638 22.2134 52.393 23.1395 51.5775 23.1395V23.1395ZM30.7135 22.9007C30.1474 23.1765 29.526 23.3199 28.8962 23.3201C27.8769 23.3201 27.3585 22.924 27.3585 22.1552L27.376 21.9455H30.8591C30.9937 21.408 31.066 20.8569 31.0746 20.3029C31.0746 18.8235 30.1543 17.8799 28.7098 17.8799C28.22 17.8897 27.7414 18.0285 27.3222 18.282C26.9029 18.5356 26.5579 18.8951 26.3217 19.3244C25.8699 20.0892 25.6381 20.964 25.6519 21.8523C25.6519 23.8094 26.677 24.8345 28.6341 24.8345C29.1409 24.8345 29.6243 24.7588 30.1194 24.6365C30.2242 24.6132 30.3233 24.6015 30.4281 24.5666L30.7135 22.9007V22.9007ZM29.4379 20.6H27.5041C27.6672 19.8311 28.0633 19.4059 28.6225 19.4059C29.1409 19.4059 29.4496 19.7263 29.4496 20.2621L29.4379 20.6V20.6ZM13.0531 16.5227H10.333L8.63217 21.5902L8.55645 16.5227H6.04018L4.67139 24.7064H6.31394L7.36239 18.4507L7.51382 24.7064H8.70788L10.9504 18.4157L9.94271 24.7064H11.6959L13.0531 16.5227ZM17.4391 23.5356C17.4391 23.5356 17.8526 20.8796 17.9051 20.4951C17.9342 20.2796 17.9458 20.0699 17.9516 19.8602C17.9516 18.5846 17.1537 17.909 15.6509 17.909C15.0044 17.909 14.4277 18.008 13.554 18.2643L13.3094 19.7612L13.7113 19.6389C14.1862 19.5122 14.6759 19.4496 15.1675 19.4525C15.9829 19.4525 16.2916 19.6156 16.2916 20.0583C16.2901 20.2047 16.2666 20.35 16.2217 20.4893C15.9837 20.4623 15.7447 20.4449 15.5053 20.4369C14.2297 20.4369 13.3152 20.8504 12.8259 21.5902C12.5576 22.0128 12.4198 22.5051 12.4299 23.0056C12.4299 24.0831 13.0822 24.8229 14.0316 24.8229C14.3794 24.845 14.7274 24.7835 15.0466 24.6437C15.3658 24.5039 15.6469 24.2897 15.8664 24.0191L15.8315 24.7064H17.2818L17.4391 23.5356V23.5356ZM14.7539 23.4016C14.3695 23.4016 14.1248 23.1395 14.1248 22.726C14.1248 22.0503 14.6258 21.7125 15.616 21.7125C15.7466 21.7125 15.877 21.7222 16.0062 21.7416C15.9829 22.726 15.4645 23.4016 14.7539 23.4016ZM45.4092 21.1708C45.5257 20.4311 45.549 20.1806 45.549 19.8486C45.549 18.573 44.751 17.8973 43.2482 17.8973C42.6017 17.8973 42.025 17.9963 41.1513 18.2526L40.9067 19.7496L41.3086 19.6389C41.7836 19.5127 42.2733 19.45 42.7648 19.4525C43.5861 19.4525 43.8889 19.6156 43.8889 20.0583C43.8874 20.2047 43.8639 20.35 43.819 20.4893C43.583 20.4624 43.3459 20.4449 43.1084 20.4369C41.8328 20.4369 40.9184 20.8504 40.4291 21.5902C40.1585 22.0117 40.0205 22.5048 40.033 23.0056C40.033 24.0831 40.6854 24.8229 41.629 24.8229C41.9767 24.845 42.3247 24.7835 42.6439 24.6437C42.9631 24.5039 43.2442 24.2897 43.4637 24.0191L43.4346 24.7064H44.885L45.0422 23.5356L45.4092 21.1708ZM42.3512 23.4016C41.9726 23.4016 41.728 23.1395 41.728 22.726C41.728 22.0561 42.2289 21.7125 43.2249 21.7125C43.3472 21.7125 43.4288 21.7183 43.6152 21.7416C43.5802 22.726 43.0677 23.4016 42.3512 23.4016V23.4016ZM48.8574 19.9301C48.8983 19.9296 48.9391 19.9315 48.9797 19.936C49.137 19.1322 49.3467 18.5439 49.6437 18.0022L49.5855 17.9905C49.528 17.9786 49.4694 17.9728 49.4107 17.9731C48.8341 17.9731 48.5079 18.2701 47.972 19.0564L48.1235 18.0488H46.5392L45.4733 24.7064H47.2265C47.8555 20.6349 48.0186 19.9301 48.8574 19.9301V19.9301Z" fill="white"/>
</svg>
