<svg width="395" height="41" viewBox="0 0 395 41" fill="none" xmlns="http://www.w3.org/2000/svg">
<path d="M67.0771 0.00366211H129.176V39.9963H67.0771V0.00366211Z" fill="black"/>
<path d="M67.3726 0.305054H128.869V39.6949H67.3726V0.305054Z" fill="#1C346F"/>
<path d="M109.451 3.4579C107.209 3.45473 104.989 3.90489 102.926 4.78132C100.862 5.65775 98.9969 6.94237 97.4423 8.55796L97.2856 8.72073C97.0333 8.98396 96.792 9.25748 96.5622 9.5406V9.54663H99.9321C100.396 10.1073 100.818 10.6981 101.204 11.313H95.2902C95.1141 11.5907 94.9472 11.8742 94.7898 12.163L94.7717 12.1991C94.6147 12.4882 94.4659 12.7817 94.3256 13.0793H102.169C102.434 13.652 102.669 14.2428 102.874 14.8456H93.6083C93.4137 15.4247 93.2527 16.0144 93.126 16.612H103.356C103.429 16.9375 103.483 17.263 103.537 17.6006L103.754 17.6669C104.067 17.3136 104.431 17.0088 104.833 16.7627C104.881 16.7325 104.93 16.7205 104.972 16.6964C105.405 16.3452 105.913 16.0979 106.456 15.9735C106.999 15.8492 107.564 15.851 108.107 15.979L108.848 16.1659L109.288 16.3347L108.993 18.1733C108.498 17.8891 107.941 17.7317 107.371 17.7152C106.015 17.7152 105.068 19.0233 105.068 20.8861C105.068 22.1702 105.701 22.9479 106.756 22.9479C107.297 22.9229 107.825 22.7744 108.3 22.5138L107.98 24.4429L107.558 24.5454L107.486 24.9734C106.966 25.1325 106.426 25.2157 105.882 25.2206C105.374 25.2395 104.87 25.1281 104.417 24.897C103.965 24.6659 103.579 24.3228 103.296 23.9004C103.174 24.4269 103.029 24.9478 102.862 25.4617H93.6083C93.8061 26.0636 94.0437 26.6517 94.3196 27.222H102.163C101.878 27.8303 101.556 28.4202 101.198 28.9884H95.2842C95.67 29.6093 96.092 30.194 96.5501 30.7547H99.92C99.3998 31.3845 98.8357 31.9767 98.2321 32.5271C100.628 34.7002 103.603 36.1308 106.797 36.6449C109.99 37.159 113.265 36.7345 116.221 35.4231C119.178 34.1116 121.691 31.9696 123.453 29.2573C125.216 26.5451 126.152 23.3793 126.15 20.1446C126.151 17.9521 125.719 15.7808 124.88 13.7552C124.041 11.7295 122.811 9.88912 121.26 8.3393C119.709 6.78948 117.868 5.56062 115.841 4.72303C113.815 3.88543 111.644 3.45553 109.451 3.4579Z" fill="#E0912F"/>
<path d="M104.2 17.5405L104.236 17.4922C104.226 17.5094 104.214 17.5255 104.2 17.5405ZM104.544 17.1064L104.58 17.0642C104.569 17.0795 104.557 17.0937 104.544 17.1064ZM104.351 23.9788L104.224 23.8583L104.351 23.9788Z" fill="#E0912F"/>
<path d="M108.306 22.5139C107.831 22.7745 107.303 22.923 106.762 22.9479C105.707 22.9479 105.074 22.1703 105.074 20.8862C105.074 19.0174 106.021 17.7153 107.377 17.7153C107.878 17.7153 108.354 17.8479 108.999 18.1734L109.294 16.3347C109.149 16.2752 109.002 16.219 108.854 16.1659L108.107 15.9791C107.476 15.83 106.816 15.852 106.196 16.0428C105.576 16.2335 105.018 16.5861 104.58 17.0642L104.544 17.1064C104.421 17.2422 104.306 17.3852 104.2 17.5344C103.52 18.5708 103.175 19.7916 103.212 21.0309C103.212 21.694 103.332 22.2728 103.525 22.7731C103.679 23.1782 103.918 23.5459 104.224 23.8522L104.351 23.9728C104.435 24.0451 104.514 24.1175 104.598 24.1777C104.73 24.2645 104.867 24.343 105.008 24.4129L105.195 24.4792C105.319 24.5284 105.446 24.5687 105.575 24.5997L105.756 24.6419C106.165 24.7096 106.581 24.7137 106.992 24.654C107.18 24.6323 107.368 24.5981 107.552 24.5515L107.974 24.449L108.306 22.5139Z" fill="white"/>
<path d="M102.742 20.2592H102.615C102.308 20.2472 102.054 20.2592 101.789 20.5124C101.554 21.2238 101.355 22.4536 101.036 24.5394H99.215L100.318 17.6489H101.958L101.795 18.6918C102.35 17.878 102.687 17.5706 103.284 17.5706C103.351 17.5706 103.411 17.5766 103.465 17.5886L103.531 17.6007C103.477 17.272 103.417 16.9444 103.351 16.6181H93.1263C93.2529 16.0152 93.4156 15.4244 93.6086 14.8517H102.868C102.667 14.2501 102.431 13.6604 102.163 13.0854H94.3199C94.4586 12.784 94.6093 12.4886 94.766 12.2052L94.7841 12.1691C94.9392 11.879 95.1061 11.5955 95.2845 11.3191H101.198C100.813 10.7035 100.388 10.1134 99.9264 9.55273H96.5565L96.5625 9.5467C96.7976 9.26939 97.0387 8.99208 97.2859 8.72683L97.4426 8.56406C97.7019 8.29881 97.9671 8.03356 98.2384 7.78639C95.8416 5.61599 92.8664 4.18785 89.6738 3.67525C86.4813 3.16264 83.2085 3.58762 80.2528 4.89861C77.297 6.2096 74.7852 8.35025 73.0222 11.0608C71.2592 13.7714 70.3208 16.9353 70.3208 20.1688C70.3208 23.4023 71.2592 26.5662 73.0222 29.2768C74.7852 31.9874 77.297 34.128 80.2528 35.439C83.2085 36.75 86.4813 37.175 89.6738 36.6624C92.8664 36.1498 95.8416 34.7216 98.2384 32.5512C98.8412 32.0026 99.4079 31.4119 99.9264 30.7789H96.5565C96.0948 30.2196 95.6718 29.6294 95.2905 29.0125H101.204C101.56 28.4459 101.88 27.8551 102.169 27.2462H94.3259C94.1916 26.9632 94.0669 26.6757 93.9522 26.3841L93.9461 26.3721C93.8267 26.0781 93.7162 25.7805 93.6146 25.4799H102.874C103.043 24.9735 103.188 24.449 103.308 23.9185C102.863 23.2216 102.638 22.4063 102.663 21.5795C102.657 21.1381 102.683 20.6968 102.742 20.2592Z" fill="#CF4044"/>
<path d="M0.987305 0.106079H62.6402V39.7129H0.987305V0.106079Z" fill="black"/>
<path d="M62.0132 0.739136V39.0861H1.61426V0.739136H62.0132Z" fill="white"/>
<path d="M4.12207 28.3253H59.3969V36.4697H4.12207V28.3253Z" fill="#ECB73B"/>
<path d="M4.12207 3.29517H59.3969V11.4999H4.12207V3.29517ZM36.3923 13.3566C37.9236 13.4531 38.5987 13.4893 40.6002 14.5262C40.5821 14.5262 39.3945 16.4492 39.4307 16.4432C37.0796 14.924 34.5537 15.4606 34.4271 16.8652C34.3366 18.3964 38.6952 19.5298 38.7374 21.8748C38.7675 25.305 35.7533 26.5228 32.938 26.5107C30.9969 26.5228 30.3217 26.4685 28.7302 25.4437C28.7362 25.4196 29.532 23.183 29.5259 23.0986C30.0564 23.3699 31.4189 24.3585 32.8235 24.3766C34.6079 24.3827 35.3072 23.4663 35.2771 22.7791C35.271 21.2599 30.8823 20.5546 30.9667 17.7212C30.9908 15.0386 33.7157 13.23 36.3923 13.3566ZM18.1322 13.7907C18.1563 13.7967 18.4095 22.3692 18.3974 22.3631C18.4095 22.3692 23.3046 13.7967 23.2925 13.7907H26.1199C26.1621 13.7967 18.4396 26.36 18.3974 26.354H15.0999L14.7804 15.756C14.7442 15.0747 14.2016 14.1343 12.5438 14.0017C12.5317 13.9354 12.5619 13.7967 12.5438 13.7907H18.1322ZM27.1266 13.7907H30.6412L26.6986 26.354H23.184L27.1266 13.7907ZM50.1311 15.8102C50.2648 15.8127 50.3976 15.7881 50.5216 15.7381C50.6456 15.6881 50.7582 15.6136 50.8528 15.519C50.9473 15.4245 51.0218 15.3119 51.0718 15.1879C51.1219 15.0639 51.1464 14.9311 51.1439 14.7974C51.1473 14.6638 51.1233 14.5309 51.0735 14.4068C51.0237 14.2828 50.9492 14.1702 50.8543 14.076C50.7595 13.9817 50.6465 13.9078 50.5222 13.8588C50.3978 13.8097 50.2648 13.7865 50.1311 13.7907C49.9975 13.7865 49.8645 13.8097 49.7401 13.8588C49.6158 13.9078 49.5028 13.9817 49.4079 14.076C49.3131 14.1702 49.2386 14.2828 49.1888 14.4068C49.139 14.5309 49.115 14.6638 49.1184 14.7974C49.1159 14.9311 49.1404 15.0639 49.1905 15.1879C49.2405 15.3119 49.315 15.4245 49.4095 15.519C49.5041 15.6136 49.6167 15.6881 49.7407 15.7381C49.8647 15.7881 49.9975 15.8127 50.1311 15.8102ZM50.1311 15.5932C50.0293 15.5917 49.9288 15.5697 49.8356 15.5286C49.7424 15.4875 49.6585 15.428 49.5887 15.3538C49.519 15.2795 49.4649 15.192 49.4296 15.0964C49.3944 15.0009 49.3788 14.8992 49.3836 14.7974C49.3836 14.3332 49.6911 14.0137 50.1311 14.0017C50.5712 14.0137 50.8847 14.3393 50.8787 14.7974C50.8844 14.8994 50.8693 15.0014 50.8344 15.0974C50.7995 15.1933 50.7454 15.2812 50.6755 15.3556C50.6056 15.43 50.5213 15.4894 50.4277 15.5303C50.3342 15.5711 50.2332 15.5925 50.1311 15.5932ZM50.3964 14.9059C50.5712 14.8698 50.6797 14.7914 50.6617 14.5864C50.6737 14.3272 50.5351 14.2488 50.2336 14.2669H49.7031V15.334H49.9684V14.9059H50.1251L50.3904 15.334H50.6556L50.3964 14.9059ZM49.9744 14.695V14.4237H50.1854C50.306 14.4176 50.4627 14.4056 50.4506 14.5322C50.4627 14.695 50.3783 14.7251 50.2397 14.695H49.9744ZM57.4798 35.8307C57.6168 35.8284 57.7519 35.7988 57.8773 35.7437C58.0026 35.6885 58.1158 35.609 58.2101 35.5096C58.3044 35.4103 58.3779 35.2932 58.4264 35.1651C58.4749 35.037 58.4974 34.9005 58.4926 34.7636C58.4926 34.6309 58.4664 34.4995 58.4154 34.377C58.3644 34.2544 58.2897 34.1432 58.1956 34.0496C58.1015 33.9561 57.9898 33.882 57.8669 33.8318C57.7441 33.7815 57.6125 33.7561 57.4798 33.7569C57.2127 33.7585 56.957 33.8648 56.7675 34.0531C56.5781 34.2414 56.4702 34.4966 56.467 34.7636C56.4606 35.0392 56.5635 35.3062 56.7532 35.5062C56.943 35.7061 57.2043 35.8228 57.4798 35.8307ZM57.4798 35.5654C57.0397 35.5715 56.7323 35.2459 56.7323 34.7636C56.7323 34.3356 57.0337 34.0101 57.4798 34.0221C57.5791 34.0161 57.6785 34.031 57.7715 34.066C57.8646 34.1011 57.9491 34.1554 58.0197 34.2254C58.0903 34.2954 58.1453 34.3796 58.1811 34.4723C58.2169 34.5651 58.2326 34.6644 58.2273 34.7636C58.2394 35.2459 57.9199 35.5715 57.4798 35.5654ZM57.7451 34.8722C57.9199 34.8661 58.0284 34.7817 58.0103 34.5526C58.0224 34.3175 57.8837 34.2392 57.5823 34.2331H57.0518V35.3544H57.3171V34.8722H57.4738L57.739 35.3544H58.0043L57.7451 34.8722ZM57.3231 34.7094V34.3959H57.5341C57.6546 34.414 57.8114 34.4019 57.7993 34.5526C57.8114 34.6853 57.727 34.7154 57.5823 34.7094H57.3231ZM48.2684 13.7907C48.2804 13.857 49.3595 26.36 49.3354 26.354H45.9233L45.7063 23.5869H41.8722C41.8541 23.5869 40.4917 26.36 40.4917 26.354H37.6161L44.8563 13.7907H48.2684ZM45.2843 17.2992C45.2783 17.2992 45.6219 21.8266 45.6038 21.8266H42.7825C42.7885 21.8326 45.2783 17.3354 45.2843 17.2992Z" fill="#2360A5"/>
<path d="M45.2845 17.2993C45.2785 17.2993 45.6221 21.8267 45.604 21.8267H42.7827C42.7887 21.8327 45.2785 17.3355 45.2845 17.2993Z" fill="white"/>
<path d="M195.103 0.172485H133.776V39.7914H195.417V0.172485H195.103Z" fill="black"/>
<path d="M194.79 0.799438V39.1644H134.403V0.799438H194.79Z" fill="white"/>
<path d="M178.664 22.4656C178.543 21.2961 177.765 20.6028 176.373 20.6028C175.101 20.6028 174.1 21.5191 174.1 22.9961C174.1 24.4791 175.01 25.4014 176.518 25.4014C177.723 25.4014 178.561 24.6901 178.694 23.5205H177.259C177.205 23.9546 176.976 24.2922 176.493 24.2922C175.734 24.2922 175.595 23.6893 175.595 23.0503C175.595 22.1702 175.909 21.7241 176.439 21.7241C176.909 21.7241 177.205 21.9954 177.247 22.4716H178.664V22.4656Z" fill="black"/>
<path d="M182.456 25.3954V25.3352C182.287 25.1965 182.281 25.1001 182.281 24.9132V23.3639C182.281 22.5741 182.184 21.9894 180.617 21.9894C179.309 21.9894 178.808 22.3993 178.808 23.1046H180.074C180.105 22.8213 180.352 22.7791 180.539 22.7791C180.677 22.7791 180.967 22.8092 180.967 23.0504C180.967 23.6713 178.604 22.9841 178.604 24.4912C178.604 25.1784 179.158 25.4919 179.791 25.4919C180.019 25.5063 180.246 25.4741 180.461 25.3974C180.676 25.3207 180.872 25.2011 181.039 25.0458L181.099 25.4015H182.456V25.3954ZM180.388 24.7444C180.129 24.7444 179.972 24.6298 179.972 24.4671C179.972 24.0391 180.539 24.1355 180.973 23.9305C180.997 24.3827 180.846 24.7444 180.388 24.7444ZM182.661 25.4135H183.975V24.2681C183.975 23.5568 184.246 23.3036 184.789 23.3036C184.879 23.3036 184.97 23.3277 185.06 23.3398V22.0256L184.891 22.0075C184.379 22.0075 184.053 22.2546 183.872 22.7731H183.86V22.0979H182.661V25.4135Z" fill="black"/>
<path d="M186.862 24.5455C186.434 24.5455 186.344 24.1416 186.344 23.7919C186.344 23.4242 186.464 23.0082 186.898 23.0082C187.338 23.0082 187.465 23.4061 187.465 23.7738C187.459 24.1596 187.314 24.5455 186.862 24.5455ZM188.731 25.3955V20.844H187.417V22.4234C187.139 22.0919 186.844 21.9954 186.428 21.9954C185.632 21.9954 185.023 22.7068 185.023 23.81C185.023 24.7504 185.53 25.498 186.531 25.498C186.953 25.498 187.236 25.3714 187.549 24.9614V25.4015H188.731V25.3955ZM188.882 24.2862C188.954 25.1784 189.786 25.4136 190.545 25.4136C191.757 25.4136 192.33 24.9433 192.33 24.2561C192.33 23.0142 190.232 23.3277 190.232 22.8696C190.232 22.7068 190.377 22.6344 190.606 22.6344C190.708 22.6344 190.805 22.6586 190.871 22.7188C190.907 22.7485 190.937 22.7852 190.959 22.8266C190.981 22.868 190.994 22.9134 190.998 22.96H192.197C192.119 22.0798 191.275 21.9171 190.552 21.9171C189.864 21.9171 188.978 22.1642 188.978 23.0142C188.978 24.2983 191.01 23.8763 191.01 24.4068C191.01 24.6419 190.793 24.7022 190.594 24.7022C190.477 24.7053 190.362 24.6692 190.268 24.5997C190.222 24.5645 190.186 24.5187 190.162 24.4662C190.137 24.4136 190.126 24.356 190.13 24.2983H188.882V24.2862Z" fill="black"/>
<path d="M147.828 17.8298H146.635V15.1954L145.357 17.8358L144.669 17.8539L143.192 15.2315V17.8298L141.185 17.8238L140.498 16.7567L138.719 16.7688L138.261 17.8177L136.959 17.8238L138.87 13.5134H140.311L142.011 16.7206L142.023 13.5134H143.699L145.007 15.8585L146.038 13.5134H147.822L147.828 17.8298Z" fill="#00ACEC"/>
<path d="M139.973 15.7741H139.033L139.503 14.707L139.973 15.7741Z" fill="white"/>
<path d="M156.702 14.2911C156.779 14.5563 156.775 14.8388 156.689 15.1013C156.603 15.3639 156.439 15.5942 156.22 15.762C156.78 16.1358 156.69 17.8177 156.69 17.8177H155.478C155.478 17.8177 155.581 16.5096 155.267 16.3709C155.008 16.2745 153.856 16.3167 153.856 16.3167L153.838 17.8479H152.639L152.621 13.5134H155.671C155.966 13.5134 156.527 13.7847 156.702 14.2911Z" fill="#00ACEC"/>
<path d="M155.472 14.8999C155.472 15.0265 155.346 15.2074 155.068 15.2255L153.814 15.2134L153.833 14.5201C153.833 14.5201 154.297 14.5322 154.912 14.5322C155.388 14.496 155.466 14.7854 155.472 14.8999Z" fill="white"/>
<path d="M151.897 13.5255V14.6046H149.842L149.83 15.1351H151.945L151.933 16.2082H149.842L149.817 16.7447H151.952V17.8298L148.509 17.8117L148.491 13.5255H151.897ZM165.889 23.2192C165.491 22.9239 165.431 22.4416 165.473 21.9774C165.491 21.6036 165.769 21.266 166.088 21.0792C166.396 20.9224 166.589 20.9405 166.842 20.9224H168.819V21.9714H166.902C166.703 21.9714 166.661 22.104 166.649 22.2065C166.661 22.4536 166.842 22.4597 167.011 22.4777C167.372 22.4777 168.174 22.4717 168.469 22.7309C168.867 23.0263 168.928 23.5086 168.885 23.9728C168.862 24.1616 168.795 24.3422 168.688 24.4995C168.581 24.6568 168.438 24.7862 168.271 24.8771C167.963 25.0338 167.77 25.0097 167.511 25.0338H165.503V23.9788H167.402C167.619 23.9788 167.692 23.8462 167.704 23.7437C167.686 23.5026 167.511 23.4966 167.342 23.4724H166.613C166.445 23.4651 166.28 23.4284 166.124 23.3639C166.136 23.3639 165.968 23.2856 165.889 23.2192ZM169.814 23.2253C169.416 22.9299 169.356 22.4416 169.398 21.9834C169.421 21.7946 169.489 21.614 169.596 21.4567C169.703 21.2994 169.846 21.17 170.013 21.0792C170.32 20.9224 170.519 20.9405 170.772 20.9224L172.78 20.9345V21.9714H170.851C170.616 21.9774 170.579 22.1402 170.579 22.2065C170.597 22.4536 170.772 22.4597 170.947 22.4777C171.309 22.4777 172.111 22.4717 172.406 22.7309C172.804 23.0263 172.864 23.5086 172.822 23.9728C172.798 24.3466 172.527 24.6842 172.207 24.871C171.9 25.0278 171.707 25.0097 171.448 25.0278L169.428 25.0218L169.41 23.9788H171.309C171.604 23.9788 171.628 23.8462 171.64 23.7437C171.622 23.4966 171.448 23.4905 171.273 23.4785H170.549C170.382 23.4683 170.217 23.4316 170.061 23.37C170.061 23.37 169.886 23.2916 169.814 23.2253ZM164.949 21.9231H162.863V22.4898L164.961 22.4838L164.949 23.5448L162.869 23.5267L162.863 24.0331L164.949 24.0451V25.0157L161.645 25.0278L161.657 20.8923H164.955L164.949 21.9231Z" fill="#00ACEC"/>
<path d="M172.919 20.2291H170.103C169.018 20.2653 169.235 20.9284 169.205 20.2351C169.193 20.205 166.366 20.2291 166.366 20.2291C165.19 20.2351 165.467 20.8742 165.431 20.2231C165.413 20.1869 161.018 20.2291 161.018 20.2291L161.03 20.6089C160.771 20.3376 160.03 20.1869 159.837 20.2291H156.244V20.6149C156.244 20.6149 155.792 20.2412 155.502 20.2291H151.096L150.396 21.0249L149.745 20.2532L144.549 20.2713V25.7271H149.739L150.396 24.9313L151.096 25.7271H154.351L154.357 24.3646C154.357 24.3646 156.009 24.4611 156.232 23.9607L156.25 24.5575L156.244 25.7331H158.661L158.649 24.3405C158.896 24.3345 159.234 24.2863 159.234 24.5636C159.234 24.877 159.204 23.9547 159.234 25.7331H168.126C168.283 25.7331 168.313 25.7451 168.451 25.709C168.638 25.6668 168.843 25.4256 168.97 25.2508C168.964 25.4618 168.982 25.7512 168.982 25.7512L172.159 25.7572C172.326 25.751 172.488 25.7011 172.629 25.6125C173.015 25.0036 172.961 25.2267 172.925 25.7029V36.6566H136.881V18.5231H138.683L139.117 17.4922L140.058 17.4862L140.582 18.5231H143.759L143.753 17.7032L144.229 18.5291H145.724L146.146 17.7213L146.152 18.5231H154.345L154.351 16.9617C154.351 16.9617 155.074 16.817 154.96 17.2691V18.5231H158.872L158.86 18.0589C158.866 18.0167 159.144 18.511 159.867 18.5231C161.199 18.5351 161.422 18.4869 162.345 18.5231L162.905 17.5404H163.984L164.479 18.5231L167.626 18.505L167.65 17.4078L168.337 18.517H170.887V12.8081L168.464 12.8021V13.7968L167.867 12.8021L165.045 12.8081L165.039 13.7666L164.539 12.8081H160.44C159.071 12.8021 158.848 13.4953 158.848 13.4953L158.854 12.8081H156.78C156.78 12.8081 156.684 12.9407 156.738 13.1397C156.575 12.9709 156.407 12.784 155.912 12.8081L145.622 12.8021C145.622 12.8021 145.091 13.7606 144.941 14.279C144.696 13.8002 144.47 13.3114 144.265 12.8141L141.348 12.796L141.366 14.068C141.215 13.7304 140.709 12.8081 140.709 12.8081H138.442L136.875 16.2564L136.887 3.28918H172.931V20.2291H172.919Z" fill="#00ACEC"/>
<path d="M157.269 13.5134H158.348V17.8177H157.269V13.5134ZM162.013 14.478C162.013 14.478 160.343 14.3213 160.18 14.9904C159.981 15.3461 159.981 16.1177 160.307 16.5035C160.548 16.7206 160.874 16.811 161.193 16.7266L161.434 16.3769L162.863 13.5074H164.159L165.72 16.8231L165.708 13.5074H167.372C167.426 13.5074 169.006 16.0635 169.006 16.0635L169.018 13.5074H170.163L170.169 17.8117H168.801L166.914 15.0869V17.8117H164.84L164.274 16.8231L162.507 16.817L162.025 17.8057C162.025 17.8057 159.885 18.0348 159.439 17.3475C158.854 16.7206 158.812 15.7379 158.969 14.894C159.017 14.6551 159.112 14.4283 159.25 14.2273C159.388 14.0264 159.565 13.8553 159.77 13.7244C160.361 13.3989 161.989 13.5014 161.989 13.5014L162.013 14.478Z" fill="#00ACEC"/>
<path d="M163.858 15.7499H162.917L163.394 14.6829L163.858 15.7499Z" fill="white"/>
<path d="M150.372 22.0255L151.337 20.8922H155.279C155.744 21.0007 156.069 21.4287 156.214 21.8748C156.283 22.1592 156.272 22.4571 156.183 22.7357C156.093 23.0144 155.929 23.263 155.707 23.4543C155.575 23.5507 155.563 23.599 155.285 23.6291H153.652L153.64 25.0277H151.361L150.342 23.8943C150.065 24.1777 149.293 25.0277 149.293 25.0277L145.248 25.0398V20.8801C148.799 20.9223 149.323 20.8982 149.323 20.8982L150.372 22.0255Z" fill="#00ACEC"/>
<path d="M146.315 21.8749V22.4536H148.401L148.395 23.5629H146.315L146.303 24.1114H148.395L149.383 22.9962L148.377 21.8568L146.315 21.8749ZM152.343 24.1114L151.264 22.9781L152.343 21.905V24.1114ZM155.285 22.2848C155.285 22.4175 155.159 22.5923 154.875 22.6104H153.615L153.621 21.9352L154.724 21.9171C155.195 21.8809 155.273 22.1703 155.285 22.2848Z" fill="white"/>
<path d="M159.921 20.8922H156.973V25.0518L158.143 25.0277V23.617L159.439 23.6291C159.825 23.7557 159.692 25.0458 159.692 25.0458H160.892C160.892 25.0458 161.03 23.0925 160.421 23.1046C160.636 22.9426 160.796 22.7191 160.88 22.4637C160.964 22.2084 160.968 21.9336 160.892 21.6759C160.723 21.1815 160.108 20.85 159.921 20.8922Z" fill="#00ACEC"/>
<path d="M159.198 21.8688H158.143V22.5621H159.348C159.632 22.544 159.758 22.3632 159.758 22.2305C159.746 22.122 159.674 21.8327 159.198 21.8688Z" fill="white"/>
<path d="M174.619 36.7289C174.89 36.7289 175.151 36.6209 175.343 36.4287C175.535 36.2365 175.643 35.9758 175.643 35.704C175.643 35.4322 175.535 35.1716 175.343 34.9794C175.151 34.7872 174.89 34.6792 174.619 34.6792C174.347 34.6792 174.086 34.7872 173.894 34.9794C173.702 35.1716 173.594 35.4322 173.594 35.704C173.594 35.9758 173.702 36.2365 173.894 36.4287C174.086 36.6209 174.347 36.7289 174.619 36.7289ZM174.619 36.4877C174.172 36.4877 173.865 36.1622 173.865 35.704C173.865 35.2459 174.172 34.9203 174.619 34.9203C175.059 34.9203 175.372 35.2459 175.372 35.704C175.378 36.1622 175.059 36.4877 174.619 36.4877ZM174.86 35.7945C175.059 35.7824 175.161 35.692 175.161 35.493C175.161 35.2338 175.022 35.1554 174.733 35.1554H174.203V36.2647H174.432V35.7945H174.619L174.866 36.2647H175.137L174.86 35.7945ZM174.426 35.6257V35.3242H174.679C174.787 35.3242 174.944 35.3122 174.944 35.4629C174.944 35.6016 174.854 35.6317 174.733 35.6257H174.426Z" fill="#00ACEC"/>
<path d="M123.925 29.4706C123.917 29.395 123.925 29.3185 123.949 29.2462C123.972 29.1738 124.011 29.1072 124.062 29.0506C124.112 28.9941 124.175 28.9489 124.244 28.9179C124.314 28.887 124.389 28.871 124.465 28.871C124.541 28.871 124.616 28.887 124.686 28.9179C124.755 28.9489 124.817 28.9941 124.868 29.0506C124.919 29.1072 124.958 29.1738 124.981 29.2462C125.004 29.3185 125.012 29.395 125.004 29.4706C124.99 29.6039 124.927 29.7272 124.828 29.8169C124.728 29.9065 124.599 29.9561 124.465 29.9561C124.331 29.9561 124.202 29.9065 124.102 29.8169C124.002 29.7272 123.939 29.6039 123.925 29.4706ZM124.468 29.8866C124.576 29.8866 124.679 29.8437 124.756 29.7674C124.832 29.6911 124.875 29.5876 124.875 29.4797C124.875 29.3718 124.832 29.2683 124.756 29.1919C124.679 29.1156 124.576 29.0728 124.468 29.0728C124.414 29.072 124.361 29.0818 124.312 29.1018C124.262 29.1217 124.217 29.1513 124.178 29.1889C124.14 29.2265 124.11 29.2713 124.089 29.3207C124.069 29.3701 124.058 29.4231 124.058 29.4767C124.058 29.6997 124.245 29.8866 124.468 29.8866ZM124.396 29.7118H124.287V29.2355H124.486C124.528 29.2355 124.57 29.2355 124.607 29.2596C124.649 29.2838 124.667 29.332 124.667 29.3802C124.667 29.4345 124.637 29.4887 124.582 29.5068L124.673 29.7178H124.546L124.474 29.5249H124.396V29.7118ZM124.396 29.4405H124.456C124.48 29.4405 124.504 29.4405 124.522 29.4284C124.54 29.4224 124.546 29.3983 124.546 29.3742C124.546 29.3561 124.534 29.338 124.522 29.326C124.504 29.3139 124.474 29.3199 124.45 29.3199H124.39V29.4405H124.396Z" fill="#E0912F"/>
<path d="M123.925 24.039C123.925 23.8951 123.982 23.7571 124.084 23.6554C124.186 23.5536 124.324 23.4965 124.468 23.4965C124.612 23.4965 124.75 23.5536 124.851 23.6554C124.953 23.7571 125.01 23.8951 125.01 24.039C125.01 24.1829 124.953 24.3209 124.851 24.4227C124.75 24.5244 124.612 24.5816 124.468 24.5816C124.324 24.5816 124.186 24.5244 124.084 24.4227C123.982 24.3209 123.925 24.1829 123.925 24.039ZM124.468 24.449C124.697 24.449 124.878 24.2681 124.878 24.039C124.878 23.8099 124.697 23.6291 124.468 23.6291C124.239 23.6291 124.058 23.816 124.058 24.039C124.058 24.2621 124.245 24.449 124.468 24.449ZM124.396 24.2741H124.287V23.7979H124.486C124.528 23.7979 124.57 23.7979 124.607 23.822C124.649 23.8461 124.667 23.8943 124.667 23.9426C124.668 23.9692 124.66 23.9954 124.645 24.0172C124.63 24.039 124.608 24.0552 124.582 24.0631L124.673 24.2741H124.546L124.474 24.0872H124.396V24.2741ZM124.396 24.0028H124.456L124.522 23.9968C124.54 23.9848 124.546 23.9606 124.546 23.9426C124.546 23.9245 124.534 23.9064 124.522 23.8943C124.504 23.8823 124.474 23.8883 124.45 23.8883H124.389V24.0028H124.396Z" fill="white"/>
<path d="M92.5652 19.9216H93.2283L93.3127 19.3248H92.6617L92.5652 19.9216ZM90.2865 23.1649C90.2865 22.972 90.3045 22.767 90.3407 22.544L91.2329 17.1545H90.8592L90.0333 22.0918L90.0453 22.345C90.0453 22.767 89.979 23.1287 89.8464 23.4301C89.8404 23.5145 89.8223 23.611 89.8223 23.6894C89.8223 24.672 90.3467 25.2025 91.1968 25.2025C91.6187 25.2025 92.0046 25.1362 92.5652 24.9734L92.6376 24.5394C92.3404 24.6183 92.0347 24.6608 91.7273 24.666C90.7928 24.678 90.2865 24.1415 90.2865 23.1649ZM96.7007 19.0535C96.2727 19.0535 95.9351 19.3007 95.7181 19.7528C95.87 19.6463 96.0511 19.5895 96.2365 19.59C96.7068 19.59 96.9961 19.8493 97.0624 20.2954H97.5387L97.5507 19.9457C97.5568 19.379 97.2433 19.0535 96.7007 19.0535ZM93.6202 21.5854C93.6202 20.5666 93.8854 19.6744 94.3135 18.9691C93.5693 19.8452 93.1781 20.9671 93.2163 22.1159C93.2163 24.1415 94.3557 25.2025 96.3028 25.2025C96.9358 25.2025 97.5387 25.1121 98.1596 24.9252L98.244 24.461C97.7426 24.5954 97.2259 24.6643 96.7067 24.666C94.6812 24.666 93.6202 23.611 93.6202 21.5854Z" fill="#1B326C"/>
<path d="M95.3869 21.899C95.3869 22.0135 95.399 22.116 95.4231 22.2185H98.6061L98.7146 21.688H95.405L95.3869 21.899ZM74.6973 18.0649L74.2874 20.5245L74.3959 25.076H75.6317L75.8186 24.5394H74.854L74.6973 18.0649ZM77.591 16.6H77.2473L75.9934 20.3256L76.0115 21.3142L77.591 16.6ZM78.4108 18.0287L77.7236 19.9458L76.9098 25.076H78.7183L78.8087 24.5394H77.3679L78.4108 18.0287ZM73.2384 16.6H72.8044L71.3877 25.076H73.148L73.2384 24.5394H71.9122L73.2384 16.6ZM83.9389 19.7227C83.9389 19.2645 83.6194 19.0958 82.7754 19.0958C82.2669 19.0961 81.7605 19.1609 81.2683 19.2887L80.8523 19.4032L81.0392 18.2759C80.9075 18.308 80.7768 18.3442 80.6474 18.3844L80.3942 19.9337L80.7499 19.8312C81.2388 19.6962 81.7437 19.6272 82.2509 19.6263C83.0286 19.6263 83.4084 19.7529 83.4627 20.1266C83.5977 20.1332 83.7325 20.1453 83.8666 20.1628C83.9103 20.02 83.9346 19.872 83.9389 19.7227ZM81.7506 22.1461C82.0577 22.0186 82.3888 21.959 82.7212 21.9713C82.8478 21.9713 82.89 21.9773 83.0768 21.9954C83.0765 22.3601 83.0027 22.7209 82.8598 23.0564C83.318 22.8093 83.6194 22.2245 83.6435 21.4649C83.5098 21.4448 83.3748 21.4348 83.2396 21.4348C82.4017 21.4408 81.9073 21.682 81.7506 22.1461ZM83.4988 23.8281C83.271 24.1074 82.9799 24.3285 82.6497 24.4732C82.3195 24.6178 81.9597 24.6819 81.5999 24.66C80.6172 24.66 79.942 23.8944 79.942 22.7791C79.9291 22.2608 80.0719 21.7505 80.352 21.3142C79.9864 21.5866 79.7214 21.9724 79.5984 22.4114C79.5155 22.7038 79.4709 23.0057 79.4658 23.3096C79.4658 24.4249 80.2013 25.1905 81.0814 25.1905C82.046 25.1905 82.5825 24.8951 82.9804 24.3586L82.9442 25.076H84.5116L84.5779 24.5394H83.4687L83.4988 23.8281ZM105.665 18.6798C106.01 18.3998 106.439 18.2465 106.883 18.2457C107.384 18.2457 107.86 18.3784 108.505 18.7039L108.619 17.9986C108.23 17.8174 107.807 17.7209 107.377 17.7152C107.034 17.7181 106.697 17.808 106.397 17.9767C106.098 18.1454 105.846 18.3873 105.665 18.6798ZM100.234 18.1794H99.854L98.7508 25.076H100.565L100.656 24.5394H99.215L100.234 18.1794ZM121.508 23.8642C121.303 24.1076 121.046 24.3025 120.756 24.4349C120.466 24.5673 120.151 24.6338 119.832 24.6299C118.512 24.6299 117.644 23.4905 117.644 21.7663C117.644 20.4582 118.084 19.2706 118.759 18.4929C118.344 18.7835 118.004 19.1703 117.771 19.6202L117.777 19.6082L117.644 19.5961C117.162 19.5961 116.896 19.8192 116.643 20.7295C116.737 21.2724 116.906 21.7999 117.144 22.2969C117.144 24.021 118.042 25.1604 119.362 25.1604C120.025 25.1604 120.538 24.9253 121.038 24.3948L120.948 25.0699H122.66L122.75 24.5334H121.412L121.508 23.8642ZM122.635 16.6H122.201L121.96 18.083C122.095 18.2062 122.218 18.3414 122.328 18.4869L122.635 16.6Z" fill="#1B326C"/>
<path d="M120.935 19.2404C120.501 19.2404 120.14 19.5057 119.886 19.9578C120.058 19.8373 120.262 19.772 120.471 19.771C121.098 19.771 121.43 20.2472 121.43 21.1213C121.446 21.6739 121.322 22.2217 121.068 22.7128C121.568 22.3632 121.894 21.5855 121.894 20.5848C121.894 19.7167 121.562 19.2404 120.935 19.2404ZM115.16 18.1794H114.786L113.677 25.076H115.492L115.582 24.5395H114.141L115.16 18.1794ZM110.325 22.1462C110.63 22.0192 110.959 21.9595 111.29 21.9713C111.416 21.9713 111.453 21.9774 111.646 21.9954C111.645 22.3601 111.571 22.721 111.428 23.0565C111.887 22.8093 112.188 22.2245 112.212 21.4649C112.078 21.445 111.943 21.4349 111.808 21.4348C110.97 21.4408 110.476 21.682 110.325 22.1462ZM112.067 23.8281C111.84 24.1082 111.549 24.3299 111.219 24.4746C110.889 24.6193 110.528 24.6829 110.169 24.66C109.186 24.66 108.517 23.8944 108.517 22.7791C108.504 22.2608 108.647 21.7506 108.927 21.3142C108.5 21.6395 108.198 22.1013 108.071 22.6224L108.306 22.5199L108.071 23.9306C108.161 24.2828 108.363 24.5963 108.647 24.8235C108.931 25.0508 109.281 25.1796 109.644 25.1905C110.609 25.1905 111.151 24.8951 111.543 24.3586L111.513 25.076H113.08L113.141 24.5395H112.031L112.067 23.8281ZM112.502 19.7227C112.502 19.2646 112.188 19.0958 111.338 19.0958C110.83 19.0961 110.323 19.1609 109.831 19.2887L109.421 19.4032L109.602 18.2759C109.47 18.308 109.339 18.3442 109.21 18.3844L108.957 19.9337L109.319 19.8312C109.807 19.6962 110.312 19.6272 110.82 19.6263C111.597 19.6263 111.971 19.7529 112.031 20.1266C112.166 20.1332 112.301 20.1453 112.435 20.1628C112.478 20.0199 112.5 19.8718 112.502 19.7227ZM85.5966 20.3798C85.5966 21.1997 85.9945 21.8146 86.953 22.2667C87.6885 22.6103 87.8151 22.6767 87.8151 22.9901L87.797 23.0625C88.1225 22.9781 88.2853 22.8033 88.2853 22.5079C88.2853 22.1944 88.1708 22.0919 87.4413 21.7483C86.4828 21.2961 86.0608 20.6993 86.0608 19.8252C86.0608 19.3731 86.1512 18.9571 86.3562 18.5954C85.972 18.91 85.7202 19.3576 85.6509 19.8493C85.6267 20.0543 85.6026 20.2472 85.5966 20.3798ZM87.9296 19.6866V19.7046C88.0474 19.6722 88.1691 19.656 88.2913 19.6564C88.647 19.6504 89.1293 19.6866 89.6537 19.7589L89.7502 19.1802C89.4399 19.1445 89.1281 19.1244 88.8158 19.1199C88.225 19.1199 87.9296 19.3128 87.9296 19.6866ZM86.2537 24.5937C86.0959 24.5833 85.9388 24.5632 85.7835 24.5334L85.3736 24.449L85.5182 23.4965C85.3856 23.4664 85.259 23.4423 85.1204 23.394L84.9636 24.5395H84.9395L84.8853 24.9735L84.9214 24.9795L85.253 25.0458C85.4104 25.0777 85.5694 25.1019 85.7292 25.1182C86.1573 25.1544 86.525 25.1785 86.7541 25.1785C88.1165 25.1785 88.9243 24.8168 89.3162 24.1175C88.858 24.4731 88.1768 24.648 87.2484 24.648C87.0193 24.648 86.6878 24.6299 86.2537 24.5937Z" fill="#1B326C"/>
<path d="M102.717 19.5961C102.663 19.5961 102.609 19.5961 102.56 19.6081C102.612 19.6009 102.665 19.5969 102.717 19.5961ZM102.416 19.6383L102.289 19.6925C102.33 19.6723 102.373 19.6541 102.416 19.6383ZM101.861 20.2954L101.783 20.5064C101.803 20.4341 101.829 20.3635 101.861 20.2954ZM102.06 19.9095C102.024 19.9517 101.994 20.006 101.964 20.0603L102.06 19.9095Z" fill="#CF4044"/>
<path d="M105.888 25.2266C106.432 25.2209 106.972 25.1377 107.492 24.9794L107.564 24.5514C107.177 24.6471 106.781 24.6957 106.382 24.6961C105.764 24.7226 105.153 24.5509 104.639 24.206C104.125 23.8612 103.735 23.3613 103.525 22.7791C103.31 22.2236 103.204 21.6322 103.211 21.0368C103.211 20.1205 103.368 19.2886 103.652 18.5772C103.923 17.8492 104.378 17.2035 104.972 16.7024C104.924 16.7265 104.875 16.7386 104.833 16.7687C104.43 17.0149 104.067 17.3196 103.754 17.673L103.537 17.6067V17.6127C103.236 18.1673 103.012 18.7762 102.85 19.6081L102.717 19.596C102.663 19.596 102.609 19.596 102.56 19.6081H102.548C102.505 19.6146 102.463 19.6247 102.422 19.6382L102.295 19.6925C102.259 19.7166 102.217 19.7407 102.181 19.7769V19.7829C102.142 19.8168 102.107 19.8553 102.078 19.8975V19.9035C102.042 19.9457 102.012 20 101.982 20.0542L101.976 20.0723C101.943 20.1303 101.915 20.1907 101.891 20.2531L101.879 20.2893L101.801 20.5003C102.066 20.2531 102.319 20.2411 102.627 20.2471H102.753C102.696 20.6808 102.668 21.1178 102.669 21.5553C102.669 22.5018 102.91 23.2855 103.314 23.8943C103.863 24.7443 104.761 25.2266 105.888 25.2266Z" fill="#1B326C"/>
<path d="M103.29 17.5766C102.693 17.5766 102.356 17.884 101.801 18.6979L101.958 17.6549H100.318L99.2149 24.5394H101.029C101.349 22.4476 101.554 21.2177 101.783 20.5124C101.805 20.4404 101.831 20.37 101.861 20.3014L101.873 20.2653C101.897 20.2028 101.925 20.1424 101.958 20.0844L101.964 20.0723C102 20.0121 102.03 19.9578 102.066 19.9156V19.9096C102.096 19.8674 102.13 19.8289 102.169 19.795V19.789C102.206 19.7589 102.244 19.7308 102.283 19.7046C102.32 19.6865 102.362 19.6624 102.41 19.6504L102.537 19.6202H102.549C102.645 19.6072 102.742 19.6052 102.838 19.6142C102.961 18.9153 103.193 18.24 103.525 17.6127L103.459 17.6007C103.405 17.5826 103.347 17.5744 103.29 17.5766ZM92.1556 22.4837C92.1556 22.4174 92.1677 22.327 92.1858 22.2004L92.662 19.3248H93.5904L93.8436 17.6489H92.9212L93.1322 16.6241H91.3297L90.3411 22.55C90.3058 22.7552 90.2877 22.9628 90.2868 23.171C90.2868 24.1476 90.7932 24.6841 91.7155 24.6841C92.017 24.6841 92.3124 24.6359 92.6258 24.5575C92.7524 24.5274 92.873 24.5033 93.0177 24.4611L93.2588 22.9359C93.1008 22.9846 92.9358 23.007 92.7705 23.0022C92.3425 22.9961 92.1556 22.8394 92.1556 22.4837ZM88.7737 20.4341C88.0322 20.0904 87.9297 20.006 87.9297 19.7046V19.6865C87.9297 19.3128 88.2311 19.1199 88.8098 19.1199C89.1715 19.1199 89.6538 19.156 90.112 19.2284L90.3712 17.6308C89.8444 17.55 89.3126 17.5057 88.7797 17.4982C86.7541 17.4982 86.0488 18.5592 86.0548 19.8252C86.0548 20.6993 86.4768 21.2961 87.4353 21.7483C88.1708 22.0919 88.2793 22.1944 88.2793 22.5078C88.2793 22.8032 88.1166 22.9781 87.791 23.0625C87.6115 23.1068 87.4273 23.1291 87.2424 23.1288C86.6891 23.1235 86.1399 23.032 85.6148 22.8575L85.3676 24.449L85.7775 24.5334C86.2645 24.6069 86.756 24.6472 87.2485 24.654C89.1534 24.654 90.0396 23.9245 90.0396 22.3571C90.0457 21.4046 89.6779 20.85 88.7737 20.4341ZM124.516 16.0695H122.726L122.328 18.4869C121.834 17.8358 121.297 17.5464 120.592 17.5464C118.988 17.5464 117.638 19.4755 117.638 21.7724C117.638 23.4965 118.512 24.6359 119.826 24.6359C120.489 24.6359 121.002 24.4008 121.502 23.8703L121.418 24.5394H123.136L124.516 16.0695ZM120.459 22.9178C119.838 22.9178 119.525 22.4596 119.525 21.5553C119.525 20.1989 120.11 19.2404 120.935 19.2404C121.562 19.2404 121.894 19.7167 121.894 20.5908C121.894 21.9592 121.303 22.9178 120.459 22.9178ZM98.8653 22.6706C98.2793 22.956 97.6362 23.1044 96.9844 23.1047C95.9294 23.1047 95.3929 22.6947 95.3929 21.899L95.411 21.6819H99.016C99.1553 21.1257 99.2301 20.5553 99.239 19.9819C99.239 18.4507 98.2865 17.4741 96.7915 17.4741C96.2845 17.4843 95.7892 17.6279 95.3553 17.8903C94.9214 18.1528 94.5643 18.5249 94.3198 18.9691C93.8522 19.7608 93.6123 20.6662 93.6266 21.5855C93.6266 23.611 94.6876 24.672 96.7131 24.672C97.2376 24.672 97.738 24.5937 98.2504 24.4671C98.3589 24.443 98.4614 24.4309 98.5699 24.3947L98.8653 22.6706ZM97.545 20.2894H95.5436C95.7124 19.4936 96.1223 19.0535 96.7011 19.0535C97.2376 19.0535 97.5571 19.3851 97.5571 19.9397L97.545 20.2894ZM80.587 16.0695H77.7718L76.0115 21.3142L75.9331 16.0695H73.3288L71.9121 24.5394H73.6121L74.6972 18.0649L74.854 24.5394H76.0898L78.4108 18.0287L77.3678 24.5394H79.1824L80.587 16.0695ZM85.1265 23.3277C85.1265 23.3277 85.5545 20.5787 85.6087 20.1809C85.6389 19.9578 85.6509 19.7408 85.657 19.5238C85.657 18.2035 84.8311 17.5042 83.2757 17.5042C82.6066 17.5042 82.0097 17.6067 81.1055 17.872L80.8523 19.4213L81.2683 19.2947C81.7598 19.1636 82.2666 19.0987 82.7754 19.1018C83.6193 19.1018 83.9388 19.2706 83.9388 19.7287C83.9373 19.8802 83.9129 20.0306 83.8665 20.1748C83.6202 20.1469 83.3728 20.1288 83.125 20.1206C81.8048 20.1206 80.8583 20.5486 80.3519 21.3142C80.0742 21.7516 79.9316 22.2611 79.942 22.7791C79.942 23.8944 80.6172 24.66 81.5998 24.66C81.9598 24.6829 82.3199 24.6193 82.6503 24.4745C82.9806 24.3298 83.2716 24.1082 83.4988 23.8281L83.4626 24.5394H84.9637L85.1265 23.3277ZM82.3473 23.189C81.9495 23.189 81.6963 22.9178 81.6963 22.4897C81.6963 21.7905 82.2147 21.4408 83.2396 21.4408C83.3747 21.4408 83.5098 21.4508 83.6435 21.4709C83.6193 22.4898 83.0828 23.189 82.3473 23.189ZM114.075 20.8802C114.196 20.1145 114.22 19.8553 114.22 19.5117C114.22 18.1915 113.394 17.4922 111.838 17.4922C111.169 17.4922 110.573 17.5947 109.668 17.8599L109.415 19.4092L109.831 19.2947C110.323 19.164 110.829 19.0991 111.338 19.1018C112.188 19.1018 112.502 19.2706 112.502 19.7287C112.5 19.8802 112.476 20.0306 112.429 20.1748C112.185 20.1469 111.94 20.1288 111.694 20.1206C110.374 20.1206 109.427 20.5486 108.921 21.3142C108.641 21.7505 108.498 22.2608 108.511 22.7791C108.511 23.8944 109.186 24.66 110.163 24.66C110.523 24.6829 110.883 24.6193 111.213 24.4745C111.543 24.3298 111.834 24.1082 112.062 23.8281L112.031 24.5394H113.532L113.695 23.3277L114.075 20.8802ZM110.91 23.189C110.518 23.189 110.265 22.9178 110.265 22.4897C110.265 21.7965 110.784 21.4408 111.814 21.4408C111.941 21.4408 112.025 21.4468 112.218 21.4709C112.182 22.4898 111.652 23.189 110.91 23.189ZM117.644 19.5961C117.686 19.5955 117.728 19.5975 117.77 19.6021C117.933 18.7702 118.15 18.1613 118.458 17.6007L118.397 17.5886C118.338 17.5763 118.277 17.5703 118.217 17.5705C117.62 17.5705 117.282 17.878 116.728 18.6918L116.884 17.6489H115.245L114.141 24.5394H115.956C116.607 20.3255 116.776 19.5961 117.644 19.5961Z" fill="white"/>
<g clip-path="url(#clip0_137_791)">
<path d="M328.438 38.3499V15.408C328.438 13.3812 329.244 11.4374 330.677 10.0042C332.11 8.57102 334.054 7.76587 336.081 7.76587L342.854 7.77532C344.875 7.77938 346.812 8.58537 348.24 10.0164C349.668 11.4474 350.47 13.3865 350.47 15.408V20.2902C350.47 22.3172 349.665 24.2611 348.232 25.6945C346.798 27.1278 344.855 27.9333 342.828 27.9336H333.255" stroke="black" stroke-width="6.26" stroke-linecap="round" stroke-linejoin="round"/>
<path d="M352.363 7.76465H355.302C356.133 7.76465 356.931 8.09512 357.52 8.68337C358.108 9.27161 358.438 10.0694 358.438 10.9013V28.0375" stroke="black" stroke-width="6.26" stroke-linecap="round" stroke-linejoin="round"/>
<path d="M357.808 5.10982L356.475 3.77649C356.397 3.69796 356.335 3.60471 356.292 3.50207C356.249 3.39944 356.228 3.28942 356.228 3.17832C356.228 3.06722 356.249 2.9572 356.292 2.85456C356.335 2.75193 356.397 2.65868 356.475 2.58015L357.808 1.248C357.967 1.08912 358.182 0.999878 358.407 0.999878C358.632 0.999878 358.847 1.08912 359.006 1.248L360.337 2.58015C360.416 2.65868 360.478 2.75193 360.521 2.85456C360.563 2.9572 360.585 3.06722 360.585 3.17832C360.585 3.28942 360.563 3.39944 360.521 3.50207C360.478 3.60471 360.416 3.69796 360.337 3.77649L359 5.10982C358.922 5.18845 358.828 5.25083 358.726 5.29338C358.623 5.33594 358.513 5.35784 358.402 5.35784C358.29 5.35784 358.18 5.33594 358.078 5.29338C357.975 5.25083 357.882 5.18845 357.803 5.10982" fill="black"/>
<path d="M364.078 7.74939H366.992C368.49 7.74877 369.928 8.3435 370.988 9.40277L377.804 16.2182C378.013 16.4283 378.263 16.595 378.537 16.7087C378.811 16.8224 379.105 16.8809 379.402 16.8809C379.699 16.8809 379.993 16.8224 380.267 16.7087C380.541 16.595 380.791 16.4283 381 16.2182L387.791 9.42875C388.316 8.90419 388.939 8.48817 389.624 8.20447C390.31 7.92077 391.045 7.77496 391.786 7.77537H394.155" stroke="black" stroke-width="6.26" stroke-linecap="round" stroke-linejoin="round"/>
<path d="M364.078 27.8875H366.992C368.49 27.888 369.928 27.2933 370.988 26.2341L377.804 19.4186C378.228 18.995 378.803 18.757 379.402 18.757C380.001 18.757 380.576 18.995 381 19.4186L387.791 26.2093C388.851 27.2684 390.288 27.8631 391.786 27.8627H394.155" stroke="black" stroke-width="6.26" stroke-linecap="round" stroke-linejoin="round"/>
<path d="M311.068 32.2406C310.349 32.2432 309.637 32.1034 308.972 31.8291C308.308 31.5549 307.704 31.1516 307.197 30.6428L301.605 25.0472C301.407 24.8581 301.144 24.7526 300.87 24.7526C300.596 24.7526 300.333 24.8581 300.136 25.0472L294.525 30.6581C294.017 31.1677 293.414 31.5718 292.749 31.8468C292.085 32.1219 291.373 32.2626 290.653 32.2607H289.559L296.645 39.3466C297.707 40.4071 299.147 41.0027 300.649 41.0027C302.15 41.0027 303.59 40.4071 304.653 39.3466L311.753 32.2454L311.068 32.2406Z" fill="#32BCAD"/>
<path d="M290.655 12.4662C291.374 12.4643 292.086 12.6049 292.751 12.88C293.415 13.1551 294.018 13.5591 294.526 14.0688L300.137 19.6808C300.332 19.8753 300.596 19.9844 300.871 19.9844C301.147 19.9844 301.411 19.8753 301.606 19.6808L307.197 14.09C307.704 13.5797 308.307 13.1752 308.971 12.8999C309.636 12.6246 310.349 12.484 311.068 12.4863H311.741L304.641 5.38617C304.115 4.86022 303.491 4.443 302.804 4.15834C302.117 3.87369 301.381 3.72717 300.637 3.72717C299.893 3.72717 299.157 3.87369 298.47 4.15834C297.783 4.443 297.158 4.86022 296.633 5.38617L289.559 12.4662H290.655Z" fill="#32BCAD"/>
<path d="M317.614 18.3604L313.323 14.0699C313.226 14.1095 313.123 14.1303 313.018 14.1313H311.067C310.052 14.1339 309.079 14.5371 308.359 15.2533L302.769 20.8405C302.265 21.3431 301.583 21.6254 300.871 21.6254C300.16 21.6254 299.478 21.3431 298.974 20.8405L293.362 15.232C292.643 14.5154 291.669 14.1117 290.654 14.1089H288.259C288.16 14.1067 288.063 14.0871 287.971 14.051L283.653 18.3604C282.593 19.4232 281.997 20.8632 281.997 22.3646C281.997 23.8659 282.593 25.306 283.653 26.3687L287.961 30.6769C288.053 30.6402 288.151 30.6206 288.25 30.6191H290.654C291.669 30.6161 292.643 30.2125 293.362 29.496L298.973 23.8851C299.987 22.8718 301.755 22.8718 302.769 23.8851L308.359 29.4747C309.079 30.1909 310.052 30.5941 311.067 30.5966H313.018C313.123 30.5974 313.226 30.6182 313.323 30.6581L317.614 26.3675C318.14 25.8418 318.557 25.2175 318.841 24.5305C319.126 23.8435 319.273 23.1071 319.273 22.3634C319.273 21.6197 319.126 20.8833 318.841 20.1963C318.557 19.5093 318.14 18.885 317.614 18.3593" fill="#32BCAD"/>
<path d="M334.264 36.4001C333.909 36.4156 333.557 36.469 333.214 36.5595V37.9578C333.476 38.0498 333.753 38.0962 334.031 38.0948C334.732 38.0948 335.064 37.8586 335.064 37.2409C335.064 36.6599 334.793 36.4001 334.264 36.4001ZM332.978 38.9982V36.2312H333.17L333.19 36.3493C333.548 36.2542 333.914 36.1952 334.284 36.1733C334.54 36.1554 334.794 36.229 335.001 36.3812C335.237 36.5772 335.317 36.8937 335.317 37.2386C335.317 37.5834 335.199 37.9401 334.868 38.1278C334.616 38.2538 334.337 38.3158 334.055 38.3085C333.77 38.3067 333.486 38.2634 333.214 38.1798V38.9935L332.978 38.9982Z" fill="black"/>
<path d="M337.077 36.3918C336.376 36.3918 336.063 36.6114 336.063 37.2291C336.063 37.8255 336.372 38.0948 337.077 38.0948C337.782 38.0948 338.086 37.8775 338.086 37.261C338.086 36.6646 337.778 36.3918 337.077 36.3918ZM337.979 38.0948C337.743 38.2625 337.433 38.3109 337.077 38.3109C336.72 38.3109 336.4 38.2589 336.172 38.0948C335.916 37.9141 335.811 37.6224 335.811 37.2456C335.811 36.8689 335.916 36.576 336.172 36.3918C336.4 36.2276 336.713 36.1757 337.077 36.1757C337.44 36.1757 337.746 36.2276 337.979 36.3918C338.239 36.576 338.339 36.876 338.339 37.2409C338.339 37.6058 338.235 37.9141 337.979 38.0948Z" fill="black"/>
<path d="M341.297 38.2542L340.516 36.576H340.5L339.73 38.2542H339.514L338.688 36.2312H338.947L339.641 37.9295H339.657L340.411 36.2312H340.627L341.399 37.9295H341.416L342.092 36.2312H342.349L341.515 38.2542H341.297Z" fill="black"/>
<path d="M343.854 36.3871C343.205 36.3871 342.985 36.6764 342.945 37.0957H344.763C344.743 36.6351 344.507 36.3871 343.854 36.3871ZM343.846 38.3109C343.457 38.3109 343.205 38.2542 343.004 38.0865C342.768 37.8822 342.688 37.5858 342.688 37.2456C342.688 36.9055 342.796 36.576 343.065 36.38C343.301 36.2319 343.576 36.1605 343.854 36.1757C344.137 36.1586 344.419 36.2269 344.663 36.3717C344.955 36.5678 345.011 36.9126 345.011 37.3047H342.939C342.947 37.7216 343.083 38.0901 343.868 38.0901C344.219 38.0808 344.569 38.0413 344.913 37.972V38.1845C344.563 38.2565 344.208 38.298 343.851 38.3085" fill="black"/>
<path d="M345.69 38.2542V36.2312H345.882L345.902 36.3493C346.331 36.2407 346.531 36.1733 346.908 36.1733H346.936V36.3977H346.88C346.563 36.3977 346.371 36.4414 345.927 36.5572V38.2519L345.69 38.2542Z" fill="black"/>
<path d="M348.309 36.3871C347.661 36.3871 347.44 36.6764 347.4 37.0957H349.219C349.198 36.6351 348.962 36.3871 348.309 36.3871ZM348.301 38.3109C347.912 38.3109 347.661 38.2542 347.46 38.0865C347.224 37.8822 347.144 37.5858 347.144 37.2456C347.144 36.9055 347.252 36.576 347.52 36.38C347.756 36.2322 348.031 36.1608 348.309 36.1757C348.592 36.1586 348.874 36.2269 349.118 36.3717C349.411 36.5678 349.472 36.9126 349.472 37.3047H347.392C347.4 37.7216 347.536 38.0901 348.321 38.0901C348.673 38.0809 349.023 38.0413 349.367 37.972V38.1845C349.017 38.2565 348.662 38.2979 348.304 38.3085" fill="black"/>
<path d="M352.056 36.5276C351.794 36.436 351.517 36.39 351.239 36.3918C350.538 36.3918 350.206 36.628 350.206 37.2457C350.206 37.8303 350.479 38.0865 351.007 38.0865C351.361 38.0701 351.713 38.0175 352.056 37.9295V36.5276ZM352.101 38.2542L352.08 38.1361C351.723 38.2323 351.356 38.2916 350.986 38.3133C350.73 38.3326 350.475 38.2583 350.27 38.1043C350.033 37.9082 349.953 37.5917 349.953 37.248C349.953 36.8867 350.071 36.5465 350.402 36.3623C350.655 36.2335 350.936 36.1701 351.219 36.1781C351.503 36.182 351.785 36.2249 352.056 36.3056V35.3785H352.293V38.2542H352.101Z" fill="black"/>
<path d="M355.759 36.4001C355.404 36.4156 355.052 36.4691 354.709 36.5595V37.9543C354.971 38.0489 355.248 38.0965 355.526 38.0948C356.228 38.0948 356.559 37.8586 356.559 37.241C356.559 36.6599 356.288 36.4001 355.759 36.4001ZM356.363 38.1302C356.111 38.2561 355.832 38.3181 355.551 38.3109C355.243 38.309 354.937 38.2576 354.645 38.1586L354.633 38.2542H354.473V35.3785H354.709V36.3434C355.059 36.2537 355.418 36.1976 355.779 36.1757C356.035 36.1578 356.289 36.2314 356.496 36.3836C356.732 36.5796 356.812 36.8961 356.812 37.241C356.812 37.5858 356.694 37.9425 356.363 38.1302Z" fill="black"/>
<path d="M357.126 39.0278V38.8081C357.244 38.8199 357.351 38.8282 357.426 38.8282C357.719 38.8282 357.899 38.7432 358.059 38.4113L358.136 38.2507L357.073 36.2277H357.347L358.253 37.9743H358.268L359.129 36.2277H359.399L358.26 38.4999C358.052 38.912 357.828 39.0479 357.415 39.0479C357.317 39.0474 357.22 39.0406 357.123 39.0278" fill="black"/>
<path d="M362.661 37.1003H361.877V37.8089H362.661C363.202 37.8089 363.407 37.7487 363.407 37.4546C363.407 37.1381 363.126 37.1003 362.657 37.1003M362.515 35.9572H361.875V36.6776H362.52C363.052 36.6776 363.265 36.6138 363.265 36.3138C363.265 35.9926 362.996 35.9595 362.515 35.9595M363.734 38.0711C363.444 38.2554 363.096 38.2624 362.459 38.2624H361.261V35.5107H362.431C362.98 35.5107 363.317 35.5178 363.597 35.6867C363.69 35.7422 363.765 35.8225 363.815 35.9188C363.865 36.015 363.886 36.1232 363.878 36.2311C363.878 36.5193 363.76 36.7118 363.444 36.8405V36.8559C363.799 36.9362 364.025 37.1169 364.025 37.5054C364.034 37.6164 364.012 37.7276 363.96 37.8262C363.908 37.9249 363.83 38.0069 363.734 38.0629" fill="black"/>
<path d="M366.422 37.405C366.186 37.3849 365.949 37.3731 365.693 37.3731C365.281 37.3731 365.136 37.457 365.136 37.6459C365.136 37.8349 365.254 37.9176 365.573 37.9176C365.859 37.9082 366.144 37.8686 366.422 37.7995V37.405ZM366.54 38.2542L366.525 38.1361C366.166 38.237 365.798 38.2964 365.426 38.3132C365.211 38.3277 364.997 38.2757 364.813 38.1644C364.734 38.0979 364.673 38.0129 364.634 37.9169C364.596 37.8209 364.582 37.7169 364.594 37.6142C364.606 37.5115 364.643 37.4133 364.701 37.3284C364.76 37.2435 364.839 37.1745 364.931 37.1275C365.144 37.0271 365.429 37.0188 365.69 37.0188C365.901 37.0188 366.186 37.0307 366.422 37.0472V37.0106C366.422 36.6941 366.214 36.5901 365.645 36.5901C365.425 36.5901 365.156 36.602 364.899 36.6256V36.217C365.184 36.1933 365.505 36.178 365.77 36.178C366.124 36.178 366.487 36.2051 366.715 36.3658C366.943 36.5264 366.991 36.759 366.991 37.059V38.2565L366.54 38.2542Z" fill="black"/>
<path d="M369.629 38.2542V37.1382C369.629 36.7697 369.442 36.6374 369.105 36.6374C368.826 36.6498 368.548 36.6926 368.278 36.765V38.2554H367.714V36.2312H368.174L368.195 36.3599C368.547 36.2562 368.91 36.1944 369.276 36.1757C369.525 36.1558 369.773 36.2299 369.97 36.3835C370.129 36.5276 370.189 36.7284 370.189 37.0165V38.2542H369.629Z" fill="black"/>
<path d="M371.785 38.3109C371.524 38.3109 371.24 38.2743 371.032 38.0983C370.784 37.8975 370.712 37.5822 370.712 37.2409C370.712 36.9209 370.816 36.5713 371.124 36.3752C371.377 36.2111 371.689 36.1757 372.013 36.1757C372.25 36.1757 372.474 36.191 372.722 36.2146V36.6481C372.518 36.628 372.273 36.6126 372.077 36.6126C371.54 36.6126 371.287 36.7803 371.287 37.2456C371.287 37.6814 371.476 37.8704 371.917 37.8704C372.202 37.861 372.486 37.8263 372.766 37.7664V38.1822C372.442 38.2574 372.112 38.3005 371.781 38.3109" fill="black"/>
<path d="M374.44 36.5996C373.902 36.5996 373.666 36.7685 373.666 37.2291C373.666 37.6897 373.902 37.8857 374.44 37.8857C374.977 37.8857 375.205 37.7216 375.205 37.261C375.205 36.8004 374.977 36.5996 374.44 36.5996ZM375.409 38.0983C375.161 38.266 374.836 38.3109 374.44 38.3109C374.043 38.3109 373.711 38.2625 373.466 38.0983C373.185 37.9141 373.085 37.6094 373.085 37.2456C373.085 36.8819 373.185 36.5713 373.466 36.3871C373.711 36.2229 374.034 36.1757 374.44 36.1757C374.845 36.1757 375.161 36.2229 375.409 36.3871C375.689 36.5713 375.786 36.8807 375.786 37.2409C375.786 37.6011 375.685 37.9141 375.409 38.0983Z" fill="black"/>
<path d="M379.046 38.3109C378.706 38.3109 378.338 38.2542 378.062 38.0263C377.733 37.7535 377.633 37.3331 377.633 36.8807C377.633 36.4757 377.762 35.995 378.189 35.7151C378.522 35.499 378.934 35.4541 379.351 35.4541C379.656 35.4541 379.969 35.4742 380.309 35.5025V35.995C380.017 35.9714 379.656 35.9513 379.376 35.9513C378.594 35.9513 378.262 36.2477 378.262 36.8807C378.262 37.5137 378.571 37.8137 379.147 37.8137C379.559 37.7995 379.968 37.7445 380.369 37.6496V38.1385C379.935 38.2389 379.492 38.2966 379.046 38.3109Z" fill="black"/>
<path d="M382.03 36.5359C381.557 36.5359 381.38 36.7047 381.344 37.0083H382.707C382.69 36.6799 382.498 36.5359 382.03 36.5359ZM381.945 38.3073C381.613 38.3073 381.312 38.2672 381.087 38.083C380.863 37.8987 380.763 37.5822 380.763 37.2374C380.763 36.9291 380.863 36.5843 381.144 36.3835C381.392 36.2075 381.709 36.1721 382.03 36.1721C382.318 36.1721 382.658 36.204 382.906 36.3764C383.231 36.6044 383.26 36.9575 383.26 37.3732H381.34C381.352 37.6826 381.516 37.8822 382.085 37.8822C382.447 37.8743 382.807 37.8396 383.164 37.7783V38.1751C382.762 38.2514 382.354 38.2957 381.945 38.3073Z" fill="black"/>
<path d="M385.776 38.2542V37.1382C385.776 36.7697 385.588 36.6374 385.252 36.6374C384.972 36.6498 384.695 36.6926 384.425 36.765V38.2554H383.86V36.2312H384.321L384.341 36.3599C384.693 36.2562 385.056 36.1944 385.423 36.1757C385.672 36.1558 385.919 36.2299 386.116 36.3835C386.275 36.5276 386.336 36.7284 386.336 37.0165V38.2542H385.776Z" fill="black"/>
<path d="M387.946 38.3109C387.673 38.3109 387.425 38.2342 387.289 38.0216C387.178 37.8378 387.126 37.6242 387.14 37.4098V36.6516H386.731V36.2312H387.14L387.2 35.6183H387.699V36.2312H388.496V36.6516H387.699V37.3012C387.691 37.4319 387.71 37.5629 387.754 37.6862C387.814 37.822 387.947 37.874 388.124 37.874C388.259 37.8715 388.394 37.8581 388.528 37.8338V38.2389C388.335 38.2805 388.14 38.3046 387.943 38.3109" fill="black"/>
<path d="M389.049 38.2541V36.2311H389.509L389.529 36.3598C389.853 36.2501 390.19 36.1881 390.531 36.1756C390.555 36.1742 390.579 36.1742 390.603 36.1756V36.6657C390.539 36.6657 390.462 36.6657 390.407 36.6657C390.139 36.6668 389.872 36.7017 389.613 36.7696V38.2636L389.049 38.2541Z" fill="black"/>
<path d="M392.658 37.405C392.422 37.3849 392.186 37.3731 391.928 37.3731C391.516 37.3731 391.372 37.457 391.372 37.6459C391.372 37.8349 391.49 37.9176 391.808 37.9176C392.095 37.9082 392.38 37.8686 392.658 37.7995V37.405ZM392.776 38.2542L392.76 38.1361C392.402 38.237 392.033 38.2964 391.661 38.3132C391.447 38.3277 391.233 38.2757 391.049 38.1644C390.974 38.1074 390.915 38.033 390.876 37.9478C390.837 37.8626 390.819 37.7691 390.824 37.6755C390.819 37.5603 390.848 37.4462 390.909 37.3483C390.97 37.2504 391.06 37.1734 391.165 37.1275C391.378 37.0271 391.661 37.0188 391.922 37.0188C392.135 37.0188 392.42 37.0307 392.656 37.0472V37.0106C392.656 36.6941 392.447 36.5901 391.879 36.5901C391.658 36.5901 391.39 36.602 391.134 36.6256V36.217C391.418 36.1933 391.738 36.178 392.003 36.178C392.357 36.178 392.72 36.2051 392.948 36.3658C393.176 36.5264 393.224 36.759 393.224 37.059V38.2565L392.776 38.2542Z" fill="black"/>
<path d="M393.948 35.3785H394.514V38.2542H393.948V35.3785Z" fill="black"/>
</g>
<g clip-path="url(#clip1_137_791)">
<path d="M257.926 1.0271C258.632 1.0271 259.284 1.0271 259.99 1.0271C259.99 11.2376 259.99 21.4209 259.99 31.6585C259.311 31.6585 258.632 31.6585 257.926 31.6585C257.926 21.448 257.926 11.2647 257.926 1.0271Z" fill="black"/>
<path d="M240.791 1.05432C241.497 1.05432 242.149 1.05432 242.828 1.05432C242.828 11.2648 242.828 21.4481 242.828 31.6585C242.149 31.6585 241.497 31.6585 240.845 31.6585C240.71 31.2512 240.655 2.05907 240.791 1.05432Z" fill="black"/>
<path d="M209.291 1.0271C209.752 1.0271 210.16 1.0271 210.621 1.0271C210.621 12.894 210.621 24.761 210.621 36.6551C210.377 36.6551 210.16 36.6822 209.942 36.6822C209.752 36.6822 209.535 36.6822 209.291 36.6822C209.291 24.7881 209.291 12.9483 209.291 1.0271Z" fill="black"/>
<path d="M235.686 31.6585C235.224 31.6585 234.817 31.6585 234.355 31.6585C234.355 21.4752 234.355 11.2919 234.355 1.05432C234.789 1.05432 235.224 1.05432 235.686 1.05432C235.686 11.2376 235.686 21.4209 235.686 31.6585Z" fill="black"/>
<path d="M229.331 1.05432C229.793 1.05432 230.227 1.05432 230.689 1.05432C230.689 11.2648 230.689 21.4481 230.689 31.6585C230.227 31.6585 229.793 31.6585 229.331 31.6585C229.331 21.4481 229.331 11.2648 229.331 1.05432Z" fill="black"/>
<path d="M245.788 1.0271C246.276 1.0271 246.684 1.0271 247.145 1.0271C247.145 11.2376 247.145 21.3937 247.145 31.6313C246.684 31.6313 246.249 31.6313 245.788 31.6313C245.788 21.448 245.788 11.2647 245.788 1.0271Z" fill="black"/>
<path d="M214.206 31.6585C213.744 31.6585 213.337 31.6585 212.848 31.6585C212.848 21.4481 212.848 11.2648 212.848 1.05432C213.31 1.05432 213.744 1.05432 214.206 1.05432C214.206 11.2648 214.206 21.4481 214.206 31.6585Z" fill="black"/>
<path d="M252.142 31.6585C251.68 31.6585 251.273 31.6585 250.784 31.6585C250.784 21.4481 250.784 11.2648 250.784 1.05432C251.246 1.05432 251.68 1.05432 252.142 1.05432C252.142 11.2648 252.142 21.4481 252.142 31.6585Z" fill="black"/>
<path d="M219.936 31.6585C219.474 31.6585 219.067 31.6585 218.605 31.6585C218.605 21.448 218.605 11.2647 218.605 1.0271C219.039 1.0271 219.474 1.0271 219.936 1.0271C219.936 11.2376 219.936 21.4209 219.936 31.6585Z" fill="black"/>
<path d="M263.683 1.05432C264.118 1.05432 264.552 1.05432 265.014 1.05432C265.014 11.2648 265.014 21.4481 265.014 31.6585C264.552 31.6585 264.145 31.6585 263.683 31.6585C263.683 21.4481 263.683 11.2648 263.683 1.05432Z" fill="black"/>
<path d="M224.335 1.0271C224.797 1.0271 225.204 1.0271 225.666 1.0271C225.666 11.2376 225.666 21.3937 225.666 31.6313C225.448 31.6585 225.231 31.6585 225.014 31.6585C224.824 31.6585 224.606 31.6585 224.416 31.6585C224.253 31.224 224.172 2.57496 224.335 1.0271Z" fill="black"/>
<path d="M260.805 1.05432C261.239 1.05432 261.647 1.05432 262.135 1.05432C262.135 11.2648 262.135 21.4481 262.135 31.6585C261.701 31.6585 261.266 31.6585 260.805 31.6585C260.805 21.4481 260.805 11.2648 260.805 1.05432Z" fill="black"/>
<path d="M252.957 1.05432C253.418 1.05432 253.853 1.05432 254.314 1.05432C254.314 11.2648 254.314 21.4209 254.314 31.6314C253.853 31.6314 253.445 31.6314 252.957 31.6314C252.957 21.4481 252.957 11.2648 252.957 1.05432Z" fill="black"/>
<path d="M248.639 1.0271C249.1 1.0271 249.508 1.0271 249.969 1.0271C249.969 11.2376 249.969 21.4209 249.969 31.6585C249.508 31.6585 249.1 31.6585 248.639 31.6585C248.639 21.448 248.639 11.2647 248.639 1.0271Z" fill="black"/>
<path d="M270.825 1.05432C271.015 1.05432 271.205 1.05432 271.449 1.05432C271.449 12.9213 271.449 24.761 271.449 36.6551C271.259 36.6823 271.069 36.6823 270.825 36.7094C270.825 24.7882 270.825 12.9484 270.825 1.05432Z" fill="black"/>
<path d="M272.264 1.05432C272.454 1.05432 272.671 1.05432 272.889 1.05432C272.889 12.9213 272.889 24.7882 272.889 36.6551C272.671 36.6551 272.481 36.6551 272.264 36.6551C272.264 24.7882 272.264 12.9484 272.264 1.05432Z" fill="black"/>
<path d="M205.625 36.6551C205.38 36.6551 205.217 36.6551 205 36.6551C205 24.7882 205 12.9484 205 1.05432C205.19 1.05432 205.407 1.05432 205.625 1.05432C205.625 12.9213 205.625 24.761 205.625 36.6551Z" fill="black"/>
<path d="M239.352 1.02716C239.542 1.02716 239.732 1 239.976 1C239.976 11.2376 239.976 21.4209 239.976 31.6314C239.868 31.6585 239.786 31.6857 239.677 31.6857C239.569 31.6857 239.487 31.6585 239.352 31.6585C239.352 21.4481 239.352 11.2648 239.352 1.02716Z" fill="black"/>
<path d="M238.564 31.6585C238.429 31.6856 238.347 31.7128 238.266 31.7128C238.157 31.7128 238.076 31.6856 237.913 31.6856C237.913 21.4752 237.913 11.2919 237.913 1.08142C238.13 1.08142 238.32 1.08142 238.564 1.08142C238.564 11.2647 238.564 21.4209 238.564 31.6585Z" fill="black"/>
<path d="M207.064 36.6551C206.82 36.6551 206.657 36.6551 206.439 36.6551C206.439 24.7882 206.439 12.9484 206.439 1.05431C206.63 1.02716 206.82 1.02716 207.064 1C207.064 12.8941 207.064 24.761 207.064 36.6551Z" fill="black"/>
<path d="M269.304 1.05432C269.304 12.9484 269.304 24.7882 269.304 36.6551C269.087 36.6551 268.924 36.6823 268.761 36.6823C268.625 36.2206 268.544 2.03192 268.707 1.05432C268.87 1.05432 269.06 1.05432 269.304 1.05432Z" fill="black"/>
<path d="M265.828 1.0271C266.045 1.0271 266.208 1.0271 266.426 1.0271C266.426 12.9212 266.426 24.761 266.426 36.6279C266.317 36.6551 266.235 36.6822 266.154 36.6822C266.045 36.6822 265.964 36.6551 265.855 36.6551C265.747 36.2206 265.692 1.97754 265.828 1.0271Z" fill="black"/>
<path d="M256.432 31.6585C256.215 31.6585 256.025 31.6585 255.781 31.6585C255.781 21.4752 255.781 11.2919 255.781 1.05432C255.998 1.05432 256.188 1.05432 256.432 1.05432C256.432 11.2648 256.432 21.4481 256.432 31.6585Z" fill="black"/>
<path d="M227.104 31.6314C226.969 31.6585 226.887 31.6857 226.779 31.6857C226.67 31.6857 226.588 31.6585 226.453 31.6585C226.453 21.4481 226.453 11.2919 226.453 1.05432C226.67 1.05432 226.86 1.05432 227.104 1.05432C227.104 11.2648 227.104 21.4481 227.104 31.6314Z" fill="black"/>
<path d="M217.084 31.6314C216.949 31.6585 216.867 31.6857 216.813 31.6857C216.704 31.6857 216.623 31.6857 216.514 31.6585C216.378 31.1969 216.297 2.54787 216.433 1.05432C216.623 1.05432 216.84 1.05432 217.084 1.05432C217.084 11.2376 217.084 21.4209 217.084 31.6314Z" fill="black"/>
<path d="M245 31.6585C244.783 31.6585 244.593 31.6585 244.348 31.6585C244.348 21.4481 244.348 11.2648 244.348 1.08147C244.43 1.05431 244.511 1.02716 244.593 1C244.701 1 244.837 1.02716 245 1.02716C245 11.2376 245 21.4209 245 31.6585Z" fill="black"/>
<path d="M221.456 1.05431C221.565 1.05431 221.673 1 221.755 1C221.863 1 221.945 1.02716 222.081 1.05431C222.081 11.2376 222.081 21.4209 222.081 31.6585C221.863 31.6585 221.673 31.6585 221.456 31.6585C221.456 21.4481 221.456 11.2648 221.456 1.05431Z" fill="black"/>
<path d="M231.477 1.05432C231.694 1.05432 231.884 1.05432 232.128 1.05432C232.128 11.2648 232.128 21.4209 232.128 31.6585C231.911 31.6585 231.721 31.6585 231.477 31.6585C231.477 21.4481 231.477 11.2648 231.477 1.05432Z" fill="black"/>
<path d="M212.087 36.6551C211.87 36.6551 211.707 36.6823 211.571 36.6823C211.381 36.4922 211.327 1.89614 211.49 1.05432C211.68 1.05432 211.87 1.05432 212.087 1.05432C212.087 12.9213 212.087 24.761 212.087 36.6551Z" fill="black"/>
<path d="M236.5 1.0271C236.745 1.0271 236.908 1.0271 237.125 1.0271C237.125 11.2376 237.125 21.3937 237.125 31.6313C236.908 31.6313 236.745 31.6313 236.5 31.6313C236.5 21.448 236.5 11.2647 236.5 1.0271Z" fill="black"/>
<path d="M228.834 39.7483V33.9301H230.868C231.273 33.9301 231.608 34.0002 231.871 34.1403C232.134 34.2786 232.33 34.4651 232.459 34.7C232.588 34.9329 232.652 35.1915 232.652 35.4756C232.652 35.7256 232.608 35.932 232.519 36.0949C232.431 36.2578 232.316 36.3865 232.172 36.4812C232.03 36.5759 231.876 36.646 231.709 36.6915V36.7483C231.887 36.7597 232.066 36.8222 232.246 36.9358C232.426 37.0494 232.576 37.2123 232.698 37.4244C232.819 37.6365 232.879 37.896 232.879 38.2028C232.879 38.4945 232.813 38.7568 232.681 38.9898C232.548 39.2227 232.339 39.4074 232.053 39.5437C231.767 39.6801 231.395 39.7483 230.936 39.7483H228.834ZM229.538 39.1233H230.936C231.396 39.1233 231.723 39.0343 231.916 38.8562C232.111 38.6763 232.209 38.4585 232.209 38.2028C232.209 38.0059 232.159 37.824 232.058 37.6574C231.958 37.4888 231.815 37.3544 231.629 37.254C231.444 37.1517 231.224 37.1006 230.97 37.1006H229.538V39.1233ZM229.538 36.4869H230.845C231.057 36.4869 231.249 36.4453 231.419 36.3619C231.592 36.2786 231.728 36.1612 231.828 36.0097C231.931 35.8581 231.982 35.6801 231.982 35.4756C231.982 35.2199 231.893 35.003 231.715 34.825C231.537 34.6451 231.254 34.5551 230.868 34.5551H229.538V36.4869ZM235.719 39.8392C235.325 39.8392 234.979 39.7455 234.682 39.558C234.386 39.3705 234.155 39.1081 233.989 38.771C233.824 38.4339 233.742 38.04 233.742 37.5892C233.742 37.1347 233.824 36.7379 233.989 36.3989C234.155 36.0598 234.386 35.7966 234.682 35.6091C234.979 35.4216 235.325 35.3278 235.719 35.3278C236.113 35.3278 236.458 35.4216 236.753 35.6091C237.05 35.7966 237.281 36.0598 237.446 36.3989C237.613 36.7379 237.696 37.1347 237.696 37.5892C237.696 38.04 237.613 38.4339 237.446 38.771C237.281 39.1081 237.05 39.3705 236.753 39.558C236.458 39.7455 236.113 39.8392 235.719 39.8392ZM235.719 39.2369C236.018 39.2369 236.264 39.1602 236.458 39.0068C236.651 38.8534 236.794 38.6517 236.886 38.4017C236.979 38.1517 237.026 37.8809 237.026 37.5892C237.026 37.2975 236.979 37.0258 236.886 36.7739C236.794 36.522 236.651 36.3184 236.458 36.1631C236.264 36.0078 236.018 35.9301 235.719 35.9301C235.42 35.9301 235.173 36.0078 234.98 36.1631C234.787 36.3184 234.644 36.522 234.551 36.7739C234.458 37.0258 234.412 37.2975 234.412 37.5892C234.412 37.8809 234.458 38.1517 234.551 38.4017C234.644 38.6517 234.787 38.8534 234.98 39.0068C235.173 39.1602 235.42 39.2369 235.719 39.2369ZM239.39 33.9301V39.7483H238.72V33.9301H239.39ZM242.448 39.8392C242.027 39.8392 241.664 39.7464 241.36 39.5608C241.056 39.3733 240.823 39.1119 240.658 38.7767C240.495 38.4396 240.413 38.0475 240.413 37.6006C240.413 37.1536 240.495 36.7597 240.658 36.4187C240.823 36.0759 241.052 35.8089 241.345 35.6176C241.641 35.4244 241.985 35.3278 242.379 35.3278C242.607 35.3278 242.831 35.3657 243.053 35.4415C243.274 35.5172 243.476 35.6403 243.658 35.8108C243.84 35.9794 243.985 36.2028 244.092 36.4812C244.2 36.7597 244.254 37.1025 244.254 37.5097V37.7937H240.891V37.2142H243.573C243.573 36.968 243.523 36.7483 243.425 36.5551C243.328 36.3619 243.19 36.2095 243.01 36.0977C242.832 35.986 242.622 35.9301 242.379 35.9301C242.112 35.9301 241.881 35.9964 241.686 36.129C241.493 36.2597 241.344 36.4301 241.24 36.6403C241.136 36.8506 241.084 37.0759 241.084 37.3165V37.7028C241.084 38.0324 241.141 38.3117 241.254 38.5409C241.37 38.7682 241.53 38.9415 241.735 39.0608C241.939 39.1782 242.177 39.2369 242.448 39.2369C242.624 39.2369 242.783 39.2123 242.925 39.1631C243.069 39.1119 243.193 39.0362 243.297 38.9358C243.401 38.8335 243.482 38.7066 243.538 38.5551L244.186 38.7369C244.118 38.9566 244.003 39.1498 243.842 39.3165C243.681 39.4812 243.483 39.61 243.246 39.7028C243.009 39.7937 242.743 39.8392 242.448 39.8392ZM247.172 35.3847V35.9528H244.911V35.3847H247.172ZM245.57 34.3392H246.24V38.4983C246.24 38.6877 246.268 38.8297 246.323 38.9244C246.379 39.0172 246.451 39.0797 246.538 39.1119C246.628 39.1422 246.721 39.1574 246.82 39.1574C246.894 39.1574 246.954 39.1536 247.002 39.146C247.049 39.1365 247.087 39.129 247.115 39.1233L247.252 39.7256C247.206 39.7426 247.143 39.7597 247.061 39.7767C246.98 39.7956 246.877 39.8051 246.752 39.8051C246.562 39.8051 246.377 39.7644 246.195 39.683C246.015 39.6015 245.865 39.4775 245.746 39.3108C245.628 39.1441 245.57 38.9339 245.57 38.6801V34.3392ZM249.906 39.8392C249.512 39.8392 249.167 39.7455 248.869 39.558C248.574 39.3705 248.343 39.1081 248.176 38.771C248.011 38.4339 247.929 38.04 247.929 37.5892C247.929 37.1347 248.011 36.7379 248.176 36.3989C248.343 36.0598 248.574 35.7966 248.869 35.6091C249.167 35.4216 249.512 35.3278 249.906 35.3278C250.3 35.3278 250.645 35.4216 250.94 35.6091C251.238 35.7966 251.469 36.0598 251.634 36.3989C251.8 36.7379 251.884 37.1347 251.884 37.5892C251.884 38.04 251.8 38.4339 251.634 38.771C251.469 39.1081 251.238 39.3705 250.94 39.558C250.645 39.7455 250.3 39.8392 249.906 39.8392ZM249.906 39.2369C250.206 39.2369 250.452 39.1602 250.645 39.0068C250.838 38.8534 250.981 38.6517 251.074 38.4017C251.167 38.1517 251.213 37.8809 251.213 37.5892C251.213 37.2975 251.167 37.0258 251.074 36.7739C250.981 36.522 250.838 36.3184 250.645 36.1631C250.452 36.0078 250.206 35.9301 249.906 35.9301C249.607 35.9301 249.361 36.0078 249.168 36.1631C248.975 36.3184 248.832 36.522 248.739 36.7739C248.646 37.0258 248.6 37.2975 248.6 37.5892C248.6 37.8809 248.646 38.1517 248.739 38.4017C248.832 38.6517 248.975 38.8534 249.168 39.0068C249.361 39.1602 249.607 39.2369 249.906 39.2369Z" fill="black"/>
</g>
<defs>
<clipPath id="clip0_137_791">
<rect width="112.521" height="40" fill="white" transform="translate(282 1)"/>
</clipPath>
<clipPath id="clip1_137_791">
<rect width="67.8887" height="40" fill="white" transform="translate(205 1)"/>
</clipPath>
</defs>
</svg>
