<svg width="113" height="40" viewBox="0 0 113 40" fill="none" xmlns="http://www.w3.org/2000/svg">
<g clip-path="url(#clip0_137_831)">
<path d="M46.4385 37.3499V14.408C46.4385 12.3812 47.2436 10.4374 48.6768 9.00421C50.11 7.57102 52.0538 6.76587 54.0806 6.76587L60.8536 6.77532C62.8751 6.77938 64.8125 7.58537 66.2404 9.01638C67.6683 10.4474 68.4701 12.3865 68.4698 14.408V19.2902C68.4698 21.3172 67.6647 23.2611 66.2315 24.6945C64.7984 26.1278 62.8545 26.9333 60.8276 26.9336H51.2545" stroke="black" stroke-width="6.26" stroke-linecap="round" stroke-linejoin="round"/>
<path d="M70.3633 6.76465H73.3016C74.1335 6.76465 74.9313 7.09512 75.5196 7.68337C76.1078 8.27161 76.4383 9.06944 76.4383 9.90135V27.0375" stroke="black" stroke-width="6.26" stroke-linecap="round" stroke-linejoin="round"/>
<path d="M75.8076 4.10982L74.4755 2.77649C74.3969 2.69796 74.3345 2.60471 74.292 2.50207C74.2494 2.39944 74.2275 2.28942 74.2275 2.17832C74.2275 2.06722 74.2494 1.9572 74.292 1.85456C74.3345 1.75193 74.3969 1.65868 74.4755 1.58015L75.8076 0.247997C75.9666 0.0891222 76.1822 -0.00012207 76.407 -0.00012207C76.6317 -0.00012207 76.8473 0.0891222 77.0063 0.247997L78.3373 1.58015C78.4159 1.65868 78.4782 1.75193 78.5208 1.85456C78.5633 1.9572 78.5852 2.06722 78.5852 2.17832C78.5852 2.28942 78.5633 2.39944 78.5208 2.50207C78.4782 2.60471 78.4159 2.69796 78.3373 2.77649L77.0004 4.10982C76.9218 4.18845 76.8284 4.25083 76.7257 4.29338C76.623 4.33594 76.5128 4.35784 76.4016 4.35784C76.2904 4.35784 76.1803 4.33594 76.0776 4.29338C75.9749 4.25083 75.8815 4.18845 75.8029 4.10982" fill="black"/>
<path d="M82.0781 6.74939H84.9916C86.4903 6.74877 87.9279 7.3435 88.9881 8.40277L95.8035 15.2182C96.0134 15.4283 96.2625 15.595 96.5368 15.7087C96.8111 15.8224 97.1051 15.8809 97.402 15.8809C97.6989 15.8809 97.9929 15.8224 98.2672 15.7087C98.5415 15.595 98.7906 15.4283 99.0005 15.2182L105.791 8.42875C106.316 7.90419 106.939 7.48817 107.624 7.20447C108.31 6.92077 109.045 6.77496 109.786 6.77537H112.155" stroke="black" stroke-width="6.26" stroke-linecap="round" stroke-linejoin="round"/>
<path d="M82.0781 26.8875H84.9916C86.4903 26.888 87.9278 26.2933 88.9881 25.2341L95.8035 18.4186C96.2276 17.995 96.8026 17.757 97.402 17.757C98.0015 17.757 98.5764 17.995 99.0005 18.4186L105.791 25.2093C106.851 26.2684 108.288 26.8631 109.786 26.8627H112.155" stroke="black" stroke-width="6.26" stroke-linecap="round" stroke-linejoin="round"/>
<path d="M29.0679 31.2406C28.3491 31.2432 27.6368 31.1034 26.9724 30.8291C26.3079 30.5549 25.7043 30.1516 25.1966 29.6428L19.6047 24.0472C19.4069 23.8581 19.1437 23.7526 18.8701 23.7526C18.5964 23.7526 18.3333 23.8581 18.1355 24.0472L12.5246 29.6581C12.0172 30.1677 11.4139 30.5718 10.7494 30.8468C10.0849 31.1219 9.37252 31.2626 8.65337 31.2607H7.55859L14.6445 38.3466C15.7073 39.4071 17.1473 40.0027 18.6486 40.0027C20.15 40.0027 21.59 39.4071 22.6528 38.3466L29.7529 31.2454L29.0679 31.2406Z" fill="#32BCAD"/>
<path d="M8.65455 11.4662C9.37371 11.4643 10.0861 11.6049 10.7506 11.88C11.4151 12.1551 12.0184 12.5591 12.5258 13.0688L18.1367 18.6808C18.3317 18.8753 18.5959 18.9844 18.8713 18.9844C19.1466 18.9844 19.4108 18.8753 19.6058 18.6808L25.1966 13.09C25.7036 12.5797 26.3068 12.1752 26.9714 11.8999C27.636 11.6246 28.3486 11.484 29.0679 11.4863H29.7411L22.641 4.38617C22.1152 3.86022 21.491 3.443 20.8039 3.15834C20.1169 2.87369 19.3805 2.72717 18.6368 2.72717C17.8932 2.72717 17.1568 2.87369 16.4697 3.15834C15.7827 3.443 15.1585 3.86022 14.6327 4.38617L7.55859 11.4662H8.65455Z" fill="#32BCAD"/>
<path d="M35.6136 17.3604L31.3231 13.0699C31.2263 13.1095 31.1229 13.1303 31.0184 13.1313H29.0674C28.0521 13.1339 27.0789 13.5371 26.3594 14.2533L20.7686 19.8405C20.2651 20.3431 19.5827 20.6254 18.8713 20.6254C18.1599 20.6254 17.4776 20.3431 16.9741 19.8405L11.362 14.232C10.6427 13.5154 9.66944 13.1117 8.65403 13.1089H6.25899C6.16028 13.1067 6.06274 13.0871 5.97083 13.051L1.65314 17.3604C0.592656 18.4232 -0.00292969 19.8632 -0.00292969 21.3646C-0.00292969 22.8659 0.592656 24.306 1.65314 25.3687L5.96138 29.6769C6.05309 29.6402 6.15076 29.6206 6.24954 29.6191H8.65403C9.66941 29.6161 10.6426 29.2125 11.362 28.496L16.9729 22.8851C17.9874 21.8718 19.7553 21.8718 20.7686 22.8851L26.3594 28.4747C27.0789 29.1909 28.0521 29.5941 29.0674 29.5966H31.0184C31.1229 29.5974 31.2264 29.6182 31.3231 29.6581L35.6136 25.3675C36.1395 24.8418 36.5568 24.2175 36.8414 23.5305C37.1261 22.8435 37.2726 22.1071 37.2726 21.3634C37.2726 20.6197 37.1261 19.8833 36.8414 19.1963C36.5568 18.5093 36.1395 17.885 35.6136 17.3593" fill="#32BCAD"/>
<path d="M52.2636 35.4001C51.909 35.4156 51.557 35.469 51.2137 35.5595V36.9578C51.4763 37.0498 51.7527 37.0962 52.031 37.0948C52.7325 37.0948 53.0643 36.8586 53.0643 36.2409C53.0643 35.6599 52.7927 35.4001 52.2636 35.4001M50.9775 37.9982V35.2312H51.17L51.1901 35.3493C51.5478 35.2542 51.9142 35.1952 52.2837 35.1733C52.5398 35.1554 52.7938 35.229 53.0006 35.3812C53.2368 35.5772 53.3171 35.8937 53.3171 36.2386C53.3171 36.5834 53.199 36.9401 52.8683 37.1278C52.6159 37.2538 52.3365 37.3158 52.0546 37.3085C51.7695 37.3067 51.4863 37.2634 51.2137 37.1798V37.9935L50.9775 37.9982Z" fill="black"/>
<path d="M55.0766 35.3918C54.3762 35.3918 54.0633 35.6114 54.0633 36.2291C54.0633 36.8255 54.3715 37.0948 55.0766 37.0948C55.7816 37.0948 56.0863 36.8775 56.0863 36.261C56.0863 35.6646 55.7781 35.3918 55.0766 35.3918M55.9788 37.0948C55.7426 37.2625 55.4332 37.3109 55.0766 37.3109C54.7199 37.3109 54.3999 37.2589 54.1719 37.0948C53.9157 36.9141 53.8105 36.6224 53.8105 36.2456C53.8105 35.8689 53.9157 35.576 54.1719 35.3918C54.3999 35.2276 54.7128 35.1757 55.0766 35.1757C55.4403 35.1757 55.7462 35.2276 55.9788 35.3918C56.2387 35.576 56.339 35.876 56.339 36.2409C56.339 36.6058 56.2351 36.9141 55.9788 37.0948Z" fill="black"/>
<path d="M59.2975 37.2542L58.5157 35.576H58.5003L57.7303 37.2542H57.5142L56.6875 35.2312H56.9473L57.6406 36.9295H57.6571L58.4106 35.2312H58.6267L59.399 36.9295H59.4156L60.0923 35.2312H60.3486L59.5148 37.2542H59.2975Z" fill="black"/>
<path d="M61.8541 35.3871C61.2046 35.3871 60.9849 35.6764 60.9447 36.0957H62.7635C62.7434 35.6351 62.5072 35.3871 61.8541 35.3871M61.8458 37.3109C61.4573 37.3109 61.2046 37.2542 61.0038 37.0865C60.7676 36.8822 60.6885 36.5858 60.6885 36.2456C60.6885 35.9055 60.7959 35.576 61.0652 35.38C61.3007 35.2319 61.5763 35.1605 61.8541 35.1757C62.1373 35.1586 62.4191 35.2269 62.6631 35.3717C62.9548 35.5678 63.0115 35.9126 63.0115 36.3047H60.9388C60.9471 36.7216 61.0829 37.0901 61.8683 37.0901C62.2194 37.0808 62.5691 37.0413 62.9135 36.972V37.1845C62.5634 37.2565 62.2078 37.298 61.8506 37.3085" fill="black"/>
<path d="M63.6904 37.2542V35.2312H63.8817L63.9018 35.3493C64.3305 35.2407 64.5313 35.1733 64.908 35.1733H64.9364V35.3977H64.8797C64.5632 35.3977 64.3707 35.4414 63.9266 35.5572V37.2519L63.6904 37.2542Z" fill="black"/>
<path d="M66.3092 35.3871C65.6608 35.3871 65.44 35.6764 65.3998 36.0957H67.2185C67.1985 35.6351 66.9623 35.3871 66.3092 35.3871M66.3009 37.3109C65.9124 37.3109 65.6608 37.2542 65.4601 37.0865C65.2239 36.8822 65.1436 36.5858 65.1436 36.2456C65.1436 35.9055 65.2522 35.576 65.5203 35.38C65.7559 35.2322 66.0314 35.1608 66.3092 35.1757C66.5924 35.1586 66.8742 35.2269 67.1182 35.3717C67.4111 35.5678 67.4725 35.9126 67.4725 36.3047H65.3916C65.3998 36.7216 65.5356 37.0901 66.321 37.0901C66.6725 37.0809 67.0226 37.0413 67.3674 36.972V37.1845C67.0173 37.2565 66.6617 37.2979 66.3045 37.3085" fill="black"/>
<path d="M70.0565 35.5276C69.7938 35.436 69.5174 35.39 69.2392 35.3918C68.5377 35.3918 68.2059 35.628 68.2059 36.2457C68.2059 36.8303 68.4787 37.0865 69.0066 37.0865C69.361 37.0701 69.7128 37.0175 70.0565 36.9295V35.5276ZM70.1013 37.2542L70.0801 37.1361C69.7225 37.2323 69.3561 37.2916 68.9865 37.3133C68.7301 37.3326 68.4754 37.2583 68.2696 37.1043C68.0334 36.9082 67.9531 36.5917 67.9531 36.248C67.9531 35.8867 68.0712 35.5465 68.4019 35.3623C68.6546 35.2335 68.9356 35.1701 69.2191 35.1781C69.5028 35.182 69.7845 35.2249 70.0565 35.3056V34.3785H70.2927V37.2542H70.1013Z" fill="black"/>
<path d="M73.7588 35.4001C73.4041 35.4156 73.0521 35.4691 72.7089 35.5595V36.9543C72.9708 37.0489 73.2475 37.0965 73.5261 37.0948C74.2276 37.0948 74.5595 36.8586 74.5595 36.241C74.5595 35.6599 74.2878 35.4001 73.7588 35.4001ZM74.3634 37.1302C74.1114 37.2561 73.8324 37.3181 73.5509 37.3109C73.2427 37.309 72.9369 37.2576 72.6451 37.1586L72.6333 37.2542H72.4727V34.3785H72.7089V35.3434C73.0594 35.2537 73.4177 35.1976 73.7788 35.1757C74.0349 35.1578 74.289 35.2314 74.4957 35.3836C74.7319 35.5796 74.8122 35.8961 74.8122 36.241C74.8122 36.5858 74.6941 36.9425 74.3634 37.1302Z" fill="black"/>
<path d="M75.1264 38.0278V37.8081C75.2445 37.8199 75.3508 37.8282 75.4264 37.8282C75.7192 37.8282 75.8988 37.7432 76.0594 37.4113L76.1361 37.2507L75.0732 35.2277H75.3472L76.253 36.9743H76.2684L77.1293 35.2277H77.3986L76.2601 37.4999C76.0523 37.912 75.8279 38.0479 75.4145 38.0479C75.317 38.0474 75.2196 38.0406 75.1228 38.0278" fill="black"/>
<path d="M80.6614 36.1003H79.8772V36.8089H80.6614C81.2023 36.8089 81.4066 36.7487 81.4066 36.4546C81.4066 36.1381 81.1255 36.1003 80.6567 36.1003M80.5149 34.9572H79.8749V35.6776H80.5197C81.0523 35.6776 81.2649 35.6138 81.2649 35.3138C81.2649 34.9926 80.9956 34.9595 80.5149 34.9595M81.7337 37.0711C81.4444 37.2554 81.096 37.2624 80.4594 37.2624H79.2607V34.5107H80.4311C80.9803 34.5107 81.3168 34.5178 81.5967 34.6867C81.6897 34.7422 81.7654 34.8225 81.815 34.9188C81.8647 35.015 81.8865 35.1232 81.8778 35.2311C81.8778 35.5193 81.7597 35.7118 81.4444 35.8405V35.8559C81.7987 35.9362 82.0254 36.1169 82.0254 36.5054C82.0343 36.6164 82.0116 36.7276 81.96 36.8262C81.9084 36.9249 81.8299 37.0069 81.7337 37.0629" fill="black"/>
<path d="M84.4218 36.405C84.1856 36.3849 83.9494 36.3731 83.6931 36.3731C83.2809 36.3731 83.1357 36.457 83.1357 36.6459C83.1357 36.8349 83.2538 36.9176 83.5726 36.9176C83.859 36.9082 84.1436 36.8686 84.4218 36.7995V36.405ZM84.5399 37.2542L84.5245 37.1361C84.1664 37.237 83.7979 37.2964 83.4262 37.3132C83.2114 37.3277 82.9974 37.2757 82.8132 37.1644C82.7341 37.0979 82.6726 37.0129 82.6344 36.9169C82.5961 36.8209 82.5822 36.7169 82.5939 36.6142C82.6056 36.5115 82.6425 36.4133 82.7014 36.3284C82.7603 36.2435 82.8393 36.1745 82.9313 36.1275C83.1439 36.0271 83.4285 36.0188 83.6895 36.0188C83.9009 36.0188 84.1856 36.0307 84.4218 36.0472V36.0106C84.4218 35.6941 84.2139 35.5901 83.6447 35.5901C83.425 35.5901 83.1557 35.602 82.8995 35.6256V35.217C83.1841 35.1933 83.5053 35.178 83.7698 35.178C84.1241 35.178 84.4867 35.2051 84.7146 35.3658C84.9426 35.5264 84.991 35.759 84.991 36.059V37.2565L84.5399 37.2542Z" fill="black"/>
<path d="M87.6294 37.2542V36.1382C87.6294 35.7697 87.4416 35.6374 87.1051 35.6374C86.8257 35.6498 86.5485 35.6926 86.2784 35.765V37.2554H85.7139V35.2312H86.1744L86.1945 35.3599C86.5466 35.2562 86.9097 35.1944 87.2763 35.1757C87.5253 35.1558 87.7726 35.2299 87.9695 35.3835C88.129 35.5276 88.1892 35.7284 88.1892 36.0165V37.2542H87.6294Z" fill="black"/>
<path d="M89.7854 37.3109C89.5244 37.3109 89.2398 37.2743 89.032 37.0983C88.784 36.8975 88.7119 36.5822 88.7119 36.2409C88.7119 35.9209 88.8158 35.5713 89.1241 35.3752C89.3768 35.2111 89.6886 35.1757 90.0134 35.1757C90.2496 35.1757 90.4739 35.191 90.722 35.2146V35.6481C90.5176 35.628 90.2732 35.6126 90.0771 35.6126C89.5398 35.6126 89.2871 35.7803 89.2871 36.2456C89.2871 36.6814 89.476 36.8704 89.9165 36.8704C90.2021 36.861 90.4863 36.8263 90.7657 36.7664V37.1822C90.4424 37.2574 90.1125 37.3005 89.7807 37.3109" fill="black"/>
<path d="M92.4395 35.5996C91.9022 35.5996 91.666 35.7685 91.666 36.2291C91.666 36.6897 91.9022 36.8857 92.4395 36.8857C92.9769 36.8857 93.2048 36.7216 93.2048 36.261C93.2048 35.8004 92.9769 35.5996 92.4395 35.5996M93.4091 37.0983C93.1611 37.266 92.8364 37.3109 92.4395 37.3109C92.0427 37.3109 91.7109 37.2625 91.4664 37.0983C91.1853 36.9141 91.085 36.6094 91.085 36.2456C91.085 35.8819 91.1853 35.5713 91.4664 35.3871C91.7109 35.2229 92.0345 35.1757 92.4395 35.1757C92.8446 35.1757 93.1611 35.2229 93.4091 35.3871C93.689 35.5713 93.7859 35.8807 93.7859 36.2409C93.7859 36.6011 93.6855 36.9141 93.4091 37.0983Z" fill="black"/>
<path d="M97.0464 37.3109C96.7063 37.3109 96.3379 37.2542 96.0615 37.0263C95.7332 36.7535 95.6328 36.3331 95.6328 35.8807C95.6328 35.4757 95.7615 34.995 96.1891 34.7151C96.5221 34.499 96.9343 34.4541 97.3511 34.4541C97.6558 34.4541 97.9688 34.4742 98.3089 34.5025V34.995C98.0172 34.9714 97.6558 34.9513 97.3759 34.9513C96.5941 34.9513 96.2623 35.2477 96.2623 35.8807C96.2623 36.5137 96.5705 36.8137 97.1468 36.8137C97.5587 36.7995 97.9681 36.7445 98.3692 36.6496V37.1385C97.9349 37.2389 97.4919 37.2966 97.0464 37.3109" fill="black"/>
<path d="M100.03 35.5359C99.5575 35.5359 99.3803 35.7047 99.3437 36.0083H100.707C100.69 35.6799 100.498 35.5359 100.03 35.5359ZM99.9449 37.3073C99.613 37.3073 99.3119 37.2672 99.0875 37.083C98.8631 36.8987 98.7627 36.5822 98.7627 36.2374C98.7627 35.9291 98.8631 35.5843 99.1442 35.3835C99.3922 35.2075 99.7087 35.1721 100.03 35.1721C100.318 35.1721 100.658 35.204 100.906 35.3764C101.231 35.6044 101.26 35.9575 101.26 36.3732H99.3402C99.352 36.6826 99.5162 36.8822 100.085 36.8822C100.447 36.8743 100.807 36.8396 101.164 36.7783V37.1751C100.762 37.2514 100.354 37.2957 99.9449 37.3073" fill="black"/>
<path d="M103.776 37.2542V36.1382C103.776 35.7697 103.588 35.6374 103.252 35.6374C102.972 35.6498 102.695 35.6926 102.425 35.765V37.2554H101.86V35.2312H102.321L102.341 35.3599C102.693 35.2562 103.056 35.1944 103.423 35.1757C103.672 35.1558 103.919 35.2299 104.116 35.3835C104.275 35.5276 104.336 35.7284 104.336 36.0165V37.2542H103.776Z" fill="black"/>
<path d="M105.946 37.3109C105.673 37.3109 105.425 37.2342 105.289 37.0216C105.178 36.8378 105.126 36.6242 105.14 36.4098V35.6516H104.731V35.2312H105.14L105.2 34.6183H105.699V35.2312H106.496V35.6516H105.699V36.3012C105.691 36.4319 105.71 36.5629 105.754 36.6862C105.814 36.822 105.947 36.874 106.124 36.874C106.259 36.8715 106.394 36.8581 106.528 36.8338V37.2389C106.335 37.2805 106.14 37.3046 105.943 37.3109" fill="black"/>
<path d="M107.049 37.2541V35.2311H107.509L107.529 35.3598C107.853 35.2501 108.19 35.1881 108.531 35.1756C108.555 35.1742 108.579 35.1742 108.603 35.1756V35.6657C108.539 35.6657 108.462 35.6657 108.407 35.6657C108.139 35.6668 107.872 35.7017 107.613 35.7696V37.2636L107.049 37.2541Z" fill="black"/>
<path d="M110.658 36.405C110.422 36.3849 110.186 36.3731 109.928 36.3731C109.516 36.3731 109.372 36.457 109.372 36.6459C109.372 36.8349 109.49 36.9176 109.808 36.9176C110.095 36.9082 110.38 36.8686 110.658 36.7995V36.405ZM110.776 37.2542L110.76 37.1361C110.402 37.237 110.033 37.2964 109.661 37.3132C109.447 37.3277 109.233 37.2757 109.049 37.1644C108.974 37.1074 108.915 37.033 108.876 36.9478C108.837 36.8626 108.819 36.7691 108.824 36.6755C108.819 36.5603 108.848 36.4462 108.909 36.3483C108.97 36.2504 109.06 36.1734 109.165 36.1275C109.378 36.0271 109.661 36.0188 109.922 36.0188C110.135 36.0188 110.42 36.0307 110.656 36.0472V36.0106C110.656 35.6941 110.447 35.5901 109.879 35.5901C109.658 35.5901 109.39 35.602 109.134 35.6256V35.217C109.418 35.1933 109.738 35.178 110.003 35.178C110.357 35.178 110.72 35.2051 110.948 35.3658C111.176 35.5264 111.224 35.759 111.224 36.059V37.2565L110.776 37.2542Z" fill="black"/>
<path d="M111.948 34.3785H112.514V37.2542H111.948V34.3785Z" fill="black"/>
</g>
<defs>
<clipPath id="clip0_137_831">
<rect width="112.521" height="40" fill="white"/>
</clipPath>
</defs>
</svg>
