<svg width="81" height="26" viewBox="0 0 81 26" fill="none" xmlns="http://www.w3.org/2000/svg">
<g filter="url(#filter0_d_232_9)">
<path d="M11.002 15.416C11.002 16.472 10.486 17 9.454 17H5.098V14.282H6.322V15.776H9.562V14.282L6.61 12.428C6.31 12.236 6.052 12.08 5.836 11.96C5.62 11.84 5.44 11.72 5.296 11.6C5.032 11.36 4.9 11.036 4.9 10.628V9.602C4.9 9.098 4.984 8.75 5.152 8.558C5.476 8.186 5.956 8 6.592 8H10.786V10.7H9.562V9.224H6.322V10.736L9.382 12.644C9.634 12.8 9.856 12.938 10.048 13.058C10.252 13.166 10.42 13.28 10.552 13.4C10.852 13.652 11.002 13.952 11.002 14.3V15.416ZM15.3662 4.724V8H16.8242V9.296H15.3662V15.776H17.0762V17H15.5642C15.0242 17 14.6222 16.862 14.3582 16.586C14.0942 16.298 13.9622 15.812 13.9622 15.128V9.296H12.6302V8H13.9622V4.724H15.3662ZM20.017 17C19.405 17 18.973 16.862 18.721 16.586C18.469 16.298 18.343 15.902 18.343 15.398V9.602C18.343 9.122 18.451 8.738 18.667 8.45C18.895 8.15 19.345 8 20.017 8H23.347C24.007 8 24.451 8.15 24.679 8.45C24.907 8.738 25.021 9.122 25.021 9.602V15.398C25.021 15.902 24.895 16.298 24.643 16.586C24.391 16.862 23.959 17 23.347 17H20.017ZM19.801 15.776H23.563V9.224H19.801V15.776ZM31.9181 8C32.8541 8 33.3221 8.462 33.3221 9.386V10.988H31.8641V9.242L29.0561 11.024V15.776H29.9381V17H26.4641V15.776H27.5981V9.206H26.4641V7.982H29.0561V9.566L31.2701 8.18C31.4621 8.06 31.6781 8 31.9181 8ZM34.941 9.764C34.941 8.576 35.559 7.982 36.795 7.982H39.837C40.425 7.982 40.851 8.096 41.115 8.324C41.379 8.552 41.511 8.972 41.511 9.584V11.258L36.381 14.498V15.776H40.089V14.732H41.511V15.686C41.511 16.046 41.397 16.358 41.169 16.622C40.953 16.874 40.587 17 40.071 17H36.381C35.865 17 35.493 16.874 35.265 16.622C35.049 16.358 34.941 16.046 34.941 15.686V9.764ZM36.381 13.04L40.071 10.718V9.224H36.381V13.04ZM44.4062 15.218C44.6582 15.218 44.8682 15.314 45.0362 15.506C45.2162 15.698 45.3062 15.92 45.3062 16.172C45.3062 16.424 45.2162 16.64 45.0362 16.82C44.8682 16.988 44.6582 17.072 44.4062 17.072C44.1542 17.072 43.9382 16.988 43.7582 16.82C43.5782 16.64 43.4882 16.424 43.4882 16.172C43.4882 15.92 43.5782 15.698 43.7582 15.506C43.9502 15.314 44.1662 15.218 44.4062 15.218ZM53.3289 17H48.8469C47.9829 17 47.4849 16.676 47.3529 16.028C47.3049 15.836 47.2809 15.632 47.2809 15.416V9.584C47.2809 9.08 47.4189 8.69 47.6949 8.414C47.9829 8.126 48.4149 7.982 48.9909 7.982H53.3289V10.268H52.1049V9.224H48.7209V15.776H52.1049V14.732H53.3289V17ZM56.4389 17C55.8269 17 55.3949 16.862 55.1429 16.586C54.8909 16.298 54.7649 15.902 54.7649 15.398V9.602C54.7649 9.122 54.8729 8.738 55.0889 8.45C55.3169 8.15 55.7669 8 56.4389 8H59.7689C60.4289 8 60.8729 8.15 61.1009 8.45C61.3289 8.738 61.4429 9.122 61.4429 9.602V15.398C61.4429 15.902 61.3169 16.298 61.0649 16.586C60.8129 16.862 60.3809 17 59.7689 17H56.4389ZM56.2229 15.776H59.9849V9.224H56.2229V15.776ZM73.596 7.82C74.532 7.82 75 8.282 75 9.206V15.776H76.152V17H72.678V15.776H73.542V9.08L70.248 11.132V15.776H71.13V17H67.908V15.776H68.772L68.79 15.704V9.062L65.478 11.132V15.776H66.36V17H62.886V15.776H64.02V9.206H62.886V8H65.478V9.71L68.196 8C68.388 7.88 68.604 7.82 68.844 7.82C69.78 7.82 70.248 8.282 70.248 9.206V9.692L72.948 8C73.14 7.88 73.356 7.82 73.596 7.82Z" fill="black"/>
</g>
<line x1="4" y1="19.5" x2="77" y2="19.5" stroke="black"/>
<defs>
<filter id="filter0_d_232_9" x="0.899902" y="4.724" width="79.252" height="20.348" filterUnits="userSpaceOnUse" color-interpolation-filters="sRGB">
<feFlood flood-opacity="0" result="BackgroundImageFix"/>
<feColorMatrix in="SourceAlpha" type="matrix" values="0 0 0 0 0 0 0 0 0 0 0 0 0 0 0 0 0 0 127 0" result="hardAlpha"/>
<feOffset dy="4"/>
<feGaussianBlur stdDeviation="2"/>
<feComposite in2="hardAlpha" operator="out"/>
<feColorMatrix type="matrix" values="0 0 0 0 0 0 0 0 0 0 0 0 0 0 0 0 0 0 0.25 0"/>
<feBlend mode="normal" in2="BackgroundImageFix" result="effect1_dropShadow_232_9"/>
<feBlend mode="normal" in="SourceGraphic" in2="effect1_dropShadow_232_9" result="shape"/>
</filter>
</defs>
</svg>
