<svg width="70" height="70" viewBox="0 0 70 70" fill="none" xmlns="http://www.w3.org/2000/svg">
<path d="M35.8125 10C38.4688 10 41.2812 10 43.9375 10C44.0937 13.125 45.1875 16.4062 47.5312 18.75C49.875 21.0938 53.1562 22.1875 56.4375 22.5V30.9375C53.4688 30.7812 50.3438 30.1562 47.6875 28.9062C46.4375 28.4375 45.3438 27.6562 44.25 27.0312C44.25 33.125 44.25 39.2188 44.25 45.3125C44.0938 48.2812 43.1562 51.0938 41.4375 53.5938C38.7812 57.6562 33.9375 60.1562 29.0937 60.3125C26.125 60.4688 23.1562 59.6875 20.6562 58.125C16.4375 55.3125 13.4688 50.7812 13 45.9375C13 44.8438 13 43.9062 13 42.8125C13.3125 38.9062 15.3438 35 18.3125 32.5C21.75 29.5312 26.5938 28.125 31.125 28.9062C31.125 32.0312 30.9688 35 30.9688 38.125C28.9375 37.5 26.4375 37.6562 24.7188 38.9062C23.4688 39.6875 22.375 41.0937 21.9062 42.5C21.4375 43.5938 21.5938 44.6875 21.5938 45.7812C22.0625 49.2188 25.3438 52.0312 28.9375 51.7188C31.2813 51.7188 33.4688 50.3125 34.7188 48.4375C35.1875 47.8125 35.5 47.0312 35.5 46.25C35.6562 42.5 35.6562 38.75 35.6562 35.1562C35.8125 26.7188 35.8125 18.4375 35.8125 10Z" fill="black"/>
</svg>
