<svg width="70" height="70" viewBox="0 0 70 70" fill="none" xmlns="http://www.w3.org/2000/svg">
<path fill-rule="evenodd" clip-rule="evenodd" d="M52.524 17.2661C47.8448 12.583 41.6219 10.0026 34.992 10C21.3314 10 10.2133 21.1138 10.2078 34.7746C10.206 39.1413 11.3473 43.4038 13.516 47.161L10 60L23.1385 56.5547C26.7584 58.5285 30.8341 59.5687 34.9821 59.5704H34.9923C48.6516 59.5704 59.7707 48.4552 59.7762 34.7944C59.7788 28.1742 57.2033 21.9492 52.524 17.2661ZM34.9923 55.3858H34.9839C31.2876 55.3844 27.6621 54.3917 24.4994 52.5154L23.7471 52.0691L15.9507 54.1137L18.0317 46.5145L17.5419 45.7355C15.4798 42.4567 14.3907 38.6671 14.3923 34.7761C14.3969 23.4219 23.6379 14.1845 35.0005 14.1845C40.5025 14.1866 45.6747 16.3315 49.5639 20.2239C53.4532 24.1163 55.5938 29.2903 55.5917 34.7927C55.587 46.1478 46.3462 55.3858 34.9923 55.3858ZM46.2915 39.9629C45.6722 39.653 42.6277 38.1553 42.06 37.9487C41.4924 37.7421 41.0796 37.6388 40.6667 38.2586C40.2539 38.8783 39.0671 40.2728 38.7057 40.6859C38.3446 41.0991 37.9834 41.1508 37.3641 40.8409C36.7448 40.531 34.7495 39.8773 32.3841 37.7682C30.5432 36.1268 29.3003 34.0993 28.939 33.4796C28.5778 32.8598 28.9006 32.5247 29.2106 32.2161C29.4892 31.9387 29.8299 31.4931 30.1395 31.1315C30.4491 30.7701 30.5523 30.5118 30.7587 30.0987C30.9652 29.6855 30.862 29.324 30.7071 29.0141C30.5523 28.7042 29.3139 25.6571 28.7978 24.4176C28.2952 23.2104 27.7846 23.3738 27.4045 23.3549C27.0437 23.3369 26.6304 23.3331 26.2176 23.3331C25.8048 23.3331 25.1339 23.488 24.5662 24.1077C23.9986 24.7275 22.3989 26.2252 22.3989 29.2723C22.3989 32.3194 24.6178 35.2632 24.9275 35.6763C25.2371 36.0895 29.2942 42.3426 35.5063 45.0242C36.9838 45.662 38.1373 46.0428 39.0367 46.3283C40.5202 46.7994 41.8702 46.7329 42.9372 46.5735C44.127 46.3958 46.6011 45.0759 47.1172 43.6298C47.6332 42.1837 47.6332 40.9442 47.4784 40.686C47.3236 40.4277 46.9108 40.2728 46.2915 39.9629Z" fill="black"/>
</svg>
