<svg width="79" height="70" viewBox="0 0 79 70" fill="none" xmlns="http://www.w3.org/2000/svg">
<g filter="url(#filter0_d_137_789)">
<path d="M69.6627 19.041C68.9267 16.2695 66.758 14.0868 64.0045 13.346C59.0134 12 39 12 39 12C39 12 18.9868 12 13.9956 13.346C11.2421 14.0869 9.0734 16.2695 8.33734 19.041C7 24.0645 7 34.5455 7 34.5455C7 34.5455 7 45.0265 8.33734 50.05C9.0734 52.8214 11.2421 54.9132 13.9956 55.654C18.9868 57 39 57 39 57C39 57 59.0133 57 64.0045 55.654C66.758 54.9132 68.9267 52.8214 69.6627 50.05C71.0001 45.0265 71.0001 34.5455 71.0001 34.5455C71.0001 34.5455 71.0001 24.0645 69.6627 19.041ZM32.4545 44.0614V25.0295L49.1818 34.5457L32.4545 44.0614Z" fill="black"/>
</g>
<defs>
<filter id="filter0_d_137_789" x="-4" y="0" width="86.75" height="78" filterUnits="userSpaceOnUse" color-interpolation-filters="sRGB">
<feFlood flood-opacity="0" result="BackgroundImageFix"/>
<feColorMatrix in="SourceAlpha" type="matrix" values="0 0 0 0 0 0 0 0 0 0 0 0 0 0 0 0 0 0 127 0" result="hardAlpha"/>
<feOffset dy="4"/>
<feGaussianBlur stdDeviation="2"/>
<feComposite in2="hardAlpha" operator="out"/>
<feColorMatrix type="matrix" values="0 0 0 0 0 0 0 0 0 0 0 0 0 0 0 0 0 0 0.25 0"/>
<feBlend mode="normal" in2="BackgroundImageFix" result="effect1_dropShadow_137_789"/>
<feBlend mode="normal" in="SourceGraphic" in2="effect1_dropShadow_137_789" result="shape"/>
</filter>
</defs>
</svg>
