<svg width="183" height="58" viewBox="0 0 183 58" fill="none" xmlns="http://www.w3.org/2000/svg">
<g filter="url(#filter0_d_78_965)">
<rect width="175" height="50" rx="15" fill="white"/>
<rect x="1" y="1" width="173" height="48" rx="14" stroke="black" stroke-opacity="0.5" stroke-width="2"/>
</g>
<path d="M28.7933 10.1847C26.0933 11.3155 23.1217 14.5105 22.1833 18.5208C20.9953 23.602 25.939 25.7508 26.3445 25.0461C26.8217 24.2183 25.4587 23.9383 25.1778 21.302C24.8152 17.897 26.3982 14.092 28.3905 12.4226C28.7608 12.1126 28.7432 12.5443 28.7432 13.3426L28.6643 30.2643C28.6643 33.8843 28.5148 35.0276 28.2463 36.157C27.9742 37.3016 27.5368 38.0753 27.8683 38.373C28.2387 38.7063 29.82 37.9135 30.735 36.636C31.8327 35.1038 32.2167 33.2638 32.2858 31.2655C32.3692 28.8566 32.3658 25.0343 32.3692 22.8538L32.3358 11.4788C32.3192 10.6155 29.9245 9.70965 28.7945 10.183M124.732 27.1252C124.645 29.0072 124.229 30.478 123.712 31.5156C122.711 33.5243 120.634 34.148 119.752 31.2606C119.271 29.6866 119.249 27.058 119.594 24.8615C119.944 22.624 120.928 20.934 122.554 21.0865C124.158 21.2371 124.909 23.3038 124.732 27.1253L124.732 27.1252ZM97.6917 38.8016C97.67 41.9286 97.1778 44.6703 96.1225 45.4683C94.6258 46.5975 92.6138 45.7505 93.0305 43.4686C93.3992 41.4495 95.1422 39.3875 97.696 36.868L97.6918 38.8033L97.6917 38.8016ZM97.2828 27.1075C97.1912 28.8215 96.747 30.5435 96.2622 31.5165C95.2615 33.5251 93.1695 34.1531 92.3025 31.2615C91.7097 29.2856 91.8517 26.7285 92.145 25.1173C92.5257 23.0268 93.4483 21.0873 95.105 21.0873C96.7158 21.0873 97.51 22.8545 97.283 27.1076L97.2828 27.1075ZM81.619 27.0813C81.5207 28.8967 81.1667 30.4143 80.5983 31.5163C79.57 33.5113 77.5358 34.1438 76.6387 31.2613C75.992 29.1826 76.212 26.3485 76.4812 24.8175C76.8805 22.5455 77.8802 20.9346 79.4412 21.0875C81.0445 21.2442 81.8238 23.3047 81.6192 27.0816L81.619 27.0813ZM153.403 29.2017C153.011 29.2017 152.832 29.6056 152.685 30.2857C152.171 32.6502 151.632 33.1856 150.935 33.1856C150.157 33.1856 149.459 32.0148 149.28 29.6711C149.139 27.8283 149.161 24.4355 149.342 21.0606C149.378 20.3673 149.187 19.6811 147.327 19.0056C146.527 18.715 145.364 18.2873 144.784 19.6853C143.148 23.6353 142.508 26.7715 142.357 28.0453C142.349 28.1113 142.268 28.1246 142.254 27.9706C142.158 26.9503 141.943 25.0961 141.917 21.2003C141.912 20.4403 141.751 19.7933 140.912 19.2636C140.367 18.92 138.714 18.312 138.119 19.0353C137.604 19.627 137.006 21.2186 136.386 23.1053L135.53 25.6762L135.543 19.969C135.546 19.3768 135.14 19.1796 135.017 19.144C134.466 18.984 133.38 18.7166 132.917 18.7166C132.348 18.7166 132.209 19.0346 132.209 19.4978L132.119 28.7123L132.121 29.244C131.806 30.9753 130.786 33.3256 129.676 33.3256C128.565 33.3256 128.043 32.3431 128.043 27.8523C128.043 25.2326 128.122 24.0935 128.16 22.199L128.224 20.0793C128.215 19.496 127.207 19.2021 126.738 19.0935C126.266 18.984 125.856 18.9415 125.536 18.9596C125.084 18.9851 124.763 19.2823 124.763 19.6908L124.766 20.3265C124.182 19.4098 123.244 18.7721 122.62 18.5873C120.939 18.0881 119.185 18.5306 117.862 20.3818C116.81 21.8528 116.176 23.519 115.929 25.9128C115.746 27.6628 115.806 29.4375 116.13 30.9383C115.738 32.6316 115.011 33.3256 114.215 33.3256C113.059 33.3256 112.221 31.439 112.318 28.1756C112.382 26.0293 112.812 24.523 113.282 22.344C113.482 21.415 113.319 20.9286 112.911 20.4626C112.537 20.0351 111.74 19.8168 110.594 20.0855C109.778 20.2771 108.611 20.483 107.543 20.6411C107.543 20.6411 107.607 20.3841 107.66 19.9308C107.938 17.5541 105.355 17.7468 104.531 18.5058C104.039 18.9591 103.704 19.4936 103.577 20.4548C103.375 21.9801 104.62 22.6995 104.62 22.6995C104.211 24.5661 103.211 27.0085 102.178 28.7728C101.625 29.7181 101.201 30.4188 100.655 31.1635L100.651 30.333L100.714 22.1996L100.777 20.1023C100.771 19.6756 100.522 19.5146 100.004 19.3106C99.5457 19.1303 99.004 19.0053 98.4423 18.9618C97.7332 18.9065 97.3057 19.2826 97.317 19.7275C97.3192 19.8115 97.3192 20.3271 97.3192 20.3271C96.7358 19.4105 95.7978 18.7728 95.1738 18.588C93.4928 18.089 91.7388 18.5313 90.4155 20.3825C89.3642 21.8535 88.6755 23.9178 88.4822 25.8951C88.2988 27.7381 88.3338 29.3043 88.5817 30.6235C88.3143 31.9446 87.5458 33.3261 86.677 33.3261C85.5662 33.3261 84.934 32.3436 84.934 27.8528C84.934 25.2331 85.0127 24.094 85.0513 22.1995L85.1147 20.0798C85.1063 19.4965 84.098 19.2026 83.6287 19.0938C83.1377 18.9805 82.712 18.9385 82.3882 18.9625C81.9587 18.9945 81.6565 19.3791 81.6565 19.6658V20.3268C81.0732 19.4101 80.1353 18.7725 79.5112 18.5876C77.8302 18.0886 76.0858 18.5381 74.7528 20.3821C73.8837 21.5846 73.18 22.9176 72.8195 25.8688C72.7148 26.7216 72.6687 27.5201 72.6745 28.2666C72.3278 30.3863 70.7972 32.8293 69.5448 32.8293C68.812 32.8293 68.1142 31.408 68.1142 28.379C68.1142 24.344 68.3638 18.5995 68.4062 18.0456L70.2945 18.0151C71.0837 18.0065 71.7985 18.0251 72.8495 17.9713C73.3767 17.9446 73.8845 16.0523 73.3405 15.818C73.0938 15.712 71.3508 15.6191 70.6598 15.6046C70.0788 15.5913 68.4615 15.4718 68.4615 15.4718L68.6403 11.256C68.669 10.9203 68.2347 10.7476 67.9853 10.6426C67.3797 10.3865 66.8378 10.2638 66.1953 10.1315C65.308 9.94848 64.9053 10.1275 64.8267 10.8765C64.71 12.0131 64.6467 15.3425 64.6467 15.3425C63.9955 15.3425 61.771 15.2151 61.1197 15.2151C60.5147 15.2151 59.8613 17.818 60.698 17.8501L64.4507 17.9535L64.4032 26.1513C63.791 29.3418 61.6348 31.0653 61.6348 31.0653C62.0978 28.9546 61.152 27.3696 59.4482 26.0278C58.8205 25.5333 57.5815 24.5973 56.1948 23.5716C56.1948 23.5716 56.9978 22.7803 57.7115 21.1883C58.216 20.0605 58.2378 18.77 56.9995 18.4853C54.9532 18.0148 53.2662 19.5175 52.7628 21.122C52.3728 22.3648 52.5808 23.287 53.3445 24.2453C53.4003 24.3153 53.4607 24.387 53.5232 24.4586C53.0612 25.349 52.4265 26.5476 51.8893 27.477C50.3977 30.0578 49.2707 32.0991 48.4193 32.0991C47.7385 32.0991 47.7477 30.0266 47.7477 28.0861C47.7477 26.4133 47.871 23.8983 47.9698 21.2945C48.0025 20.4333 47.5718 19.9428 46.8498 19.4983C46.4115 19.2283 45.4752 18.6976 44.9332 18.6976C44.1215 18.6976 41.7807 18.808 39.5687 25.2066C39.2898 26.0133 38.742 27.4826 38.742 27.4826L38.7892 19.7881C38.7892 19.6078 38.6932 19.4331 38.473 19.314C38.1003 19.1116 37.1063 18.6976 36.2197 18.6976C35.798 18.6976 35.5873 18.8938 35.5873 19.2848L35.5102 31.3231C35.5102 32.2378 35.534 33.3065 35.6245 33.7715C35.715 34.2365 35.8605 34.6188 36.0412 34.8448C36.2218 35.0708 36.4305 35.2428 36.7748 35.3138C37.0953 35.3798 38.8498 35.6051 38.9412 34.9346C39.0505 34.1313 39.0545 33.2618 39.9762 30.0203C41.4105 24.9736 43.2807 22.5111 44.1598 21.6366C44.3135 21.4838 44.489 21.4746 44.4807 21.725L44.2223 27.945C43.984 34.2308 45.1277 35.396 46.7618 35.396C48.0118 35.396 49.7743 34.1538 51.6618 31.0093L54.8048 25.7435L56.662 27.4535C58.1542 28.8696 58.644 30.2155 58.319 31.4918C58.0703 32.4678 57.134 33.4751 55.4678 32.496C54.9822 32.211 54.7748 31.9905 54.2865 31.6688C54.0242 31.4961 53.6235 31.4445 53.3832 31.6255C52.7593 32.0958 52.4025 32.6941 52.1987 33.435C52.0003 34.1558 52.7223 34.5366 53.4707 34.8683C54.115 35.155 55.4998 35.415 56.383 35.4446C59.8242 35.5613 62.5807 33.783 64.4997 29.2005C64.843 33.1581 66.3052 35.3978 68.845 35.3978C70.5433 35.3978 72.2457 33.2028 72.99 31.0435C73.2037 31.9235 73.52 32.6891 73.9287 33.3363C75.8858 36.4373 79.6827 35.7696 81.5898 33.1366C82.1795 32.323 82.2693 32.0306 82.2693 32.0306C82.5477 34.517 84.5498 35.3856 85.696 35.3856C86.98 35.3856 88.3057 34.7786 89.2348 32.6868C89.3437 32.9138 89.4625 33.1306 89.5923 33.3361C91.5495 36.4371 95.3463 35.7695 97.2535 33.1365C97.3341 33.0258 97.4128 32.9137 97.4897 32.8003L97.5457 34.4336L95.7898 36.044C92.8503 38.7406 90.6153 40.7868 90.4508 43.1695C90.2398 46.2078 92.7037 47.3366 94.5678 47.4845C96.5475 47.6416 98.2428 46.5478 99.2845 45.0178C100.201 43.6708 100.801 40.7715 100.757 37.9081L100.688 33.7408C101.721 32.5408 102.885 31.0246 103.957 29.2496C105.125 27.3153 106.377 24.7176 107.017 22.696C107.017 22.696 108.105 22.7053 109.266 22.6293C109.637 22.6051 109.743 22.681 109.675 22.953C109.592 23.2818 108.209 28.618 109.471 32.173C110.335 34.6063 112.284 35.3896 113.439 35.3896C114.791 35.3896 116.084 34.3685 116.778 32.8521C116.861 33.0211 116.948 33.1848 117.044 33.3358C119.001 36.4368 122.784 35.7653 124.705 33.1361C125.138 32.5428 125.384 32.0301 125.384 32.0301C125.797 34.6035 127.798 35.3985 128.944 35.3985C130.138 35.3985 131.271 34.909 132.191 32.7335C132.229 33.6913 132.289 34.4745 132.385 34.7213C132.443 34.8723 132.782 35.0618 133.029 35.1535C134.121 35.5585 135.235 35.3668 135.646 35.2835C135.931 35.2256 136.154 34.9968 136.184 34.4051C136.264 32.8521 136.215 30.2428 136.684 28.3035C137.475 25.049 138.212 23.7868 138.561 23.1618C138.757 22.8118 138.978 22.7538 138.986 23.1245C139.003 23.8745 139.04 26.0762 139.346 29.035C139.571 31.2108 139.871 32.497 140.102 32.904C140.761 34.068 141.575 34.1231 142.235 34.1231C142.657 34.1231 143.538 34.0065 143.459 33.266C143.421 32.905 143.488 30.6736 144.267 27.4673C144.776 25.3735 145.624 23.4816 145.93 22.79C146.043 22.535 146.096 22.736 146.094 22.775C146.029 24.217 145.885 28.9333 146.472 31.5128C147.268 35.0073 149.572 35.3983 150.375 35.3983C152.088 35.3983 153.49 34.095 153.962 30.665C154.076 29.8395 153.907 29.2021 153.403 29.2021" fill="#262626"/>
<defs>
<filter id="filter0_d_78_965" x="0" y="0" width="183" height="58" filterUnits="userSpaceOnUse" color-interpolation-filters="sRGB">
<feFlood flood-opacity="0" result="BackgroundImageFix"/>
<feColorMatrix in="SourceAlpha" type="matrix" values="0 0 0 0 0 0 0 0 0 0 0 0 0 0 0 0 0 0 127 0" result="hardAlpha"/>
<feOffset dx="4" dy="4"/>
<feGaussianBlur stdDeviation="2"/>
<feComposite in2="hardAlpha" operator="out"/>
<feColorMatrix type="matrix" values="0 0 0 0 0 0 0 0 0 0 0 0 0 0 0 0 0 0 0.25 0"/>
<feBlend mode="normal" in2="BackgroundImageFix" result="effect1_dropShadow_78_965"/>
<feBlend mode="normal" in="SourceGraphic" in2="effect1_dropShadow_78_965" result="shape"/>
</filter>
</defs>
</svg>
