<svg width="183" height="66" viewBox="0 0 183 66" fill="none" xmlns="http://www.w3.org/2000/svg">
<g filter="url(#filter0_d_78_951)">
<rect y="8" width="175" height="50" rx="15" fill="white"/>
<rect x="1" y="9" width="173" height="48" rx="14" stroke="black" stroke-opacity="0.5" stroke-width="2"/>
</g>
<path d="M58.0752 28.6498H44.5119V32.6744H54.1319C53.6552 38.3077 48.9612 40.7257 44.5282 40.7257C43.1238 40.7319 41.7323 40.4583 40.4348 39.9207C39.1374 39.3832 37.9601 38.5926 36.9715 37.5951C35.983 36.5976 35.203 35.4131 34.6773 34.1109C34.1515 32.8087 33.8905 31.4147 33.9093 30.0105C33.9093 23.9178 38.6262 19.227 44.5412 19.227C49.1042 19.227 51.793 22.1357 51.793 22.1357L54.6096 19.2172C54.6096 19.2172 50.9913 15.1905 44.3938 15.1905C35.9926 15.1905 29.4937 22.2809 29.4937 29.939C29.4937 37.4432 35.6069 44.7612 44.6062 44.7612C52.5221 44.7612 58.3168 39.338 58.3168 31.3192C58.3168 29.627 58.0709 28.6498 58.0709 28.6498H58.0752Z" fill="#4885ED"/>
<path d="M69.1868 25.7346C63.6207 25.7346 59.6318 30.0864 59.6318 35.1596C59.6318 40.3098 63.4993 44.7417 69.2518 44.7417C74.4583 44.7417 78.7234 40.7626 78.7234 35.2701C78.7234 28.9868 73.7618 25.7335 69.1868 25.7335V25.7346ZM69.241 29.4678C71.9775 29.4678 74.571 31.681 74.571 35.2463C74.571 38.7346 71.9883 41.0118 69.228 41.0118C66.1947 41.0118 63.8113 38.5829 63.8113 35.2181C63.8113 31.9248 66.173 29.4678 69.2497 29.4678H69.241Z" fill="#DB3236"/>
<path d="M89.9661 25.7346C84.4 25.7346 80.4111 30.0864 80.4111 35.1596C80.4111 40.3098 84.2786 44.7417 90.0311 44.7417C95.2376 44.7417 99.5027 40.7626 99.5027 35.2701C99.5027 28.9868 94.541 25.7335 89.9661 25.7335V25.7346ZM90.0203 29.4678C92.7568 29.4678 95.3503 31.681 95.3503 35.2463C95.3503 38.7346 92.7676 41.0118 90.0073 41.0118C86.974 41.0118 84.5906 38.5829 84.5906 35.2181C84.5906 31.9248 86.9523 29.4678 90.029 29.4678H90.0203Z" fill="#F4C20D"/>
<path d="M110.347 25.7454C105.238 25.7454 101.223 30.2196 101.223 35.2419C101.223 40.9619 105.878 44.7558 110.258 44.7558C112.966 44.7558 114.407 43.68 115.458 42.4461V44.3203C115.458 47.5995 113.467 49.5636 110.462 49.5636C107.558 49.5636 106.102 47.4045 105.587 46.1803L101.934 47.697C103.229 50.4378 105.838 53.2946 110.492 53.2946C115.584 53.2946 119.443 50.0955 119.443 43.3853V26.3163H115.473V27.9262C114.249 26.6045 112.572 25.7454 110.349 25.7454H110.347ZM110.715 29.4721C113.22 29.4721 115.792 31.6106 115.792 35.2625C115.792 38.9751 113.224 41.0204 110.66 41.0204C107.937 41.0204 105.403 38.8104 105.403 35.2972C105.403 31.6485 108.035 29.471 110.715 29.471V29.4721Z" fill="#4885ED"/>
<path d="M137.183 25.7227C132.365 25.7227 128.318 29.5577 128.318 35.2127C128.318 41.1992 132.828 44.7492 137.635 44.7492C141.656 44.7492 144.135 42.5501 145.598 40.5784L142.312 38.3922C141.459 39.7139 140.034 41.0085 137.656 41.0085C134.984 41.0085 133.756 39.546 132.994 38.1268L145.737 32.8402L145.087 31.291C143.857 28.2577 140.985 25.7227 137.184 25.7227H137.183ZM137.349 29.3778C139.086 29.3778 140.335 30.3008 140.866 31.408L132.355 34.9646C131.987 32.2107 134.597 29.3778 137.338 29.3778H137.349Z" fill="#DB3236"/>
<path d="M122.233 44.1859H126.419V16.1742H122.233V44.1859Z" fill="#3CBA54"/>
<defs>
<filter id="filter0_d_78_951" x="0" y="8" width="183" height="58" filterUnits="userSpaceOnUse" color-interpolation-filters="sRGB">
<feFlood flood-opacity="0" result="BackgroundImageFix"/>
<feColorMatrix in="SourceAlpha" type="matrix" values="0 0 0 0 0 0 0 0 0 0 0 0 0 0 0 0 0 0 127 0" result="hardAlpha"/>
<feOffset dx="4" dy="4"/>
<feGaussianBlur stdDeviation="2"/>
<feComposite in2="hardAlpha" operator="out"/>
<feColorMatrix type="matrix" values="0 0 0 0 0 0 0 0 0 0 0 0 0 0 0 0 0 0 0.25 0"/>
<feBlend mode="normal" in2="BackgroundImageFix" result="effect1_dropShadow_78_951"/>
<feBlend mode="normal" in="SourceGraphic" in2="effect1_dropShadow_78_951" result="shape"/>
</filter>
</defs>
</svg>
