<svg width="268" height="58" viewBox="0 0 268 58" fill="none" xmlns="http://www.w3.org/2000/svg">
<g filter="url(#filter0_d_79_982)">
<rect width="260" height="50" rx="15" fill="white"/>
<rect x="1" y="1" width="258" height="48" rx="14" stroke="black" stroke-opacity="0.5" stroke-width="2"/>
</g>
<path d="M25.8849 22.3622H23.2287C23.1529 21.9266 23.0133 21.5407 22.8097 21.2045C22.6061 20.8636 22.3527 20.5748 22.0497 20.3381C21.7467 20.1013 21.401 19.9238 21.0128 19.8054C20.6293 19.6823 20.215 19.6207 19.7699 19.6207C18.9792 19.6207 18.2784 19.8196 17.6676 20.2173C17.0568 20.6103 16.5786 21.188 16.233 21.9503C15.8873 22.7079 15.7145 23.6335 15.7145 24.7273C15.7145 25.84 15.8873 26.7775 16.233 27.5398C16.5833 28.2973 17.0616 28.8703 17.6676 29.2585C18.2784 29.642 18.9768 29.8338 19.7628 29.8338C20.1984 29.8338 20.6056 29.777 20.9844 29.6634C21.3679 29.545 21.7112 29.3722 22.0142 29.1449C22.322 28.9176 22.58 28.6383 22.7884 28.3068C23.0014 27.9754 23.1482 27.5966 23.2287 27.1705L25.8849 27.1847C25.7855 27.8759 25.5701 28.5246 25.2386 29.1307C24.9119 29.7367 24.4834 30.2718 23.9531 30.7358C23.4228 31.1951 22.8026 31.5549 22.0923 31.8153C21.3821 32.071 20.5938 32.1989 19.7273 32.1989C18.4489 32.1989 17.3078 31.9029 16.304 31.3111C15.3002 30.7192 14.5095 29.8646 13.9318 28.7472C13.3542 27.6297 13.0653 26.2898 13.0653 24.7273C13.0653 23.16 13.3565 21.8201 13.9389 20.7074C14.5213 19.59 15.3144 18.7353 16.3182 18.1435C17.322 17.5516 18.4583 17.2557 19.7273 17.2557C20.5369 17.2557 21.2898 17.3693 21.9858 17.5966C22.6818 17.8239 23.3021 18.1577 23.8466 18.598C24.3911 19.0336 24.8385 19.5687 25.1889 20.2031C25.544 20.8329 25.776 21.5526 25.8849 22.3622ZM31.9901 32H29.1776L34.2983 17.4545H37.5511L42.679 32H39.8665L35.9815 20.4375H35.8679L31.9901 32ZM32.0824 26.2969H39.7528V28.4134H32.0824V26.2969ZM51.5238 32H46.5948V17.4545H51.6232C53.0674 17.4545 54.3079 17.7457 55.3448 18.3281C56.3865 18.9058 57.1867 19.7367 57.7454 20.821C58.3041 21.9053 58.5835 23.2027 58.5835 24.7131C58.5835 26.2282 58.3017 27.5303 57.7383 28.6193C57.1796 29.7083 56.3723 30.544 55.3164 31.1264C54.2653 31.7088 53.0011 32 51.5238 32ZM49.2298 29.7202H51.396C52.4092 29.7202 53.2544 29.5355 53.9315 29.1662C54.6085 28.7921 55.1175 28.2358 55.4585 27.4972C55.7994 26.7538 55.9698 25.8258 55.9698 24.7131C55.9698 23.6004 55.7994 22.6771 55.4585 21.9432C55.1175 21.2045 54.6133 20.6529 53.9457 20.2884C53.2828 19.919 52.4589 19.7344 51.4741 19.7344H49.2298V29.7202ZM64.1737 32H61.3612L66.4819 17.4545H69.7347L74.8626 32H72.0501L68.1651 20.4375H68.0515L64.1737 32ZM64.266 26.2969H71.9364V28.4134H64.266V26.2969ZM86.4489 21.4531C86.3826 20.8329 86.1032 20.3499 85.6108 20.0043C85.1231 19.6586 84.4886 19.4858 83.7074 19.4858C83.1581 19.4858 82.687 19.5687 82.294 19.7344C81.901 19.9001 81.6004 20.125 81.392 20.4091C81.1837 20.6932 81.0772 21.0175 81.0724 21.3821C81.0724 21.6851 81.1411 21.9479 81.2784 22.1705C81.4205 22.393 81.6122 22.5824 81.8537 22.7386C82.0952 22.8902 82.3627 23.018 82.6562 23.1222C82.9498 23.2263 83.2457 23.3139 83.544 23.3849L84.9077 23.7259C85.4569 23.8537 85.9848 24.0265 86.4915 24.2443C87.0028 24.4621 87.4598 24.7367 87.8622 25.0682C88.2694 25.3996 88.5914 25.7997 88.8281 26.2685C89.0649 26.7372 89.1832 27.2865 89.1832 27.9162C89.1832 28.7685 88.9654 29.5189 88.5298 30.1676C88.0942 30.8116 87.4645 31.3158 86.6406 31.6804C85.8215 32.0402 84.8295 32.2202 83.6648 32.2202C82.5331 32.2202 81.5507 32.045 80.7173 31.6946C79.8887 31.3442 79.2401 30.8329 78.7713 30.1605C78.3073 29.4882 78.0563 28.669 78.0185 27.7031H80.6108C80.6487 28.2098 80.8049 28.6312 81.0795 28.9673C81.3542 29.3035 81.7116 29.5545 82.152 29.7202C82.5971 29.8859 83.0942 29.9688 83.6435 29.9688C84.2164 29.9688 84.7183 29.8835 85.1491 29.7131C85.5848 29.5379 85.9257 29.2964 86.1719 28.9886C86.4181 28.6761 86.5436 28.3116 86.5483 27.8949C86.5436 27.5161 86.4323 27.2036 86.2145 26.9574C85.9967 26.7064 85.6913 26.4981 85.2983 26.3324C84.91 26.1619 84.4555 26.0104 83.9347 25.8778L82.2798 25.4517C81.0819 25.1439 80.1349 24.6776 79.4389 24.0526C78.7476 23.4228 78.402 22.5871 78.402 21.5455C78.402 20.6884 78.634 19.938 79.098 19.294C79.5668 18.6501 80.2036 18.1506 81.0085 17.7955C81.8134 17.4356 82.7249 17.2557 83.7429 17.2557C84.7751 17.2557 85.6795 17.4356 86.456 17.7955C87.2372 18.1506 87.8504 18.6454 88.2955 19.2798C88.7405 19.9096 88.9702 20.634 88.9844 21.4531H86.4489ZM92.8931 19.6634V17.4545H104.498V19.6634H100.002V32H97.3888V19.6634H92.8931ZM108.735 32V17.4545H114.19C115.307 17.4545 116.245 17.6487 117.002 18.0369C117.765 18.4252 118.34 18.9697 118.728 19.6705C119.121 20.3665 119.318 21.1785 119.318 22.1065C119.318 23.0393 119.119 23.849 118.721 24.5355C118.328 25.2173 117.748 25.7453 116.981 26.1193C116.214 26.4886 115.272 26.6733 114.154 26.6733H110.27V24.4858H113.799C114.453 24.4858 114.988 24.3958 115.404 24.2159C115.821 24.0312 116.129 23.7637 116.328 23.4134C116.531 23.0582 116.633 22.6226 116.633 22.1065C116.633 21.5904 116.531 21.1501 116.328 20.7855C116.124 20.4162 115.814 20.1368 115.397 19.9474C114.981 19.7533 114.443 19.6562 113.785 19.6562H111.37V32H108.735ZM116.25 25.4091L119.85 32H116.91L113.373 25.4091H116.25ZM123.743 32V17.4545H133.203V19.6634H126.378V23.6122H132.713V25.821H126.378V29.7912H133.26V32H123.743ZM144.39 23.669V25.7855H137.842V23.669H144.39ZM157.113 21.4531C157.047 20.8329 156.767 20.3499 156.275 20.0043C155.787 19.6586 155.153 19.4858 154.371 19.4858C153.822 19.4858 153.351 19.5687 152.958 19.7344C152.565 19.9001 152.264 20.125 152.056 20.4091C151.848 20.6932 151.741 21.0175 151.737 21.3821C151.737 21.6851 151.805 21.9479 151.942 22.1705C152.085 22.393 152.276 22.5824 152.518 22.7386C152.759 22.8902 153.027 23.018 153.32 23.1222C153.614 23.2263 153.91 23.3139 154.208 23.3849L155.572 23.7259C156.121 23.8537 156.649 24.0265 157.156 24.2443C157.667 24.4621 158.124 24.7367 158.526 25.0682C158.933 25.3996 159.255 25.7997 159.492 26.2685C159.729 26.7372 159.847 27.2865 159.847 27.9162C159.847 28.7685 159.629 29.5189 159.194 30.1676C158.758 30.8116 158.129 31.3158 157.305 31.6804C156.486 32.0402 155.494 32.2202 154.329 32.2202C153.197 32.2202 152.215 32.045 151.381 31.6946C150.553 31.3442 149.904 30.8329 149.435 30.1605C148.971 29.4882 148.72 28.669 148.683 27.7031H151.275C151.313 28.2098 151.469 28.6312 151.744 28.9673C152.018 29.3035 152.376 29.5545 152.816 29.7202C153.261 29.8859 153.758 29.9688 154.308 29.9688C154.88 29.9688 155.382 29.8835 155.813 29.7131C156.249 29.5379 156.59 29.2964 156.836 28.9886C157.082 28.6761 157.208 28.3116 157.212 27.8949C157.208 27.5161 157.096 27.2036 156.879 26.9574C156.661 26.7064 156.355 26.4981 155.962 26.3324C155.574 26.1619 155.12 26.0104 154.599 25.8778L152.944 25.4517C151.746 25.1439 150.799 24.6776 150.103 24.0526C149.412 23.4228 149.066 22.5871 149.066 21.5455C149.066 20.6884 149.298 19.938 149.762 19.294C150.231 18.6501 150.868 18.1506 151.673 17.7955C152.478 17.4356 153.389 17.2557 154.407 17.2557C155.439 17.2557 156.344 17.4356 157.12 17.7955C157.901 18.1506 158.514 18.6454 158.96 19.2798C159.405 19.9096 159.634 20.634 159.648 21.4531H157.113ZM164.196 32V17.4545H173.657V19.6634H166.831V23.6122H173.167V25.821H166.831V29.7912H173.713V32H164.196ZM187.174 32H184.361L189.482 17.4545H192.735L197.863 32H195.05L191.165 20.4375H191.051L187.174 32ZM187.266 26.2969H194.936V28.4134H187.266V26.2969ZM206.514 27.1136H208.9L210.314 28.946L211.322 30.1392L213.744 33.25H211.187L209.539 31.1619L208.836 30.1676L206.514 27.1136ZM214.092 24.7273C214.092 26.2945 213.798 27.6368 213.211 28.7543C212.629 29.867 211.833 30.7192 210.825 31.3111C209.821 31.9029 208.682 32.1989 207.409 32.1989C206.135 32.1989 204.994 31.9029 203.985 31.3111C202.982 30.7145 202.186 29.8598 201.599 28.7472C201.017 27.6297 200.725 26.2898 200.725 24.7273C200.725 23.16 201.017 21.8201 201.599 20.7074C202.186 19.59 202.982 18.7353 203.985 18.1435C204.994 17.5516 206.135 17.2557 207.409 17.2557C208.682 17.2557 209.821 17.5516 210.825 18.1435C211.833 18.7353 212.629 19.59 213.211 20.7074C213.798 21.8201 214.092 23.16 214.092 24.7273ZM211.443 24.7273C211.443 23.6241 211.27 22.6937 210.924 21.9361C210.583 21.1738 210.11 20.5985 209.504 20.2102C208.898 19.8172 208.199 19.6207 207.409 19.6207C206.618 19.6207 205.92 19.8172 205.314 20.2102C204.708 20.5985 204.232 21.1738 203.886 21.9361C203.545 22.6937 203.375 23.6241 203.375 24.7273C203.375 25.8305 203.545 26.7633 203.886 27.5256C204.232 28.2831 204.708 28.8584 205.314 29.2514C205.92 29.6397 206.618 29.8338 207.409 29.8338C208.199 29.8338 208.898 29.6397 209.504 29.2514C210.11 28.8584 210.583 28.2831 210.924 27.5256C211.27 26.7633 211.443 25.8305 211.443 24.7273ZM227.772 17.4545H230.407V26.9574C230.407 27.9991 230.16 28.9152 229.668 29.706C229.18 30.4967 228.494 31.1146 227.608 31.5597C226.723 32 225.688 32.2202 224.505 32.2202C223.316 32.2202 222.279 32 221.394 31.5597C220.508 31.1146 219.822 30.4967 219.334 29.706C218.846 28.9152 218.603 27.9991 218.603 26.9574V17.4545H221.238V26.7372C221.238 27.3433 221.37 27.883 221.635 28.3565C221.905 28.83 222.284 29.2017 222.772 29.4716C223.259 29.7367 223.837 29.8693 224.505 29.8693C225.172 29.8693 225.75 29.7367 226.238 29.4716C226.73 29.2017 227.109 28.83 227.374 28.3565C227.639 27.883 227.772 27.3433 227.772 26.7372V17.4545ZM237.906 17.4545V32H235.271V17.4545H237.906ZM245.792 17.4545L245.557 27.7244H243.27L243.043 17.4545H245.792ZM244.414 32.1562C243.983 32.1562 243.614 32.0047 243.306 31.7017C243.003 31.3987 242.851 31.0294 242.851 30.5938C242.851 30.1676 243.003 29.803 243.306 29.5C243.614 29.197 243.983 29.0455 244.414 29.0455C244.835 29.0455 245.2 29.197 245.507 29.5C245.82 29.803 245.976 30.1676 245.976 30.5938C245.976 30.8826 245.903 31.1454 245.756 31.3821C245.614 31.6188 245.425 31.8082 245.188 31.9503C244.956 32.0876 244.698 32.1562 244.414 32.1562Z" fill="black"/>
<defs>
<filter id="filter0_d_79_982" x="0" y="0" width="268" height="58" filterUnits="userSpaceOnUse" color-interpolation-filters="sRGB">
<feFlood flood-opacity="0" result="BackgroundImageFix"/>
<feColorMatrix in="SourceAlpha" type="matrix" values="0 0 0 0 0 0 0 0 0 0 0 0 0 0 0 0 0 0 127 0" result="hardAlpha"/>
<feOffset dx="4" dy="4"/>
<feGaussianBlur stdDeviation="2"/>
<feComposite in2="hardAlpha" operator="out"/>
<feColorMatrix type="matrix" values="0 0 0 0 0 0 0 0 0 0 0 0 0 0 0 0 0 0 0.25 0"/>
<feBlend mode="normal" in2="BackgroundImageFix" result="effect1_dropShadow_79_982"/>
<feBlend mode="normal" in="SourceGraphic" in2="effect1_dropShadow_79_982" result="shape"/>
</filter>
</defs>
</svg>
